<svg width="20" height="20" viewBox="0 0 20 20" fill="none" xmlns="http://www.w3.org/2000/svg">
<g clip-path="url(#clip0_1_825)">
<path d="M15.484 1.78329L10.2632 0.0424565C10.0922 -0.0144777 9.90745 -0.0144777 9.73651 0.0424565L4.51567 1.78329C3.68559 2.05902 2.96352 2.58934 2.45204 3.29888C1.94057 4.00843 1.6657 4.86111 1.66651 5.73579V9.99996C1.66651 16.3025 9.33317 19.7833 9.66151 19.9283C9.76802 19.9756 9.88328 20.0001 9.99984 20.0001C10.1164 20.0001 10.2317 19.9756 10.3382 19.9283C10.6665 19.7833 18.3332 16.3025 18.3332 9.99996V5.73579C18.334 4.86111 18.0591 4.00843 17.5476 3.29888C17.0362 2.58934 16.3141 2.05902 15.484 1.78329ZM16.6665 9.99996C16.6665 14.5458 11.4007 17.5275 9.99984 18.2408C8.59734 17.53 3.33317 14.5575 3.33317 9.99996V5.73579C3.33322 5.21102 3.4984 4.69957 3.80531 4.27391C4.11222 3.84824 4.54529 3.52995 5.04317 3.36412L9.99984 1.71162L14.9565 3.36412C15.4544 3.52995 15.8875 3.84824 16.1944 4.27391C16.5013 4.69957 16.6665 5.21102 16.6665 5.73579V9.99996Z" fill="#316D86"/>
<path d="M12.7502 6.91661L9.26015 10.4166L7.39015 8.46661C7.31511 8.38455 7.2244 8.31835 7.12337 8.2719C7.02234 8.22544 6.91304 8.19968 6.8019 8.19612C6.69076 8.19256 6.58003 8.21128 6.47624 8.25117C6.37245 8.29107 6.27769 8.35133 6.19755 8.42842C6.1174 8.5055 6.0535 8.59784 6.0096 8.70001C5.96569 8.80217 5.94268 8.91208 5.94191 9.02328C5.94115 9.13447 5.96264 9.24469 6.00513 9.34745C6.04762 9.45021 6.11025 9.54343 6.18932 9.62161L8.11099 11.6216C8.2543 11.7764 8.42752 11.9005 8.62017 11.9865C8.81282 12.0724 9.0209 12.1184 9.23182 12.1216H9.25932C9.46603 12.1223 9.67082 12.0819 9.8618 12.0028C10.0528 11.9237 10.2261 11.8074 10.3718 11.6608L13.9318 8.10077C14.0096 8.02318 14.0713 7.93104 14.1134 7.8296C14.1556 7.72816 14.1773 7.61942 14.1774 7.50957C14.1776 7.39973 14.156 7.29094 14.1141 7.18941C14.0722 7.08789 14.0107 6.99561 13.9331 6.91786C13.8555 6.8401 13.7633 6.77839 13.6619 6.73625C13.5605 6.69411 13.4517 6.67236 13.3419 6.67224C13.232 6.67213 13.1232 6.69365 13.0217 6.73557C12.9202 6.7775 12.8279 6.83902 12.7502 6.91661Z" fill="#316D86"/>
</g>
<defs>
<clipPath id="clip0_1_825">
<rect width="20" height="20" fill="white"/>
</clipPath>
</defs>
</svg>
