<svg width="122" height="146" viewBox="0 0 122 146" fill="none" xmlns="http://www.w3.org/2000/svg">
<path fill-rule="evenodd" clip-rule="evenodd" d="M70.1439 3.5968C85.4037 2.45616 104.242 -5.11423 114.869 5.89676C125.871 17.2966 115.661 36.4307 117.064 52.212C118.043 63.2374 122.963 73.2421 121.832 84.2531C120.445 97.7609 118.631 111.769 109.88 122.153C99.7223 134.207 85.8101 143.842 70.1439 145.59C53.5933 147.437 35.6498 143.081 23.3977 131.801C11.6392 120.976 11.3535 103.331 7.41562 87.8403C3.78218 73.5474 -2.86661 59.2364 1.35915 45.1072C5.62942 30.8292 17.2675 19.9384 30.0266 12.2385C42.0323 4.99331 56.1606 4.64202 70.1439 3.5968Z" fill="#FFC278"/>
</svg>
