<svg width="17" height="17" viewBox="0 0 17 17" fill="none" xmlns="http://www.w3.org/2000/svg">
<path d="M6.48338 3.83075C7.38084 2.22141 7.82921 1.41675 8.5 1.41675C9.1708 1.41675 9.61917 2.22141 10.5166 3.83075L10.749 4.24725C11.004 4.70483 11.1315 4.93362 11.3298 5.0845C11.5281 5.23537 11.776 5.29133 12.2719 5.40325L12.7224 5.50525C14.4649 5.89979 15.3354 6.09671 15.543 6.76325C15.7498 7.42908 15.1562 8.12396 13.9683 9.513L13.6609 9.87212C13.3238 10.2667 13.1545 10.4643 13.0787 10.708C13.0029 10.9523 13.0284 11.2158 13.0794 11.7421L13.1261 12.2217C13.3053 14.0754 13.3953 15.0019 12.8527 15.4134C12.3101 15.8257 11.4941 15.4495 9.86355 14.6987L9.44067 14.5046C8.97742 14.2907 8.7458 14.1845 8.5 14.1845C8.25421 14.1845 8.02259 14.2907 7.55863 14.5046L7.13717 14.6987C5.50588 15.4495 4.68988 15.825 4.148 15.4141C3.60471 15.0019 3.69467 14.0754 3.87388 12.2217L3.92063 11.7428C3.97163 11.2158 3.99713 10.9523 3.92063 10.7087C3.84555 10.4643 3.67625 10.2667 3.33909 9.87283L3.03167 9.513C1.8438 8.12466 1.25021 7.42979 1.45705 6.76325C1.66459 6.09671 2.53584 5.89908 4.27834 5.50525L4.72884 5.40325C5.22396 5.29133 5.47117 5.23537 5.67021 5.0845C5.86855 4.93362 5.99605 4.70483 6.25105 4.24725L6.48338 3.83075Z" fill="#FED430"/>
</svg>
