<svg width="143" height="119" viewBox="0 0 143 119" fill="none" xmlns="http://www.w3.org/2000/svg">
<path opacity="0.2" d="M3.88732 82.2135C-4.91557 61.859 1.62045 31.6045 19.5601 15.1547C37.3568 -1.21261 66.5269 -3.66253 88.9496 4.64037C111.402 12.8306 127.221 31.8038 131.889 52.2582C136.557 72.7125 130.075 94.648 116.425 106.812C102.775 118.977 81.8746 121.227 59.2969 117.109C36.832 113.022 12.6902 102.568 3.88732 82.2135Z" fill="#86CCE9"/>
<circle opacity="0.5" cx="21.9426" cy="114.631" r="4.05153" fill="#52B6DF"/>
<circle opacity="0.5" cx="134.035" cy="22.3467" r="8.10306" fill="#52B6DF"/>
<circle opacity="0.5" cx="6.63688" cy="11.0922" r="3.15119" fill="#52B6DF"/>
<path d="M19.3893 76.498C12.6928 61.1376 17.6133 38.3286 31.1944 25.9433C44.6672 13.6201 66.7779 11.8057 83.7856 18.0928C100.816 24.2949 112.829 38.6216 116.391 54.0525C119.953 69.4835 115.065 86.0188 104.731 95.1769C94.3966 104.335 78.5545 106.008 61.4341 102.878C44.3991 99.7699 26.0857 91.8583 19.3893 76.498Z" fill="#52B6DF"/>
</svg>
