<svg width="148" height="117" viewBox="0 0 148 117" fill="none" xmlns="http://www.w3.org/2000/svg">
<path opacity="0.2" d="M127.881 19.7861C141.647 37.1621 143.164 68.0657 130.098 88.5904C117.149 108.998 89.6168 118.911 65.8182 116.695C42.0196 114.596 21.8374 100.369 12.038 81.8266C2.23859 63.2844 2.82189 40.4274 12.8546 25.1505C22.8874 9.87363 42.4862 2.2935 65.3516 0.427627C88.1002 -1.43825 114.115 2.41012 127.881 19.7861Z" fill="#86CCE9"/>
<circle opacity="0.5" cx="143.05" cy="86.8501" r="4.05" fill="#52B6DF"/>
<circle opacity="0.5" cx="8.1" cy="103.5" r="8.1" fill="#52B6DF"/>
<circle opacity="0.5" cx="10.3502" cy="11.25" r="3.15" fill="#52B6DF"/>
<path d="M114.392 29.3157C124.832 42.4145 125.982 65.7111 116.073 81.1835C106.252 96.568 85.3727 104.041 67.3241 102.37C49.2755 100.788 33.9695 90.0626 26.5377 76.0847C19.106 62.1067 19.5483 44.8761 27.1571 33.3596C34.7658 21.8432 49.6293 16.129 66.9702 14.7224C84.2225 13.3158 103.952 16.2169 114.392 29.3157Z" fill="#52B6DF"/>
<path fill-rule="evenodd" clip-rule="evenodd" d="M91.3999 58.5C91.3999 68.9382 82.9381 77.4 72.4999 77.4C62.0617 77.4 53.5999 68.9382 53.5999 58.5C53.5999 48.0618 62.0617 39.6 72.4999 39.6C82.9381 39.6 91.3999 48.0618 91.3999 58.5ZM94.0999 58.5C94.0999 70.4294 84.4293 80.1 72.4999 80.1C60.5706 80.1 50.8999 70.4294 50.8999 58.5C50.8999 46.5707 60.5706 36.9 72.4999 36.9C84.4293 36.9 94.0999 46.5707 94.0999 58.5ZM82.8876 53.1712C83.424 52.6533 83.439 51.7987 82.9211 51.2623C82.4032 50.7259 81.5486 50.7109 81.0122 51.2288L68.9165 62.9074L64.4545 58.4454C63.9273 57.9182 63.0725 57.9182 62.5453 58.4454C62.0181 58.9726 62.0181 59.8274 62.5453 60.3546L67.32 65.1293C68.1878 65.9971 69.5909 66.0094 70.4738 65.1569L82.8876 53.1712Z" fill="white"/>
</svg>
