<svg width="24" height="24" viewBox="0 0 24 24" fill="none" xmlns="http://www.w3.org/2000/svg">
<g clip-path="url(#clip0_0_60)">
<path d="M19.6751 2.75802C18.4081 1.70368 16.9364 0.923183 15.3529 0.46572C13.7693 0.00825769 12.1081 -0.116257 10.4741 0.100021C7.45114 0.492739 4.69096 2.02119 2.754 4.37503C0.817033 6.72887 -0.151521 9.73164 0.0450001 12.7736C0.241521 15.8156 1.58838 18.6688 3.81211 20.7539C6.03584 22.8389 8.96974 23.9995 12.0181 24H19.0001C20.3257 23.9984 21.5965 23.4711 22.5339 22.5338C23.4712 21.5965 23.9985 20.3256 24.0001 19V11.309V11.246C23.8942 9.61147 23.4561 8.01567 22.7125 6.55623C21.9688 5.09679 20.9353 3.80438 19.6751 2.75802ZM8.00008 7.00002H12.0001C12.2653 7.00002 12.5196 7.10538 12.7072 7.29291C12.8947 7.48045 13.0001 7.7348 13.0001 8.00002C13.0001 8.26524 12.8947 8.51959 12.7072 8.70713C12.5196 8.89466 12.2653 9.00002 12.0001 9.00002H8.00008C7.73486 9.00002 7.48051 8.89466 7.29297 8.70713C7.10543 8.51959 7.00008 8.26524 7.00008 8.00002C7.00008 7.7348 7.10543 7.48045 7.29297 7.29291C7.48051 7.10538 7.73486 7.00002 8.00008 7.00002ZM16.0001 17H8.00008C7.73486 17 7.48051 16.8947 7.29297 16.7071C7.10543 16.5196 7.00008 16.2652 7.00008 16C7.00008 15.7348 7.10543 15.4805 7.29297 15.2929C7.48051 15.1054 7.73486 15 8.00008 15H16.0001C16.2653 15 16.5196 15.1054 16.7072 15.2929C16.8947 15.4805 17.0001 15.7348 17.0001 16C17.0001 16.2652 16.8947 16.5196 16.7072 16.7071C16.5196 16.8947 16.2653 17 16.0001 17ZM16.0001 13H8.00008C7.73486 13 7.48051 12.8947 7.29297 12.7071C7.10543 12.5196 7.00008 12.2652 7.00008 12C7.00008 11.7348 7.10543 11.4805 7.29297 11.2929C7.48051 11.1054 7.73486 11 8.00008 11H16.0001C16.2653 11 16.5196 11.1054 16.7072 11.2929C16.8947 11.4805 17.0001 11.7348 17.0001 12C17.0001 12.2652 16.8947 12.5196 16.7072 12.7071C16.5196 12.8947 16.2653 13 16.0001 13Z" fill="#CBD5E1"/>
</g>
<defs>
<clipPath id="clip0_0_60">
<rect width="24" height="24" fill="white"/>
</clipPath>
</defs>
</svg>
