<svg width="20" height="20" viewBox="0 0 20 20" fill="none" xmlns="http://www.w3.org/2000/svg">
<g clip-path="url(#clip0_1_833)">
<path d="M9.99984 12.5C9.77883 12.5 9.56686 12.4122 9.41058 12.2559C9.2543 12.0996 9.16651 11.8877 9.16651 11.6667C9.19745 11.1221 9.36311 10.5938 9.64863 10.1291C9.93414 9.66439 10.3306 9.27785 10.8023 9.00416C11.1106 8.83521 11.3574 8.57284 11.5071 8.2548C11.6568 7.93675 11.7019 7.57941 11.6357 7.23416C11.5715 6.9044 11.4103 6.60132 11.1727 6.36377C10.9352 6.12622 10.6321 5.96502 10.3023 5.90083C10.0616 5.8564 9.81406 5.86554 9.57726 5.92761C9.34047 5.98967 9.12026 6.10313 8.93228 6.25993C8.74429 6.41673 8.59316 6.61301 8.48961 6.83482C8.38607 7.05664 8.33266 7.29854 8.33317 7.54333C8.33317 7.76434 8.24538 7.9763 8.0891 8.13258C7.93282 8.28886 7.72085 8.37666 7.49984 8.37666C7.27883 8.37666 7.06686 8.28886 6.91058 8.13258C6.7543 7.9763 6.66651 7.76434 6.66651 7.54333C6.66642 7.05646 6.77299 6.57548 6.97873 6.13421C7.18446 5.69294 7.48436 5.3021 7.85734 4.98916C8.2138 4.69116 8.62862 4.47098 9.07519 4.34273C9.52175 4.21448 9.99019 4.18101 10.4505 4.24445C10.9107 4.30789 11.3526 4.46685 11.7478 4.71113C12.1431 4.95541 12.4828 5.27961 12.7454 5.66293C13.0079 6.04625 13.1875 6.48022 13.2724 6.937C13.3574 7.39378 13.3459 7.86328 13.2388 8.31536C13.1316 8.76745 12.9311 9.19215 12.6502 9.56219C12.3692 9.93224 12.014 10.2395 11.6073 10.4642C11.3966 10.594 11.2177 10.7694 11.0837 10.9775C10.9498 11.1856 10.8641 11.4211 10.8332 11.6667C10.8332 11.8877 10.7454 12.0996 10.5891 12.2559C10.4328 12.4122 10.2209 12.5 9.99984 12.5ZM10.6607 19.8C12.4607 19.0767 18.3332 16.2325 18.3332 10.0358V5.72666C18.3341 4.85084 18.0586 3.99706 17.546 3.28692C17.0334 2.57679 16.3097 2.04653 15.4782 1.77166L10.2623 0.0424948C10.0921 -0.0149787 9.90762 -0.0149787 9.73734 0.0424948L4.52151 1.77166C3.68993 2.04653 2.9663 2.57679 2.45367 3.28692C1.94105 3.99706 1.66558 4.85084 1.66651 5.72666V10.0358C1.66651 15.5042 7.50401 18.8492 9.29401 19.7442C9.51041 19.8745 9.75016 19.9614 9.99984 20C10.2306 19.975 10.4547 19.9071 10.6607 19.8ZM14.9532 3.35333C15.4519 3.51867 15.8859 3.83698 16.1935 4.26302C16.5011 4.68907 16.6666 5.2012 16.6665 5.72666V10.0358C16.6665 15.1883 11.594 17.6283 10.039 18.2533C8.46567 17.4667 3.33317 14.5492 3.33317 10.0358V5.72666C3.3331 5.2012 3.49861 4.68907 3.80617 4.26302C4.11374 3.83698 4.54773 3.51867 5.04651 3.35333L9.99984 1.71166L14.9532 3.35333ZM9.99984 14.1667C9.83502 14.1667 9.67391 14.2155 9.53686 14.3071C9.39982 14.3987 9.29301 14.5288 9.22994 14.6811C9.16687 14.8334 9.15036 15.0009 9.18252 15.1626C9.21467 15.3242 9.29404 15.4727 9.41058 15.5893C9.52713 15.7058 9.67561 15.7852 9.83727 15.8173C9.99892 15.8495 10.1665 15.833 10.3187 15.7699C10.471 15.7068 10.6012 15.6 10.6927 15.463C10.7843 15.3259 10.8332 15.1648 10.8332 15C10.8332 14.779 10.7454 14.567 10.5891 14.4107C10.4328 14.2545 10.2209 14.1667 9.99984 14.1667Z" fill="#316D86"/>
</g>
<defs>
<clipPath id="clip0_1_833">
<rect width="20" height="20" fill="white"/>
</clipPath>
</defs>
</svg>
