<svg width="24" height="24" viewBox="0 0 24 24" fill="none" xmlns="http://www.w3.org/2000/svg">
<g clip-path="url(#clip0_1_1185)">
<path d="M22.9313 4.65329H11.2877L6.71721 20.7426C6.57898 21.1714 6.1868 21.4683 5.73649 21.4838C5.72379 21.4838 5.71152 21.4842 5.69946 21.4842C5.2639 21.4842 4.87 21.2191 4.70712 20.8125L2.83859 16.1413H1.06851C0.478194 16.1414 0 15.6629 0 15.0727C0 14.4825 0.478678 14.0041 1.06851 14.0041H3.56223C3.99871 14.0041 4.39229 14.27 4.55457 14.676L5.59003 17.2645L9.49094 3.25789C9.63299 2.81582 10.0442 2.51611 10.5084 2.51611H22.9314C23.5219 2.51611 24.0001 2.99463 24.0001 3.58462C24.0001 4.17461 23.5215 4.65329 22.9313 4.65329ZM23.5072 19.0131L19.2948 14.2815L23.309 9.82563C23.3799 9.74736 23.3971 9.63471 23.3551 9.53814C23.3118 9.44174 23.2164 9.37957 23.1107 9.37957H20.5712C20.4936 9.37957 20.4204 9.41343 20.3689 9.47215L17.6744 12.5966L15.0006 9.47312C14.9501 9.41375 14.8759 9.37957 14.7976 9.37957H12.1422C12.0369 9.37957 11.9414 9.44142 11.8988 9.53723C11.8552 9.63331 11.873 9.7458 11.9432 9.82423L15.9125 14.2816L11.7333 19.0142C11.6635 19.093 11.647 19.2054 11.6896 19.3008C11.7333 19.3969 11.8288 19.458 11.9333 19.458H14.5654C14.6447 19.458 14.7197 19.423 14.7703 19.3619L17.5596 16.0149L20.4151 19.3645C20.4662 19.4242 20.5404 19.4583 20.6186 19.4583H23.3083C23.4139 19.4583 23.5094 19.3969 23.552 19.3008C23.595 19.2043 23.5778 19.0919 23.5072 19.0131Z" fill="white"/>
</g>
<defs>
<clipPath id="clip0_1_1185">
<rect width="24" height="24" fill="white"/>
</clipPath>
</defs>
</svg>
