<svg width="24" height="24" viewBox="0 0 24 24" fill="none" xmlns="http://www.w3.org/2000/svg">
<path d="M16.0399 4C15.3841 4.00157 14.7468 4.21734 14.2249 4.61447C13.7031 5.01161 13.3252 5.56836 13.1489 6.2L9.09993 20.768C9.00312 21.1192 8.79464 21.4294 8.50599 21.6516C8.21735 21.8739 7.86421 21.9962 7.49993 22C7.14363 21.9953 6.7973 21.8817 6.50738 21.6746C6.21746 21.4674 5.99783 21.1765 5.87793 20.841L3.08493 13.161C2.9029 12.6377 2.5979 12.1658 2.19558 11.7849C1.79326 11.4039 1.30537 11.1252 0.772926 10.972C0.515136 10.9095 0.292715 10.7472 0.154595 10.5208C0.0164741 10.2943 -0.0260324 10.0223 0.0364261 9.7645C0.0988846 9.50671 0.261192 9.28429 0.487642 9.14617C0.714092 9.00805 0.986136 8.96554 1.24393 9.028C2.09805 9.2569 2.88341 9.69079 3.53185 10.292C4.18029 10.8932 4.67221 11.6436 4.96493 12.478L7.43893 19.278L11.2229 5.662C11.5176 4.61035 12.1475 3.68363 13.0169 3.02266C13.8863 2.3617 14.9478 2.00262 16.0399 2H22.9999C23.2651 2 23.5195 2.10536 23.707 2.29289C23.8946 2.48043 23.9999 2.73478 23.9999 3C23.9999 3.26522 23.8946 3.51957 23.707 3.70711C23.5195 3.89464 23.2651 4 22.9999 4H16.0399ZM23.5999 12.2C23.3878 12.0409 23.1211 11.9725 22.8585 12.01C22.596 12.0476 22.3591 12.1878 22.1999 12.4L19.9999 15.333L17.7999 12.4C17.6408 12.1878 17.4039 12.0476 17.1413 12.01C16.8788 11.9725 16.6121 12.0409 16.3999 12.2C16.1878 12.3591 16.0475 12.596 16.01 12.8586C15.9725 13.1211 16.0408 13.3878 16.1999 13.6L18.7499 17L16.1999 20.4C16.0408 20.6122 15.9725 20.8789 16.01 21.1414C16.0475 21.404 16.1878 21.6409 16.3999 21.8C16.6121 21.9591 16.8788 22.0275 17.1413 21.9899C17.4039 21.9524 17.6408 21.8122 17.7999 21.6L19.9999 18.667L22.1999 21.6C22.2787 21.7051 22.3774 21.7936 22.4904 21.8605C22.6034 21.9274 22.7285 21.9714 22.8585 21.9899C22.9885 22.0085 23.1209 22.0013 23.2481 21.9687C23.3753 21.9361 23.4949 21.8788 23.5999 21.8C23.705 21.7212 23.7935 21.6225 23.8604 21.5095C23.9273 21.3965 23.9713 21.2714 23.9899 21.1414C24.0084 21.0114 24.0012 20.879 23.9686 20.7518C23.936 20.6246 23.8787 20.5051 23.7999 20.4L21.2499 17L23.7999 13.6C23.8787 13.4949 23.936 13.3754 23.9686 13.2482C24.0012 13.121 24.0084 12.9886 23.9899 12.8586C23.9713 12.7286 23.9273 12.6035 23.8604 12.4905C23.7935 12.3775 23.705 12.2788 23.5999 12.2Z" fill="#86242E"/>
</svg>
