<svg width="32" height="32" viewBox="0 0 32 32" fill="none" xmlns="http://www.w3.org/2000/svg">
<path d="M30.6667 29.3333H4C3.64638 29.3333 3.30724 29.1929 3.05719 28.9428C2.80714 28.6928 2.66667 28.3536 2.66667 28V1.33333C2.66667 0.979711 2.52619 0.640573 2.27614 0.390524C2.02609 0.140476 1.68696 0 1.33333 0C0.979711 0 0.640573 0.140476 0.390524 0.390524C0.140476 0.640573 0 0.979711 0 1.33333L0 28C0 29.0609 0.421427 30.0783 1.17157 30.8284C1.92172 31.5786 2.93913 32 4 32H30.6667C31.0203 32 31.3594 31.8595 31.6095 31.6095C31.8595 31.3594 32 31.0203 32 30.6667C32 30.313 31.8595 29.9739 31.6095 29.7239C31.3594 29.4738 31.0203 29.3333 30.6667 29.3333Z" fill="#F59E0B"/>
</svg>
