<svg width="16" height="16" viewBox="0 0 16 16" fill="none" xmlns="http://www.w3.org/2000/svg">
<g clip-path="url(#clip0_1_999)">
<path d="M3.30644 12.7728H14.2052C14.2385 12.7728 14.2708 12.7681 14.3019 12.7607C14.3044 12.7607 14.3064 12.7611 14.3089 12.7611C14.5416 12.7611 14.7306 12.5723 14.7306 12.3394V0.421668C14.7306 0.188906 14.5416 0 14.3089 0H14.206H3.98083H3.30703C2.18468 0 1.27174 0.913145 1.27174 2.03519C1.27174 2.05024 1.2747 2.06452 1.27617 2.07905C1.2747 3.11554 1.26185 12.6396 1.2747 13.8917C1.2739 13.9161 1.27091 13.94 1.27091 13.9648C1.27091 15.0437 2.1157 15.9269 3.17832 15.9937C3.19964 15.997 3.22054 16.0001 3.24266 16.0001H14.3089C14.5415 16.0001 14.7306 15.8113 14.7306 15.5784V13.9912C14.7306 13.7585 14.5415 13.5695 14.3089 13.5695C14.0763 13.5695 13.8872 13.7585 13.8872 13.9912V15.1568H3.30644C2.66567 15.1568 2.1426 14.648 2.11689 14.0136C2.11752 14.0023 2.11957 13.9916 2.11936 13.9801C2.11894 13.9615 2.11832 13.9327 2.1179 13.8944C2.15475 13.27 2.67298 12.7728 3.30644 12.7728ZM3.59396 2.03519C3.59396 1.80243 3.78287 1.61352 4.01563 1.61352C4.24839 1.61352 4.4373 1.80243 4.4373 2.03519V10.6004C4.4373 10.8331 4.24839 11.0221 4.01563 11.0221C3.78287 11.0221 3.59396 10.833 3.59396 10.6004V2.03519Z" fill="white"/>
</g>
<defs>
<clipPath id="clip0_1_999">
<rect width="16" height="16" fill="white"/>
</clipPath>
</defs>
</svg>
