<svg width="14" height="14" viewBox="0 0 14 14" fill="none" xmlns="http://www.w3.org/2000/svg">
<g clip-path="url(#clip0_1_1017)">
<path d="M13.4167 12.8333H1.75C1.59529 12.8333 1.44692 12.7719 1.33752 12.6625C1.22812 12.5531 1.16667 12.4047 1.16667 12.25V0.583333C1.16667 0.428624 1.10521 0.280251 0.995812 0.170854C0.886416 0.0614582 0.738043 0 0.583333 0C0.428624 0 0.280251 0.0614582 0.170854 0.170854C0.0614582 0.280251 0 0.428624 0 0.583333L0 12.25C0 12.7141 0.184374 13.1592 0.512563 13.4874C0.840752 13.8156 1.28587 14 1.75 14H13.4167C13.5714 14 13.7197 13.9385 13.8291 13.8291C13.9385 13.7197 14 13.5714 14 13.4167C14 13.262 13.9385 13.1136 13.8291 13.0042C13.7197 12.8948 13.5714 12.8333 13.4167 12.8333Z" fill="white"/>
<path d="M8.74984 11.6667C8.90455 11.6667 9.05292 11.6053 9.16232 11.4959C9.27171 11.3865 9.33317 11.2381 9.33317 11.0834V7.00008C9.33317 6.84537 9.27171 6.697 9.16232 6.5876C9.05292 6.47821 8.90455 6.41675 8.74984 6.41675C8.59513 6.41675 8.44675 6.47821 8.33736 6.5876C8.22796 6.697 8.1665 6.84537 8.1665 7.00008V11.0834C8.1665 11.2381 8.22796 11.3865 8.33736 11.4959C8.44675 11.6053 8.59513 11.6667 8.74984 11.6667Z" fill="white"/>
<path d="M4.08333 11.6667C4.23804 11.6667 4.38642 11.6053 4.49581 11.4959C4.60521 11.3865 4.66667 11.2381 4.66667 11.0834V7.00008C4.66667 6.84537 4.60521 6.697 4.49581 6.5876C4.38642 6.47821 4.23804 6.41675 4.08333 6.41675C3.92862 6.41675 3.78025 6.47821 3.67085 6.5876C3.56146 6.697 3.5 6.84537 3.5 7.00008V11.0834C3.5 11.2381 3.56146 11.3865 3.67085 11.4959C3.78025 11.6053 3.92862 11.6667 4.08333 11.6667Z" fill="white"/>
<path d="M11.0833 11.6667C11.238 11.6667 11.3864 11.6052 11.4958 11.4958C11.6052 11.3864 11.6667 11.238 11.6667 11.0833V4.08333C11.6667 3.92862 11.6052 3.78025 11.4958 3.67085C11.3864 3.56146 11.238 3.5 11.0833 3.5C10.9286 3.5 10.7803 3.56146 10.6709 3.67085C10.5615 3.78025 10.5 3.92862 10.5 4.08333V11.0833C10.5 11.238 10.5615 11.3864 10.6709 11.4958C10.7803 11.6052 10.9286 11.6667 11.0833 11.6667Z" fill="white"/>
<path d="M6.41683 11.6667C6.57154 11.6667 6.71991 11.6052 6.82931 11.4958C6.9387 11.3864 7.00016 11.238 7.00016 11.0833V4.08333C7.00016 3.92862 6.9387 3.78025 6.82931 3.67085C6.71991 3.56146 6.57154 3.5 6.41683 3.5C6.26212 3.5 6.11375 3.56146 6.00435 3.67085C5.89495 3.78025 5.8335 3.92862 5.8335 4.08333V11.0833C5.8335 11.238 5.89495 11.3864 6.00435 11.4958C6.11375 11.6052 6.26212 11.6667 6.41683 11.6667Z" fill="white"/>
</g>
<defs>
<clipPath id="clip0_1_1017">
<rect width="14" height="14" fill="white"/>
</clipPath>
</defs>
</svg>
