<svg width="34" height="33" viewBox="0 0 34 33" fill="none" xmlns="http://www.w3.org/2000/svg">
<path d="M13.1909 2.14496C10.6319 0.722063 7.05512 0.0250479 2.26648 0.000301834C1.81486 -0.00684393 1.37211 0.146525 0.997254 0.439957C0.689571 0.682163 0.437707 1.00871 0.263814 1.39088C0.0899211 1.77305 -0.0006717 2.19913 3.7495e-06 2.63164V26.2312C3.7495e-06 27.8265 0.974589 29.0299 2.26648 29.0299C7.30018 29.0299 12.3495 29.5776 15.3738 32.9068C15.4152 32.9526 15.4672 32.9832 15.5233 32.9948C15.5795 33.0064 15.6374 32.9985 15.6898 32.9722C15.7421 32.9458 15.7867 32.9021 15.8179 32.8465C15.8491 32.7909 15.8656 32.7258 15.8653 32.6594V4.85218C15.8655 4.66457 15.831 4.47912 15.7643 4.30835C15.6976 4.13758 15.6002 3.98549 15.4786 3.86234C14.7859 3.17261 14.0163 2.59494 13.1909 2.14496ZM32.9999 0.437483C32.6249 0.144781 32.1821 -0.00773203 31.7307 0.000301834C26.942 0.0250479 23.3653 0.718763 20.8063 2.14496C19.9809 2.59412 19.2111 3.17066 18.5178 3.85904C18.3966 3.9824 18.2994 4.13456 18.2328 4.30529C18.1662 4.47602 18.1318 4.66137 18.1318 4.84889V32.6577C18.1318 32.7216 18.1479 32.784 18.1783 32.8372C18.2086 32.8904 18.2517 32.932 18.3022 32.9567C18.3528 32.9815 18.4085 32.9883 18.4623 32.9764C18.5162 32.9644 18.5658 32.9342 18.6049 32.8895C20.4231 30.7861 23.6139 29.0275 31.7335 29.0283C32.3346 29.0283 32.9111 28.7502 33.3362 28.2552C33.7612 27.7602 34 27.0888 34 26.3887V2.63246C34.0008 2.1991 33.91 1.77216 33.7356 1.38935C33.5612 1.00654 33.3085 0.679625 32.9999 0.437483Z" fill="#5667FD"/>
</svg>
