<svg width="90" height="31" viewBox="0 0 90 31" fill="none" xmlns="http://www.w3.org/2000/svg">
<rect width="90" height="31" rx="15.5" fill="#F1F5F9"/>
<rect width="45" height="31" rx="15.5" fill="#F1F5F9"/>
<rect x="45" width="45" height="31" rx="15.5" fill="#52B6DF"/>
<path d="M64.6667 12.0001H75.3333C75.5101 12.0001 75.6797 11.9298 75.8047 11.8048C75.9298 11.6798 76 11.5102 76 11.3334C76 11.1566 75.9298 10.987 75.8047 10.862C75.6797 10.737 75.5101 10.6667 75.3333 10.6667H64.6667C64.4899 10.6667 64.3203 10.737 64.1953 10.862C64.0702 10.987 64 11.1566 64 11.3334C64 11.5102 64.0702 11.6798 64.1953 11.8048C64.3203 11.9298 64.4899 12.0001 64.6667 12.0001Z" fill="white"/>
<path d="M75.3333 15.3333H64.6667C64.4899 15.3333 64.3203 15.4035 64.1953 15.5285C64.0702 15.6535 64 15.8231 64 15.9999C64 16.1767 64.0702 16.3463 64.1953 16.4713C64.3203 16.5963 64.4899 16.6666 64.6667 16.6666H75.3333C75.5101 16.6666 75.6797 16.5963 75.8047 16.4713C75.9298 16.3463 76 16.1767 76 15.9999C76 15.8231 75.9298 15.6535 75.8047 15.5285C75.6797 15.4035 75.5101 15.3333 75.3333 15.3333Z" fill="white"/>
<path d="M75.3333 20H64.6667C64.4899 20 64.3203 20.0702 64.1953 20.1953C64.0702 20.3203 64 20.4899 64 20.6667C64 20.8435 64.0702 21.013 64.1953 21.1381C64.3203 21.2631 64.4899 21.3333 64.6667 21.3333H75.3333C75.5101 21.3333 75.6797 21.2631 75.8047 21.1381C75.9298 21.013 76 20.8435 76 20.6667C76 20.4899 75.9298 20.3203 75.8047 20.1953C75.6797 20.0702 75.5101 20 75.3333 20Z" fill="white"/>
<path d="M61.3333 12.6667C62.0697 12.6667 62.6667 12.0697 62.6667 11.3333C62.6667 10.597 62.0697 10 61.3333 10C60.597 10 60 10.597 60 11.3333C60 12.0697 60.597 12.6667 61.3333 12.6667Z" fill="white"/>
<path d="M61.3333 17.3334C62.0697 17.3334 62.6667 16.7365 62.6667 16.0001C62.6667 15.2637 62.0697 14.6667 61.3333 14.6667C60.597 14.6667 60 15.2637 60 16.0001C60 16.7365 60.597 17.3334 61.3333 17.3334Z" fill="white"/>
<path d="M61.3333 21.9999C62.0697 21.9999 62.6667 21.403 62.6667 20.6666C62.6667 19.9302 62.0697 19.3333 61.3333 19.3333C60.597 19.3333 60 19.9302 60 20.6666C60 21.403 60.597 21.9999 61.3333 21.9999Z" fill="white"/>
<path d="M13 14.5C13 10.729 13 8.843 14.172 7.672C15.343 6.5 17.229 6.5 21 6.5H25C28.771 6.5 30.657 6.5 31.828 7.672C33 8.843 33 10.729 33 14.5V16.5C33 20.271 33 22.157 31.828 23.328C30.657 24.5 28.771 24.5 25 24.5H21C17.229 24.5 15.343 24.5 14.172 23.328C13 22.157 13 20.271 13 16.5V14.5Z" stroke="#52B6DF" stroke-width="1.5"/>
<path d="M18 6.5V5M28 6.5V5M13.5 11.5H32.5" stroke="#52B6DF" stroke-width="1.5" stroke-linecap="round"/>
<path d="M29 19.5C29 19.7652 28.8946 20.0196 28.7071 20.2071C28.5196 20.3946 28.2652 20.5 28 20.5C27.7348 20.5 27.4804 20.3946 27.2929 20.2071C27.1054 20.0196 27 19.7652 27 19.5C27 19.2348 27.1054 18.9804 27.2929 18.7929C27.4804 18.6054 27.7348 18.5 28 18.5C28.2652 18.5 28.5196 18.6054 28.7071 18.7929C28.8946 18.9804 29 19.2348 29 19.5ZM29 15.5C29 15.7652 28.8946 16.0196 28.7071 16.2071C28.5196 16.3946 28.2652 16.5 28 16.5C27.7348 16.5 27.4804 16.3946 27.2929 16.2071C27.1054 16.0196 27 15.7652 27 15.5C27 15.2348 27.1054 14.9804 27.2929 14.7929C27.4804 14.6054 27.7348 14.5 28 14.5C28.2652 14.5 28.5196 14.6054 28.7071 14.7929C28.8946 14.9804 29 15.2348 29 15.5ZM24 19.5C24 19.7652 23.8946 20.0196 23.7071 20.2071C23.5196 20.3946 23.2652 20.5 23 20.5C22.7348 20.5 22.4804 20.3946 22.2929 20.2071C22.1054 20.0196 22 19.7652 22 19.5C22 19.2348 22.1054 18.9804 22.2929 18.7929C22.4804 18.6054 22.7348 18.5 23 18.5C23.2652 18.5 23.5196 18.6054 23.7071 18.7929C23.8946 18.9804 24 19.2348 24 19.5ZM24 15.5C24 15.7652 23.8946 16.0196 23.7071 16.2071C23.5196 16.3946 23.2652 16.5 23 16.5C22.7348 16.5 22.4804 16.3946 22.2929 16.2071C22.1054 16.0196 22 15.7652 22 15.5C22 15.2348 22.1054 14.9804 22.2929 14.7929C22.4804 14.6054 22.7348 14.5 23 14.5C23.2652 14.5 23.5196 14.6054 23.7071 14.7929C23.8946 14.9804 24 15.2348 24 15.5ZM19 19.5C19 19.7652 18.8946 20.0196 18.7071 20.2071C18.5196 20.3946 18.2652 20.5 18 20.5C17.7348 20.5 17.4804 20.3946 17.2929 20.2071C17.1054 20.0196 17 19.7652 17 19.5C17 19.2348 17.1054 18.9804 17.2929 18.7929C17.4804 18.6054 17.7348 18.5 18 18.5C18.2652 18.5 18.5196 18.6054 18.7071 18.7929C18.8946 18.9804 19 19.2348 19 19.5ZM19 15.5C19 15.7652 18.8946 16.0196 18.7071 16.2071C18.5196 16.3946 18.2652 16.5 18 16.5C17.7348 16.5 17.4804 16.3946 17.2929 16.2071C17.1054 16.0196 17 15.7652 17 15.5C17 15.2348 17.1054 14.9804 17.2929 14.7929C17.4804 14.6054 17.7348 14.5 18 14.5C18.2652 14.5 18.5196 14.6054 18.7071 14.7929C18.8946 14.9804 19 15.2348 19 15.5Z" fill="#52B6DF"/>
</svg>
