<svg width="56" height="56" viewBox="0 0 56 56" fill="none" xmlns="http://www.w3.org/2000/svg">
<g filter="url(#filter0_i_0_33)">
<path d="M54.7787 45.5527H1.24088C0.560396 45.5527 0 44.9923 0 44.3118V4.78391C0 4.10343 0.560396 3.54303 1.24088 3.54303H54.7587C55.4592 3.54303 55.9995 4.10343 55.9995 4.78391V44.2918C56.0049 44.4555 55.9773 44.6185 55.9184 44.7713C55.8594 44.9241 55.7703 45.0634 55.6564 45.1811C55.5425 45.2987 55.4061 45.3923 55.2553 45.4561C55.1045 45.5199 54.9424 45.5528 54.7787 45.5527Z" fill="url(#paint0_linear_0_33)"/>
</g>
<path d="M2.00141 43.5513V5.54444H54.0182V43.5513H2.00141Z" fill="url(#paint1_linear_0_33)"/>
<path d="M2.00141 43.5513V5.54444H54.0182V43.5513H2.00141Z" fill="url(#paint2_radial_0_33)"/>
<path d="M2.00141 43.5513V5.54444H54.0182V43.5513H2.00141Z" fill="url(#paint3_radial_0_33)"/>
<g filter="url(#filter1_f_0_33)">
<path d="M2.42994 4.32947H54.893C54.9461 4.32947 54.997 4.35056 55.0345 4.38809C55.072 4.42563 55.0931 4.47653 55.0931 4.52961V43.7273" stroke="url(#paint4_linear_0_33)" stroke-width="0.3" stroke-linecap="round"/>
</g>
<g filter="url(#filter2_i_0_33)">
<path d="M54.0182 43.5512H2.00141V5.54434L0.160113 4.18337C0.0600427 4.3635 0 4.58366 0 4.7838V44.2917C0 44.9922 0.560396 45.5326 1.24088 45.5326H54.7587C55.239 45.5326 55.6393 45.2724 55.8595 44.8721L54.0182 43.5512Z" fill="url(#paint5_linear_0_33)"/>
<path d="M54.0182 43.5512H2.00141V5.54434L0.160113 4.18337C0.0600427 4.3635 0 4.58366 0 4.7838V44.2917C0 44.9922 0.560396 45.5326 1.24088 45.5326H54.7587C55.239 45.5326 55.6393 45.2724 55.8595 44.8721L54.0182 43.5512Z" fill="url(#paint6_linear_0_33)"/>
<path d="M54.0182 43.5512H2.00141V5.54434L0.160113 4.18337C0.0600427 4.3635 0 4.58366 0 4.7838V44.2917C0 44.9922 0.560396 45.5326 1.24088 45.5326H54.7587C55.239 45.5326 55.6393 45.2724 55.8595 44.8721L54.0182 43.5512Z" fill="url(#paint7_radial_0_33)"/>
</g>
<path d="M28.0198 26.5593C15.8712 26.5593 6.00424 36.4062 6.00424 48.5748V55.5798H50.0153V48.5748C50.0153 36.4062 40.1684 26.5593 28.0198 26.5593Z" fill="url(#paint8_radial_0_33)"/>
<path d="M28.0198 26.5593C15.8712 26.5593 6.00424 36.4062 6.00424 48.5748V55.5798H50.0153V48.5748C50.0153 36.4062 40.1684 26.5593 28.0198 26.5593Z" fill="url(#paint9_radial_0_33)"/>
<path d="M28.0198 26.5593C15.8712 26.5593 6.00424 36.4062 6.00424 48.5748V55.5798H50.0153V48.5748C50.0153 36.4062 40.1684 26.5593 28.0198 26.5593Z" fill="url(#paint10_radial_0_33)"/>
<path d="M41.3691 55.5798V31.0725C44.061 33.1268 46.2419 35.7752 47.7416 38.8112C49.2414 41.8472 50.0195 45.1886 50.0152 48.5748V55.5798H41.3691Z" fill="url(#paint11_radial_0_33)"/>
<path d="M41.3691 55.5798V31.0725C44.061 33.1268 46.2419 35.7752 47.7416 38.8112C49.2414 41.8472 50.0195 45.1886 50.0152 48.5748V55.5798H41.3691Z" fill="url(#paint12_linear_0_33)"/>
<path d="M41.3691 55.5798V31.0725C44.061 33.1268 46.2419 35.7752 47.7416 38.8112C49.2414 41.8472 50.0195 45.1886 50.0152 48.5748V55.5798H41.3691Z" fill="url(#paint13_linear_0_33)"/>
<path d="M14.5903 55.5798V31.0725C11.8984 33.1268 9.71746 35.7752 8.21769 38.8112C6.71793 41.8472 5.93985 45.1886 5.94416 48.5748V55.5798H14.5903Z" fill="url(#paint14_linear_0_33)"/>
<path d="M14.5903 55.5798V31.0725C11.8984 33.1268 9.71746 35.7752 8.21769 38.8112C6.71793 41.8472 5.93985 45.1886 5.94416 48.5748V55.5798H14.5903Z" fill="url(#paint15_radial_0_33)"/>
<path d="M32.1226 29.201H23.8968V55.5797H32.1226V29.201Z" fill="url(#paint16_radial_0_33)"/>
<g filter="url(#filter3_i_0_33)">
<path d="M34.7046 27.6799L37.4265 33.5401C37.6067 33.9204 37.3265 34.3607 36.9062 34.3607L34.9768 33.8303C34.1322 33.6201 34.1042 34.3847 34.4244 34.7049L37.1463 37.8271C37.6667 38.3475 37.8668 39.128 37.6067 39.8285L32.1228 55.5797V27.6799H34.7046Z" fill="url(#paint17_linear_0_33)"/>
<path d="M34.7046 27.6799L37.4265 33.5401C37.6067 33.9204 37.3265 34.3607 36.9062 34.3607L34.9768 33.8303C34.1322 33.6201 34.1042 34.3847 34.4244 34.7049L37.1463 37.8271C37.6667 38.3475 37.8668 39.128 37.6067 39.8285L32.1228 55.5797V27.6799H34.7046Z" fill="url(#paint18_radial_0_33)"/>
<path d="M34.7046 27.6799L37.4265 33.5401C37.6067 33.9204 37.3265 34.3607 36.9062 34.3607L34.9768 33.8303C34.1322 33.6201 34.1042 34.3847 34.4244 34.7049L37.1463 37.8271C37.6667 38.3475 37.8668 39.128 37.6067 39.8285L32.1228 55.5797V27.6799H34.7046Z" fill="url(#paint19_radial_0_33)"/>
<path d="M34.7046 27.6799L37.4265 33.5401C37.6067 33.9204 37.3265 34.3607 36.9062 34.3607L34.9768 33.8303C34.1322 33.6201 34.1042 34.3847 34.4244 34.7049L37.1463 37.8271C37.6667 38.3475 37.8668 39.128 37.6067 39.8285L32.1228 55.5797V27.6799H34.7046Z" fill="url(#paint20_radial_0_33)"/>
</g>
<g filter="url(#filter4_i_0_33)">
<path d="M21.3153 27.6799L18.5934 33.5401C18.4132 33.9204 18.6934 34.3607 19.1137 34.3607L21.0411 33.8303C21.8857 33.6201 21.9157 34.3847 21.5955 34.7049L18.8736 37.8271C18.3532 38.3475 18.153 39.128 18.4132 39.8285L23.8971 55.5797V27.6799H21.3153Z" fill="url(#paint21_linear_0_33)"/>
<path d="M21.3153 27.6799L18.5934 33.5401C18.4132 33.9204 18.6934 34.3607 19.1137 34.3607L21.0411 33.8303C21.8857 33.6201 21.9157 34.3847 21.5955 34.7049L18.8736 37.8271C18.3532 38.3475 18.153 39.128 18.4132 39.8285L23.8971 55.5797V27.6799H21.3153Z" fill="url(#paint22_radial_0_33)"/>
<path d="M21.3153 27.6799L18.5934 33.5401C18.4132 33.9204 18.6934 34.3607 19.1137 34.3607L21.0411 33.8303C21.8857 33.6201 21.9157 34.3847 21.5955 34.7049L18.8736 37.8271C18.3532 38.3475 18.153 39.128 18.4132 39.8285L23.8971 55.5797V27.6799H21.3153Z" fill="url(#paint23_linear_0_33)"/>
<path d="M21.3153 27.6799L18.5934 33.5401C18.4132 33.9204 18.6934 34.3607 19.1137 34.3607L21.0411 33.8303C21.8857 33.6201 21.9157 34.3847 21.5955 34.7049L18.8736 37.8271C18.3532 38.3475 18.153 39.128 18.4132 39.8285L23.8971 55.5797V27.6799H21.3153Z" fill="url(#paint24_radial_0_33)"/>
</g>
<path d="M28.0197 32.9037C25.7381 32.9037 23.8968 31.0624 23.8968 28.7808V23.6572C23.8968 21.3756 25.7381 19.5343 28.0197 19.5343C30.3013 19.5343 32.1426 21.3756 32.1426 23.6572V28.7808C32.1373 29.8727 31.7013 30.9183 30.9292 31.6904C30.1571 32.4624 29.1115 32.8985 28.0197 32.9037Z" fill="url(#paint25_radial_0_33)"/>
<g filter="url(#filter5_i_0_33)">
<path d="M40.1143 41.7859C41.215 41.7859 42.1157 42.6865 42.1157 43.7873V48.3705H38.1129V43.7873C38.1129 42.6865 38.9935 41.7859 40.1143 41.7859Z" fill="url(#paint26_radial_0_33)"/>
<path d="M40.1143 41.7859C41.215 41.7859 42.1157 42.6865 42.1157 43.7873V48.3705H38.1129V43.7873C38.1129 42.6865 38.9935 41.7859 40.1143 41.7859Z" fill="url(#paint27_radial_0_33)"/>
</g>
<g filter="url(#filter6_i_0_33)">
<path d="M15.9033 41.77C14.8025 41.77 13.9019 42.6706 13.9019 43.7714V48.3546H17.9047V43.7714C17.9047 42.6706 17.0241 41.77 15.9033 41.77Z" fill="url(#paint28_radial_0_33)"/>
</g>
<path d="M16.6319 39.3282V55.5797H39.3279V37.1867C39.3279 36.2861 38.6074 35.5656 37.7067 35.5656H20.4145C18.3131 35.5456 16.6319 37.2468 16.6319 39.3282Z" fill="url(#paint29_linear_0_33)"/>
<path fill-rule="evenodd" clip-rule="evenodd" d="M20.8228 55.5798V38.7559H16.6319V55.5798H20.8228Z" fill="#513358"/>
<path fill-rule="evenodd" clip-rule="evenodd" d="M20.8228 55.5798V38.7559H16.6319V55.5798H20.8228Z" fill="url(#paint30_linear_0_33)"/>
<g filter="url(#filter7_i_0_33)">
<path d="M22.6941 46.3133C22.7053 46.5676 22.6564 46.821 22.5513 47.0529C22.4463 47.2848 22.2882 47.4888 22.0897 47.6482C22.2808 47.8002 22.4347 47.994 22.5395 48.2146C22.6442 48.4352 22.6971 48.6769 22.6941 48.9211C22.7015 49.1663 22.6506 49.4097 22.5455 49.6314C22.4404 49.853 22.2842 50.0465 22.0897 50.196C22.2808 50.348 22.4347 50.5418 22.5395 50.7624C22.6442 50.983 22.6971 51.2247 22.6941 51.4689C22.7015 51.7141 22.6506 51.9575 22.5455 52.1792C22.4404 52.4008 22.2842 52.5943 22.0897 52.7438C22.464 53.032 22.6941 53.5243 22.6941 54.0807C22.6761 54.9213 22.0537 55.5798 21.3231 55.5798H15.451C14.5964 55.5798 13.9019 54.7792 13.9019 53.7925V46.5794C13.9019 45.5927 14.5964 44.7902 15.451 44.7902H21.139C22.0897 44.7902 22.6801 45.5727 22.6941 46.3133Z" fill="url(#paint31_linear_0_33)"/>
<path d="M22.6941 46.3133C22.7053 46.5676 22.6564 46.821 22.5513 47.0529C22.4463 47.2848 22.2882 47.4888 22.0897 47.6482C22.2808 47.8002 22.4347 47.994 22.5395 48.2146C22.6442 48.4352 22.6971 48.6769 22.6941 48.9211C22.7015 49.1663 22.6506 49.4097 22.5455 49.6314C22.4404 49.853 22.2842 50.0465 22.0897 50.196C22.2808 50.348 22.4347 50.5418 22.5395 50.7624C22.6442 50.983 22.6971 51.2247 22.6941 51.4689C22.7015 51.7141 22.6506 51.9575 22.5455 52.1792C22.4404 52.4008 22.2842 52.5943 22.0897 52.7438C22.464 53.032 22.6941 53.5243 22.6941 54.0807C22.6761 54.9213 22.0537 55.5798 21.3231 55.5798H15.451C14.5964 55.5798 13.9019 54.7792 13.9019 53.7925V46.5794C13.9019 45.5927 14.5964 44.7902 15.451 44.7902H21.139C22.0897 44.7902 22.6801 45.5727 22.6941 46.3133Z" fill="url(#paint32_radial_0_33)"/>
<path d="M22.6941 46.3133C22.7053 46.5676 22.6564 46.821 22.5513 47.0529C22.4463 47.2848 22.2882 47.4888 22.0897 47.6482C22.2808 47.8002 22.4347 47.994 22.5395 48.2146C22.6442 48.4352 22.6971 48.6769 22.6941 48.9211C22.7015 49.1663 22.6506 49.4097 22.5455 49.6314C22.4404 49.853 22.2842 50.0465 22.0897 50.196C22.2808 50.348 22.4347 50.5418 22.5395 50.7624C22.6442 50.983 22.6971 51.2247 22.6941 51.4689C22.7015 51.7141 22.6506 51.9575 22.5455 52.1792C22.4404 52.4008 22.2842 52.5943 22.0897 52.7438C22.464 53.032 22.6941 53.5243 22.6941 54.0807C22.6761 54.9213 22.0537 55.5798 21.3231 55.5798H15.451C14.5964 55.5798 13.9019 54.7792 13.9019 53.7925V46.5794C13.9019 45.5927 14.5964 44.7902 15.451 44.7902H21.139C22.0897 44.7902 22.6801 45.5727 22.6941 46.3133Z" fill="url(#paint33_radial_0_33)"/>
<path d="M22.6941 46.3133C22.7053 46.5676 22.6564 46.821 22.5513 47.0529C22.4463 47.2848 22.2882 47.4888 22.0897 47.6482C22.2808 47.8002 22.4347 47.994 22.5395 48.2146C22.6442 48.4352 22.6971 48.6769 22.6941 48.9211C22.7015 49.1663 22.6506 49.4097 22.5455 49.6314C22.4404 49.853 22.2842 50.0465 22.0897 50.196C22.2808 50.348 22.4347 50.5418 22.5395 50.7624C22.6442 50.983 22.6971 51.2247 22.6941 51.4689C22.7015 51.7141 22.6506 51.9575 22.5455 52.1792C22.4404 52.4008 22.2842 52.5943 22.0897 52.7438C22.464 53.032 22.6941 53.5243 22.6941 54.0807C22.6761 54.9213 22.0537 55.5798 21.3231 55.5798H15.451C14.5964 55.5798 13.9019 54.7792 13.9019 53.7925V46.5794C13.9019 45.5927 14.5964 44.7902 15.451 44.7902H21.139C22.0897 44.7902 22.6801 45.5727 22.6941 46.3133Z" fill="url(#paint34_radial_0_33)"/>
<path d="M22.6941 46.3133C22.7053 46.5676 22.6564 46.821 22.5513 47.0529C22.4463 47.2848 22.2882 47.4888 22.0897 47.6482C22.2808 47.8002 22.4347 47.994 22.5395 48.2146C22.6442 48.4352 22.6971 48.6769 22.6941 48.9211C22.7015 49.1663 22.6506 49.4097 22.5455 49.6314C22.4404 49.853 22.2842 50.0465 22.0897 50.196C22.2808 50.348 22.4347 50.5418 22.5395 50.7624C22.6442 50.983 22.6971 51.2247 22.6941 51.4689C22.7015 51.7141 22.6506 51.9575 22.5455 52.1792C22.4404 52.4008 22.2842 52.5943 22.0897 52.7438C22.464 53.032 22.6941 53.5243 22.6941 54.0807C22.6761 54.9213 22.0537 55.5798 21.3231 55.5798H15.451C14.5964 55.5798 13.9019 54.7792 13.9019 53.7925V46.5794C13.9019 45.5927 14.5964 44.7902 15.451 44.7902H21.139C22.0897 44.7902 22.6801 45.5727 22.6941 46.3133Z" fill="url(#paint35_radial_0_33)"/>
<path d="M22.6941 46.3133C22.7053 46.5676 22.6564 46.821 22.5513 47.0529C22.4463 47.2848 22.2882 47.4888 22.0897 47.6482C22.2808 47.8002 22.4347 47.994 22.5395 48.2146C22.6442 48.4352 22.6971 48.6769 22.6941 48.9211C22.7015 49.1663 22.6506 49.4097 22.5455 49.6314C22.4404 49.853 22.2842 50.0465 22.0897 50.196C22.2808 50.348 22.4347 50.5418 22.5395 50.7624C22.6442 50.983 22.6971 51.2247 22.6941 51.4689C22.7015 51.7141 22.6506 51.9575 22.5455 52.1792C22.4404 52.4008 22.2842 52.5943 22.0897 52.7438C22.464 53.032 22.6941 53.5243 22.6941 54.0807C22.6761 54.9213 22.0537 55.5798 21.3231 55.5798H15.451C14.5964 55.5798 13.9019 54.7792 13.9019 53.7925V46.5794C13.9019 45.5927 14.5964 44.7902 15.451 44.7902H21.139C22.0897 44.7902 22.6801 45.5727 22.6941 46.3133Z" fill="url(#paint36_linear_0_33)"/>
</g>
<g filter="url(#filter8_ii_0_33)">
<path d="M33.3234 46.3133C33.3125 46.5678 33.3617 46.8213 33.4671 47.0532C33.5724 47.2851 33.731 47.489 33.9298 47.6482C33.7383 47.8 33.5841 47.9937 33.4789 48.2143C33.3738 48.4349 33.3206 48.6767 33.3234 48.9211C33.3234 49.4555 33.5555 49.9278 33.9298 50.196C33.7383 50.3478 33.5841 50.5415 33.4789 50.7621C33.3738 50.9827 33.3206 51.2245 33.3234 51.4689C33.3234 52.0033 33.5555 52.4776 33.9298 52.7438C33.7336 52.9058 33.577 53.1104 33.4719 53.3421C33.3668 53.5738 33.316 53.8264 33.3234 54.0807C33.3434 54.9213 33.9638 55.5798 34.6944 55.5798H40.5665C41.4211 55.5798 42.1156 54.7792 42.1156 53.7925V46.5794C42.1156 45.5927 41.4211 44.7902 40.5685 44.7902H34.8765C34.4697 44.7896 34.079 44.9486 33.7882 45.233C33.4974 45.5174 33.3298 45.9046 33.3214 46.3113L33.3234 46.3133Z" fill="url(#paint37_linear_0_33)"/>
<path d="M33.3234 46.3133C33.3125 46.5678 33.3617 46.8213 33.4671 47.0532C33.5724 47.2851 33.731 47.489 33.9298 47.6482C33.7383 47.8 33.5841 47.9937 33.4789 48.2143C33.3738 48.4349 33.3206 48.6767 33.3234 48.9211C33.3234 49.4555 33.5555 49.9278 33.9298 50.196C33.7383 50.3478 33.5841 50.5415 33.4789 50.7621C33.3738 50.9827 33.3206 51.2245 33.3234 51.4689C33.3234 52.0033 33.5555 52.4776 33.9298 52.7438C33.7336 52.9058 33.577 53.1104 33.4719 53.3421C33.3668 53.5738 33.316 53.8264 33.3234 54.0807C33.3434 54.9213 33.9638 55.5798 34.6944 55.5798H40.5665C41.4211 55.5798 42.1156 54.7792 42.1156 53.7925V46.5794C42.1156 45.5927 41.4211 44.7902 40.5685 44.7902H34.8765C34.4697 44.7896 34.079 44.9486 33.7882 45.233C33.4974 45.5174 33.3298 45.9046 33.3214 46.3113L33.3234 46.3133Z" fill="url(#paint38_radial_0_33)"/>
<path d="M33.3234 46.3133C33.3125 46.5678 33.3617 46.8213 33.4671 47.0532C33.5724 47.2851 33.731 47.489 33.9298 47.6482C33.7383 47.8 33.5841 47.9937 33.4789 48.2143C33.3738 48.4349 33.3206 48.6767 33.3234 48.9211C33.3234 49.4555 33.5555 49.9278 33.9298 50.196C33.7383 50.3478 33.5841 50.5415 33.4789 50.7621C33.3738 50.9827 33.3206 51.2245 33.3234 51.4689C33.3234 52.0033 33.5555 52.4776 33.9298 52.7438C33.7336 52.9058 33.577 53.1104 33.4719 53.3421C33.3668 53.5738 33.316 53.8264 33.3234 54.0807C33.3434 54.9213 33.9638 55.5798 34.6944 55.5798H40.5665C41.4211 55.5798 42.1156 54.7792 42.1156 53.7925V46.5794C42.1156 45.5927 41.4211 44.7902 40.5685 44.7902H34.8765C34.4697 44.7896 34.079 44.9486 33.7882 45.233C33.4974 45.5174 33.3298 45.9046 33.3214 46.3113L33.3234 46.3133Z" fill="url(#paint39_radial_0_33)"/>
<path d="M33.3234 46.3133C33.3125 46.5678 33.3617 46.8213 33.4671 47.0532C33.5724 47.2851 33.731 47.489 33.9298 47.6482C33.7383 47.8 33.5841 47.9937 33.4789 48.2143C33.3738 48.4349 33.3206 48.6767 33.3234 48.9211C33.3234 49.4555 33.5555 49.9278 33.9298 50.196C33.7383 50.3478 33.5841 50.5415 33.4789 50.7621C33.3738 50.9827 33.3206 51.2245 33.3234 51.4689C33.3234 52.0033 33.5555 52.4776 33.9298 52.7438C33.7336 52.9058 33.577 53.1104 33.4719 53.3421C33.3668 53.5738 33.316 53.8264 33.3234 54.0807C33.3434 54.9213 33.9638 55.5798 34.6944 55.5798H40.5665C41.4211 55.5798 42.1156 54.7792 42.1156 53.7925V46.5794C42.1156 45.5927 41.4211 44.7902 40.5685 44.7902H34.8765C34.4697 44.7896 34.079 44.9486 33.7882 45.233C33.4974 45.5174 33.3298 45.9046 33.3214 46.3113L33.3234 46.3133Z" fill="url(#paint40_radial_0_33)"/>
<path d="M33.3234 46.3133C33.3125 46.5678 33.3617 46.8213 33.4671 47.0532C33.5724 47.2851 33.731 47.489 33.9298 47.6482C33.7383 47.8 33.5841 47.9937 33.4789 48.2143C33.3738 48.4349 33.3206 48.6767 33.3234 48.9211C33.3234 49.4555 33.5555 49.9278 33.9298 50.196C33.7383 50.3478 33.5841 50.5415 33.4789 50.7621C33.3738 50.9827 33.3206 51.2245 33.3234 51.4689C33.3234 52.0033 33.5555 52.4776 33.9298 52.7438C33.7336 52.9058 33.577 53.1104 33.4719 53.3421C33.3668 53.5738 33.316 53.8264 33.3234 54.0807C33.3434 54.9213 33.9638 55.5798 34.6944 55.5798H40.5665C41.4211 55.5798 42.1156 54.7792 42.1156 53.7925V46.5794C42.1156 45.5927 41.4211 44.7902 40.5685 44.7902H34.8765C34.4697 44.7896 34.079 44.9486 33.7882 45.233C33.4974 45.5174 33.3298 45.9046 33.3214 46.3113L33.3234 46.3133Z" fill="url(#paint41_radial_0_33)"/>
</g>
<path d="M39.3279 41.5378V36.9666C39.3279 36.19 38.6074 35.5676 37.7067 35.5676H20.3765C18.293 35.5676 16.6319 37.0286 16.6319 38.8139C16.6319 40.319 17.8527 41.5398 19.3598 41.5398H39.3279V41.5378Z" fill="url(#paint42_linear_0_33)"/>
<path d="M18.2991 38.5518C18.2991 37.7832 18.9215 37.1608 19.69 37.1608H39.3279V39.9427H19.69C19.3211 39.9427 18.9673 39.7962 18.7065 39.5353C18.4456 39.2745 18.2991 38.9207 18.2991 38.5518Z" fill="url(#paint43_linear_0_33)"/>
<g filter="url(#filter9_f_0_33)">
<path d="M34.0621 47.654H37.9089" stroke="url(#paint44_linear_0_33)" stroke-width="0.1" stroke-linecap="round"/>
</g>
<g filter="url(#filter10_f_0_33)">
<path d="M21.8717 47.654H18.0249" stroke="url(#paint45_linear_0_33)" stroke-width="0.1" stroke-linecap="round"/>
</g>
<g filter="url(#filter11_f_0_33)">
<path d="M34.0621 50.1858H37.9089" stroke="url(#paint46_linear_0_33)" stroke-width="0.1" stroke-linecap="round"/>
</g>
<g filter="url(#filter12_f_0_33)">
<path d="M21.8717 50.1858H18.0249" stroke="url(#paint47_linear_0_33)" stroke-width="0.1" stroke-linecap="round"/>
</g>
<g filter="url(#filter13_f_0_33)">
<path d="M34.0621 52.7177H37.9089" stroke="url(#paint48_linear_0_33)" stroke-width="0.1" stroke-linecap="round"/>
</g>
<g filter="url(#filter14_f_0_33)">
<path d="M21.8717 52.7177H18.0249" stroke="url(#paint49_linear_0_33)" stroke-width="0.1" stroke-linecap="round"/>
</g>
<g filter="url(#filter15_i_0_33)">
<path d="M18.649 20.555C20.4939 20.555 21.9894 19.0595 21.9894 17.2147C21.9894 15.3698 20.4939 13.8743 18.649 13.8743C16.8042 13.8743 15.3087 15.3698 15.3087 17.2147C15.3087 19.0595 16.8042 20.555 18.649 20.555Z" fill="url(#paint50_radial_0_33)"/>
</g>
<g filter="url(#filter16_f_0_33)">
<path d="M18.6492 19.206C19.749 19.206 20.6406 18.3144 20.6406 17.2146C20.6406 16.1147 19.749 15.2232 18.6492 15.2232C17.5493 15.2232 16.6578 16.1147 16.6578 17.2146C16.6578 18.3144 17.5493 19.206 18.6492 19.206Z" fill="url(#paint51_linear_0_33)"/>
</g>
<g filter="url(#filter17_i_0_33)">
<path d="M37.6888 20.555C39.5337 20.555 41.0292 19.0595 41.0292 17.2147C41.0292 15.3698 39.5337 13.8743 37.6888 13.8743C35.844 13.8743 34.3485 15.3698 34.3485 17.2147C34.3485 19.0595 35.844 20.555 37.6888 20.555Z" fill="url(#paint52_linear_0_33)"/>
<path d="M37.6888 20.555C39.5337 20.555 41.0292 19.0595 41.0292 17.2147C41.0292 15.3698 39.5337 13.8743 37.6888 13.8743C35.844 13.8743 34.3485 15.3698 34.3485 17.2147C34.3485 19.0595 35.844 20.555 37.6888 20.555Z" fill="url(#paint53_radial_0_33)"/>
</g>
<g filter="url(#filter18_f_0_33)">
<path d="M37.6885 19.206C38.7883 19.206 39.6799 18.3144 39.6799 17.2146C39.6799 16.1147 38.7883 15.2232 37.6885 15.2232C36.5887 15.2232 35.6971 16.1147 35.6971 17.2146C35.6971 18.3144 36.5887 19.206 37.6885 19.206Z" fill="#E4AF9A"/>
<path d="M37.6885 19.206C38.7883 19.206 39.6799 18.3144 39.6799 17.2146C39.6799 16.1147 38.7883 15.2232 37.6885 15.2232C36.5887 15.2232 35.6971 16.1147 35.6971 17.2146C35.6971 18.3144 36.5887 19.206 37.6885 19.206Z" fill="url(#paint54_radial_0_33)"/>
<path d="M37.6885 19.206C38.7883 19.206 39.6799 18.3144 39.6799 17.2146C39.6799 16.1147 38.7883 15.2232 37.6885 15.2232C36.5887 15.2232 35.6971 16.1147 35.6971 17.2146C35.6971 18.3144 36.5887 19.206 37.6885 19.206Z" fill="url(#paint55_radial_0_33)"/>
</g>
<g filter="url(#filter19_i_0_33)">
<path d="M17.8285 13.1096C17.8285 12.5752 18.0447 11.9348 18.473 11.6145L18.7952 11.2943C19.3316 10.868 19.5477 10.2276 19.5477 9.58712V7.87791C19.5477 7.34553 19.868 6.91723 20.4063 6.81116C21.6932 6.49093 24.3771 5.95855 28.2419 5.95855C32.1046 5.95855 34.7905 6.49093 36.0774 6.81116C36.5077 6.91923 36.938 7.34553 36.938 7.87791V9.58712C36.938 10.2276 37.2582 10.868 37.6885 11.2943C38.6932 11.9988 38.6292 12.3851 38.5471 13.2157C38.4391 14.2824 38.333 16.0977 38.333 16.0977H38.369L37.8366 24.0193C37.5164 27.5618 34.7304 30.0276 31.4121 30.0276H24.9876C21.5611 30.0276 18.8833 27.5598 18.563 24.0193C18.2828 20.3827 18.1627 16.7382 17.8285 13.1096Z" fill="url(#paint56_linear_0_33)"/>
<path d="M17.8285 13.1096C17.8285 12.5752 18.0447 11.9348 18.473 11.6145L18.7952 11.2943C19.3316 10.868 19.5477 10.2276 19.5477 9.58712V7.87791C19.5477 7.34553 19.868 6.91723 20.4063 6.81116C21.6932 6.49093 24.3771 5.95855 28.2419 5.95855C32.1046 5.95855 34.7905 6.49093 36.0774 6.81116C36.5077 6.91923 36.938 7.34553 36.938 7.87791V9.58712C36.938 10.2276 37.2582 10.868 37.6885 11.2943C38.6932 11.9988 38.6292 12.3851 38.5471 13.2157C38.4391 14.2824 38.333 16.0977 38.333 16.0977H38.369L37.8366 24.0193C37.5164 27.5618 34.7304 30.0276 31.4121 30.0276H24.9876C21.5611 30.0276 18.8833 27.5598 18.563 24.0193C18.2828 20.3827 18.1627 16.7382 17.8285 13.1096Z" fill="url(#paint57_radial_0_33)"/>
<path d="M17.8285 13.1096C17.8285 12.5752 18.0447 11.9348 18.473 11.6145L18.7952 11.2943C19.3316 10.868 19.5477 10.2276 19.5477 9.58712V7.87791C19.5477 7.34553 19.868 6.91723 20.4063 6.81116C21.6932 6.49093 24.3771 5.95855 28.2419 5.95855C32.1046 5.95855 34.7905 6.49093 36.0774 6.81116C36.5077 6.91923 36.938 7.34553 36.938 7.87791V9.58712C36.938 10.2276 37.2582 10.868 37.6885 11.2943C38.6932 11.9988 38.6292 12.3851 38.5471 13.2157C38.4391 14.2824 38.333 16.0977 38.333 16.0977H38.369L37.8366 24.0193C37.5164 27.5618 34.7304 30.0276 31.4121 30.0276H24.9876C21.5611 30.0276 18.8833 27.5598 18.563 24.0193C18.2828 20.3827 18.1627 16.7382 17.8285 13.1096Z" fill="url(#paint58_linear_0_33)"/>
<path d="M17.8285 13.1096C17.8285 12.5752 18.0447 11.9348 18.473 11.6145L18.7952 11.2943C19.3316 10.868 19.5477 10.2276 19.5477 9.58712V7.87791C19.5477 7.34553 19.868 6.91723 20.4063 6.81116C21.6932 6.49093 24.3771 5.95855 28.2419 5.95855C32.1046 5.95855 34.7905 6.49093 36.0774 6.81116C36.5077 6.91923 36.938 7.34553 36.938 7.87791V9.58712C36.938 10.2276 37.2582 10.868 37.6885 11.2943C38.6932 11.9988 38.6292 12.3851 38.5471 13.2157C38.4391 14.2824 38.333 16.0977 38.333 16.0977H38.369L37.8366 24.0193C37.5164 27.5618 34.7304 30.0276 31.4121 30.0276H24.9876C21.5611 30.0276 18.8833 27.5598 18.563 24.0193C18.2828 20.3827 18.1627 16.7382 17.8285 13.1096Z" fill="url(#paint59_linear_0_33)"/>
<path d="M17.8285 13.1096C17.8285 12.5752 18.0447 11.9348 18.473 11.6145L18.7952 11.2943C19.3316 10.868 19.5477 10.2276 19.5477 9.58712V7.87791C19.5477 7.34553 19.868 6.91723 20.4063 6.81116C21.6932 6.49093 24.3771 5.95855 28.2419 5.95855C32.1046 5.95855 34.7905 6.49093 36.0774 6.81116C36.5077 6.91923 36.938 7.34553 36.938 7.87791V9.58712C36.938 10.2276 37.2582 10.868 37.6885 11.2943C38.6932 11.9988 38.6292 12.3851 38.5471 13.2157C38.4391 14.2824 38.333 16.0977 38.333 16.0977H38.369L37.8366 24.0193C37.5164 27.5618 34.7304 30.0276 31.4121 30.0276H24.9876C21.5611 30.0276 18.8833 27.5598 18.563 24.0193C18.2828 20.3827 18.1627 16.7382 17.8285 13.1096Z" fill="url(#paint60_radial_0_33)"/>
<path d="M17.8285 13.1096C17.8285 12.5752 18.0447 11.9348 18.473 11.6145L18.7952 11.2943C19.3316 10.868 19.5477 10.2276 19.5477 9.58712V7.87791C19.5477 7.34553 19.868 6.91723 20.4063 6.81116C21.6932 6.49093 24.3771 5.95855 28.2419 5.95855C32.1046 5.95855 34.7905 6.49093 36.0774 6.81116C36.5077 6.91923 36.938 7.34553 36.938 7.87791V9.58712C36.938 10.2276 37.2582 10.868 37.6885 11.2943C38.6932 11.9988 38.6292 12.3851 38.5471 13.2157C38.4391 14.2824 38.333 16.0977 38.333 16.0977H38.369L37.8366 24.0193C37.5164 27.5618 34.7304 30.0276 31.4121 30.0276H24.9876C21.5611 30.0276 18.8833 27.5598 18.563 24.0193C18.2828 20.3827 18.1627 16.7382 17.8285 13.1096Z" fill="url(#paint61_radial_0_33)"/>
</g>
<g filter="url(#filter20_f_0_33)">
<path d="M36.0834 5.95855L29.925 8.01C29.4276 8.17298 29.0093 8.51618 28.7522 8.97209C28.4951 9.42799 28.418 9.96359 28.5359 10.4735C28.6539 10.9834 28.9584 11.4308 29.3895 11.7275C29.8207 12.0242 30.3473 12.1488 30.8657 12.0769L36.99 11.2563L36.0834 5.95855Z" fill="url(#paint62_linear_0_33)"/>
</g>
<g filter="url(#filter21_i_0_33)">
<path d="M37.7969 4.24946L38.6555 4.67777C40.1566 5.42429 41.0172 7.1315 40.695 8.94678L39.5141 15.0311C39.408 15.6575 38.9938 16.0818 38.3693 16.0978H38.3333C38.3333 16.0978 38.4394 14.2826 38.5474 13.2158C38.6355 12.3492 38.4834 12.085 37.6868 11.2944C37.2276 10.8425 36.9596 10.2312 36.9383 9.58723V7.87803C36.9383 7.34565 36.508 6.91735 36.0777 6.81127C34.7908 6.49105 32.1069 5.95867 28.2422 5.95867C24.3794 5.95867 21.6935 6.49105 20.4066 6.81127C20.1583 6.8547 19.9342 6.98678 19.7759 7.18298C19.6176 7.37917 19.536 7.62615 19.546 7.87803V9.58723C19.546 10.2277 19.3319 10.8681 18.7955 11.2944L18.4753 11.6147C18.045 11.9349 17.8288 12.5753 17.8288 13.1097C17.9369 14.2826 18.045 15.9918 18.045 15.9918L17.9449 15.9878C17.6547 15.9735 17.3782 15.86 17.1617 15.6661C16.9453 15.4723 16.8021 15.2099 16.7561 14.923L15.5752 8.83871C15.3611 7.1315 16.2197 5.4243 17.7227 4.67577L18.5813 4.24946C19.1177 3.92924 19.6541 3.50294 20.1905 3.07664L22.1238 1.0472C23.3047 -0.0195504 25.0219 -0.339776 26.525 0.406751C27.6113 0.727068 28.767 0.727068 29.8533 0.406751C31.4624 -0.125625 33.2877 0.300676 34.5766 1.47551L36.1858 3.07664C36.6161 3.60901 37.1525 3.92924 37.7969 4.24946Z" fill="#242324"/>
<path d="M37.7969 4.24946L38.6555 4.67777C40.1566 5.42429 41.0172 7.1315 40.695 8.94678L39.5141 15.0311C39.408 15.6575 38.9938 16.0818 38.3693 16.0978H38.3333C38.3333 16.0978 38.4394 14.2826 38.5474 13.2158C38.6355 12.3492 38.4834 12.085 37.6868 11.2944C37.2276 10.8425 36.9596 10.2312 36.9383 9.58723V7.87803C36.9383 7.34565 36.508 6.91735 36.0777 6.81127C34.7908 6.49105 32.1069 5.95867 28.2422 5.95867C24.3794 5.95867 21.6935 6.49105 20.4066 6.81127C20.1583 6.8547 19.9342 6.98678 19.7759 7.18298C19.6176 7.37917 19.536 7.62615 19.546 7.87803V9.58723C19.546 10.2277 19.3319 10.8681 18.7955 11.2944L18.4753 11.6147C18.045 11.9349 17.8288 12.5753 17.8288 13.1097C17.9369 14.2826 18.045 15.9918 18.045 15.9918L17.9449 15.9878C17.6547 15.9735 17.3782 15.86 17.1617 15.6661C16.9453 15.4723 16.8021 15.2099 16.7561 14.923L15.5752 8.83871C15.3611 7.1315 16.2197 5.4243 17.7227 4.67577L18.5813 4.24946C19.1177 3.92924 19.6541 3.50294 20.1905 3.07664L22.1238 1.0472C23.3047 -0.0195504 25.0219 -0.339776 26.525 0.406751C27.6113 0.727068 28.767 0.727068 29.8533 0.406751C31.4624 -0.125625 33.2877 0.300676 34.5766 1.47551L36.1858 3.07664C36.6161 3.60901 37.1525 3.92924 37.7969 4.24946Z" fill="url(#paint63_radial_0_33)"/>
<path d="M37.7969 4.24946L38.6555 4.67777C40.1566 5.42429 41.0172 7.1315 40.695 8.94678L39.5141 15.0311C39.408 15.6575 38.9938 16.0818 38.3693 16.0978H38.3333C38.3333 16.0978 38.4394 14.2826 38.5474 13.2158C38.6355 12.3492 38.4834 12.085 37.6868 11.2944C37.2276 10.8425 36.9596 10.2312 36.9383 9.58723V7.87803C36.9383 7.34565 36.508 6.91735 36.0777 6.81127C34.7908 6.49105 32.1069 5.95867 28.2422 5.95867C24.3794 5.95867 21.6935 6.49105 20.4066 6.81127C20.1583 6.8547 19.9342 6.98678 19.7759 7.18298C19.6176 7.37917 19.536 7.62615 19.546 7.87803V9.58723C19.546 10.2277 19.3319 10.8681 18.7955 11.2944L18.4753 11.6147C18.045 11.9349 17.8288 12.5753 17.8288 13.1097C17.9369 14.2826 18.045 15.9918 18.045 15.9918L17.9449 15.9878C17.6547 15.9735 17.3782 15.86 17.1617 15.6661C16.9453 15.4723 16.8021 15.2099 16.7561 14.923L15.5752 8.83871C15.3611 7.1315 16.2197 5.4243 17.7227 4.67577L18.5813 4.24946C19.1177 3.92924 19.6541 3.50294 20.1905 3.07664L22.1238 1.0472C23.3047 -0.0195504 25.0219 -0.339776 26.525 0.406751C27.6113 0.727068 28.767 0.727068 29.8533 0.406751C31.4624 -0.125625 33.2877 0.300676 34.5766 1.47551L36.1858 3.07664C36.6161 3.60901 37.1525 3.92924 37.7969 4.24946Z" fill="url(#paint64_radial_0_33)"/>
<path d="M37.7969 4.24946L38.6555 4.67777C40.1566 5.42429 41.0172 7.1315 40.695 8.94678L39.5141 15.0311C39.408 15.6575 38.9938 16.0818 38.3693 16.0978H38.3333C38.3333 16.0978 38.4394 14.2826 38.5474 13.2158C38.6355 12.3492 38.4834 12.085 37.6868 11.2944C37.2276 10.8425 36.9596 10.2312 36.9383 9.58723V7.87803C36.9383 7.34565 36.508 6.91735 36.0777 6.81127C34.7908 6.49105 32.1069 5.95867 28.2422 5.95867C24.3794 5.95867 21.6935 6.49105 20.4066 6.81127C20.1583 6.8547 19.9342 6.98678 19.7759 7.18298C19.6176 7.37917 19.536 7.62615 19.546 7.87803V9.58723C19.546 10.2277 19.3319 10.8681 18.7955 11.2944L18.4753 11.6147C18.045 11.9349 17.8288 12.5753 17.8288 13.1097C17.9369 14.2826 18.045 15.9918 18.045 15.9918L17.9449 15.9878C17.6547 15.9735 17.3782 15.86 17.1617 15.6661C16.9453 15.4723 16.8021 15.2099 16.7561 14.923L15.5752 8.83871C15.3611 7.1315 16.2197 5.4243 17.7227 4.67577L18.5813 4.24946C19.1177 3.92924 19.6541 3.50294 20.1905 3.07664L22.1238 1.0472C23.3047 -0.0195504 25.0219 -0.339776 26.525 0.406751C27.6113 0.727068 28.767 0.727068 29.8533 0.406751C31.4624 -0.125625 33.2877 0.300676 34.5766 1.47551L36.1858 3.07664C36.6161 3.60901 37.1525 3.92924 37.7969 4.24946Z" fill="url(#paint65_radial_0_33)"/>
<path d="M37.7969 4.24946L38.6555 4.67777C40.1566 5.42429 41.0172 7.1315 40.695 8.94678L39.5141 15.0311C39.408 15.6575 38.9938 16.0818 38.3693 16.0978H38.3333C38.3333 16.0978 38.4394 14.2826 38.5474 13.2158C38.6355 12.3492 38.4834 12.085 37.6868 11.2944C37.2276 10.8425 36.9596 10.2312 36.9383 9.58723V7.87803C36.9383 7.34565 36.508 6.91735 36.0777 6.81127C34.7908 6.49105 32.1069 5.95867 28.2422 5.95867C24.3794 5.95867 21.6935 6.49105 20.4066 6.81127C20.1583 6.8547 19.9342 6.98678 19.7759 7.18298C19.6176 7.37917 19.536 7.62615 19.546 7.87803V9.58723C19.546 10.2277 19.3319 10.8681 18.7955 11.2944L18.4753 11.6147C18.045 11.9349 17.8288 12.5753 17.8288 13.1097C17.9369 14.2826 18.045 15.9918 18.045 15.9918L17.9449 15.9878C17.6547 15.9735 17.3782 15.86 17.1617 15.6661C16.9453 15.4723 16.8021 15.2099 16.7561 14.923L15.5752 8.83871C15.3611 7.1315 16.2197 5.4243 17.7227 4.67577L18.5813 4.24946C19.1177 3.92924 19.6541 3.50294 20.1905 3.07664L22.1238 1.0472C23.3047 -0.0195504 25.0219 -0.339776 26.525 0.406751C27.6113 0.727068 28.767 0.727068 29.8533 0.406751C31.4624 -0.125625 33.2877 0.300676 34.5766 1.47551L36.1858 3.07664C36.6161 3.60901 37.1525 3.92924 37.7969 4.24946Z" fill="url(#paint66_radial_0_33)"/>
</g>
<g filter="url(#filter22_f_0_33)">
<path d="M27.6013 16.9686L25.9602 20.371C25.756 21.0715 26.2444 21.77 26.9368 21.77H28.4119C29.1024 21.77 29.5927 21.0595 29.3886 20.369L28.3919 16.9686C28.1777 16.216 27.8255 16.216 27.6013 16.9686Z" fill="#D89992"/>
</g>
<g filter="url(#filter23_f_0_33)">
<path d="M27.3875 16.6422L26.3248 20.0446C26.2738 20.2069 26.2621 20.379 26.2905 20.5467C26.3189 20.7144 26.3867 20.8731 26.4882 21.0096C26.5898 21.1461 26.7222 21.2566 26.8747 21.332C27.0272 21.4074 27.1954 21.4457 27.3655 21.4436H28.9386C29.1087 21.4449 29.2766 21.4061 29.4289 21.3303C29.5811 21.2545 29.7133 21.1438 29.8147 21.0073C29.9161 20.8708 29.9839 20.7123 30.0125 20.5446C30.0411 20.377 30.0297 20.205 29.9793 20.0426L28.9186 16.6422C28.6884 15.8896 27.6257 15.8896 27.3875 16.6422Z" fill="#FBC4B1"/>
<path d="M27.3875 16.6422L26.3248 20.0446C26.2738 20.2069 26.2621 20.379 26.2905 20.5467C26.3189 20.7144 26.3867 20.8731 26.4882 21.0096C26.5898 21.1461 26.7222 21.2566 26.8747 21.332C27.0272 21.4074 27.1954 21.4457 27.3655 21.4436H28.9386C29.1087 21.4449 29.2766 21.4061 29.4289 21.3303C29.5811 21.2545 29.7133 21.1438 29.8147 21.0073C29.9161 20.8708 29.9839 20.7123 30.0125 20.5446C30.0411 20.377 30.0297 20.205 29.9793 20.0426L28.9186 16.6422C28.6884 15.8896 27.6257 15.8896 27.3875 16.6422Z" fill="url(#paint67_linear_0_33)"/>
<path d="M27.3875 16.6422L26.3248 20.0446C26.2738 20.2069 26.2621 20.379 26.2905 20.5467C26.3189 20.7144 26.3867 20.8731 26.4882 21.0096C26.5898 21.1461 26.7222 21.2566 26.8747 21.332C27.0272 21.4074 27.1954 21.4457 27.3655 21.4436H28.9386C29.1087 21.4449 29.2766 21.4061 29.4289 21.3303C29.5811 21.2545 29.7133 21.1438 29.8147 21.0073C29.9161 20.8708 29.9839 20.7123 30.0125 20.5446C30.0411 20.377 30.0297 20.205 29.9793 20.0426L28.9186 16.6422C28.6884 15.8896 27.6257 15.8896 27.3875 16.6422Z" fill="url(#paint68_linear_0_33)"/>
<path d="M27.3875 16.6422L26.3248 20.0446C26.2738 20.2069 26.2621 20.379 26.2905 20.5467C26.3189 20.7144 26.3867 20.8731 26.4882 21.0096C26.5898 21.1461 26.7222 21.2566 26.8747 21.332C27.0272 21.4074 27.1954 21.4457 27.3655 21.4436H28.9386C29.1087 21.4449 29.2766 21.4061 29.4289 21.3303C29.5811 21.2545 29.7133 21.1438 29.8147 21.0073C29.9161 20.8708 29.9839 20.7123 30.0125 20.5446C30.0411 20.377 30.0297 20.205 29.9793 20.0426L28.9186 16.6422C28.6884 15.8896 27.6257 15.8896 27.3875 16.6422Z" fill="url(#paint69_linear_0_33)"/>
<path d="M27.3875 16.6422L26.3248 20.0446C26.2738 20.2069 26.2621 20.379 26.2905 20.5467C26.3189 20.7144 26.3867 20.8731 26.4882 21.0096C26.5898 21.1461 26.7222 21.2566 26.8747 21.332C27.0272 21.4074 27.1954 21.4457 27.3655 21.4436H28.9386C29.1087 21.4449 29.2766 21.4061 29.4289 21.3303C29.5811 21.2545 29.7133 21.1438 29.8147 21.0073C29.9161 20.8708 29.9839 20.7123 30.0125 20.5446C30.0411 20.377 30.0297 20.205 29.9793 20.0426L28.9186 16.6422C28.6884 15.8896 27.6257 15.8896 27.3875 16.6422Z" fill="url(#paint70_radial_0_33)"/>
</g>
<path d="M27.3875 16.6422L26.3248 20.0446C26.2738 20.2069 26.2621 20.379 26.2905 20.5467C26.3189 20.7144 26.3867 20.8731 26.4882 21.0096C26.5898 21.1461 26.7222 21.2566 26.8747 21.332C27.0272 21.4074 27.1954 21.4457 27.3655 21.4436H28.9386C29.1087 21.4449 29.2766 21.4061 29.4289 21.3303C29.5811 21.2545 29.7133 21.1438 29.8147 21.0073C29.9161 20.8708 29.9839 20.7123 30.0125 20.5446C30.0411 20.377 30.0297 20.205 29.9793 20.0426L28.9186 16.6422C28.6884 15.8896 27.6257 15.8896 27.3875 16.6422Z" fill="url(#paint71_linear_0_33)"/>
<path d="M25.4257 22.7306C26.2691 23.1624 27.2042 23.3842 28.1517 23.377C29.1624 23.377 30.089 23.1429 30.8776 22.7306C30.956 22.6893 31.0458 22.6747 31.1332 22.6892C31.2207 22.7036 31.301 22.7463 31.3619 22.8106C31.476 22.9307 31.5181 23.1209 31.402 23.293M25.4257 22.7306L31.3199 23.2389L25.4257 22.7306ZM25.4257 22.7306C25.3469 22.6898 25.2569 22.6759 25.1694 22.691C25.082 22.7062 25.0019 22.7496 24.9414 22.8146C24.8792 22.8772 24.8411 22.9596 24.8338 23.0475C24.8264 23.1354 24.8504 23.223 24.9014 23.295M25.4257 22.7306L24.9854 23.2389L25.4257 22.7306ZM31.402 23.293L31.3199 23.2389L31.402 23.293ZM31.402 23.293L31.3199 23.2389L31.402 23.293ZM31.402 23.293C31.0459 23.829 30.5644 24.2684 29.9968 24.5716C29.4292 24.8748 28.7952 25.0323 28.1517 25.0302C26.7867 25.0302 25.5899 24.3357 24.9014 23.295M31.3199 23.2389C30.9729 23.7609 30.5018 24.1886 29.9489 24.4838C29.396 24.7789 28.7785 24.9323 28.1517 24.9301C27.5249 24.9323 26.9074 24.7789 26.3544 24.4838C25.8015 24.1886 25.3304 23.7609 24.9834 23.2389M24.9014 23.295L24.9834 23.2389L24.9014 23.295ZM24.9014 23.295L24.9834 23.2389L24.9014 23.295Z" fill="#88024E"/>
<path d="M25.4257 22.7306C26.2691 23.1624 27.2042 23.3842 28.1517 23.377C29.1624 23.377 30.089 23.1429 30.8776 22.7306C30.956 22.6893 31.0458 22.6747 31.1332 22.6892C31.2207 22.7036 31.301 22.7463 31.3619 22.8106C31.476 22.9307 31.5181 23.1209 31.402 23.293M25.4257 22.7306L31.3199 23.2389M25.4257 22.7306C25.3469 22.6898 25.2569 22.6759 25.1694 22.691C25.082 22.7062 25.0019 22.7496 24.9414 22.8146C24.8792 22.8772 24.8411 22.9596 24.8338 23.0475C24.8264 23.1354 24.8504 23.223 24.9014 23.295M25.4257 22.7306L24.9854 23.2389M31.402 23.293L31.3199 23.2389M31.402 23.293C31.0459 23.829 30.5644 24.2684 29.9968 24.5716C29.4292 24.8748 28.7952 25.0323 28.1517 25.0302C26.7867 25.0302 25.5899 24.3357 24.9014 23.295M31.3199 23.2389C30.9729 23.7609 30.5018 24.1886 29.9489 24.4838C29.396 24.7789 28.7785 24.9323 28.1517 24.9301C27.5249 24.9323 26.9074 24.7789 26.3544 24.4838C25.8015 24.1886 25.3304 23.7609 24.9834 23.2389L24.9014 23.295" stroke="url(#paint72_linear_0_33)" stroke-width="0.1"/>
<g filter="url(#filter24_i_0_33)">
<path d="M35.5973 11.7688H35.5933L35.5893 11.7648L35.5813 11.7588L35.5573 11.7388C35.4589 11.6603 35.3553 11.5888 35.2471 11.5246C34.9804 11.3585 34.699 11.2171 34.4065 11.1023C33.4576 10.7305 32.4261 10.6212 31.4204 10.7861C31.1504 10.8407 30.912 10.9975 30.7548 11.2236C30.5976 11.4497 30.5337 11.7278 30.5766 11.9999C30.6194 12.272 30.7657 12.517 30.9848 12.6839C31.2039 12.8507 31.4789 12.9266 31.7526 12.8956C32.5492 12.7695 33.1856 12.9156 33.6219 13.0877C33.8395 13.1743 34.0464 13.2858 34.2384 13.42C34.4584 13.5862 34.7342 13.6609 35.008 13.6286C35.2819 13.5962 35.5327 13.4592 35.7079 13.2463C35.8831 13.0333 35.9692 12.7609 35.9482 12.4859C35.9273 12.2109 35.8008 11.9547 35.5953 11.7708L35.5973 11.7688Z" fill="#1E1E1E"/>
</g>
<g filter="url(#filter25_i_0_33)">
<path d="M20.6003 11.7709L20.6023 11.7689L20.6063 11.7649L20.6163 11.7589L20.6403 11.7388C20.7394 11.6614 20.843 11.5899 20.9506 11.5247C21.1507 11.3986 21.4309 11.2445 21.7912 11.1024C22.74 10.7304 23.7716 10.6212 24.7773 10.7862C24.9202 10.803 25.0583 10.8485 25.1832 10.92C25.3082 10.9916 25.4173 11.0876 25.5043 11.2023C25.5912 11.3171 25.654 11.4482 25.689 11.5878C25.724 11.7274 25.7304 11.8727 25.7079 12.0148C25.6854 12.157 25.6343 12.2932 25.5579 12.4151C25.4815 12.5371 25.3812 12.6424 25.2631 12.7246C25.1449 12.8069 25.0114 12.8645 24.8705 12.8938C24.7296 12.9232 24.5842 12.9238 24.443 12.8957C23.8146 12.7902 23.1694 12.8566 22.5757 13.0878C22.3575 13.1744 22.1499 13.2858 21.9573 13.42C21.7372 13.5863 21.4614 13.661 21.1876 13.6286C20.9137 13.5963 20.663 13.4593 20.4877 13.2463C20.3125 13.0334 20.2264 12.7609 20.2474 12.486C20.2684 12.211 20.3948 11.9548 20.6003 11.7709Z" fill="#1E1E1E"/>
</g>
<path d="M32.9312 14.3507C34.2361 14.3507 35.3409 15.2513 35.6411 16.4682C35.6616 16.5495 35.6632 16.6344 35.6458 16.7164C35.6283 16.7984 35.5923 16.8753 35.5405 16.9412C35.4887 17.0071 35.4225 17.0602 35.347 17.0966C35.2714 17.1329 35.1886 17.1514 35.1047 17.1507H30.6416C30.5739 17.1509 30.5069 17.1363 30.4455 17.1077C30.3841 17.0791 30.3298 17.0373 30.2864 16.9853C30.243 16.9333 30.2116 16.8724 30.1945 16.8069C30.1774 16.7414 30.1749 16.6729 30.1873 16.6063C30.4394 15.3254 31.5682 14.3507 32.9292 14.3507H32.9312Z" fill="white"/>
<path d="M32.5151 14.895C32.7896 14.8952 33.0603 14.9586 33.3063 15.0804C33.5523 15.2022 33.7669 15.3791 33.9334 15.5973C34.0999 15.8155 34.2138 16.0692 34.2664 16.3386C34.3189 16.608 34.3086 16.8859 34.2363 17.1506H30.7879C30.7171 16.8853 30.7082 16.6072 30.7618 16.3379C30.8155 16.0686 30.9303 15.8152 31.0974 15.5973C31.2644 15.3793 31.4794 15.2027 31.7255 15.0809C31.9717 14.9592 32.2405 14.8956 32.5151 14.895Z" fill="url(#paint73_radial_0_33)"/>
<path d="M31.4945 16.6803C31.4945 16.1119 31.9488 15.6576 32.5152 15.6576C32.6914 15.656 32.865 15.7002 33.019 15.7857C33.1731 15.8713 33.3023 15.9954 33.394 16.1458C33.4858 16.2962 33.5369 16.4679 33.5425 16.644C33.5481 16.8201 33.5079 16.9947 33.4258 17.1506H31.6166C31.5347 17.0075 31.4925 16.8452 31.4945 16.6803Z" fill="black"/>
<g filter="url(#filter26_f_0_33)">
<path d="M32.3846 15.2712C32.5127 15.4414 32.2445 15.6515 31.9443 15.8757C31.6421 16.1018 31.418 16.2599 31.2899 16.0898C31.1618 15.9197 31.3039 15.5995 31.6081 15.3733C31.9083 15.1471 32.2585 15.1011 32.3846 15.2732V15.2712Z" fill="#C7A7A3"/>
<path d="M32.3846 15.2712C32.5127 15.4414 32.2445 15.6515 31.9443 15.8757C31.6421 16.1018 31.418 16.2599 31.2899 16.0898C31.1618 15.9197 31.3039 15.5995 31.6081 15.3733C31.9083 15.1471 32.2585 15.1011 32.3846 15.2732V15.2712Z" fill="url(#paint74_radial_0_33)"/>
</g>
<g filter="url(#filter27_f_0_33)">
<path d="M34.1061 16.4462C34.0539 16.0966 33.8929 15.7723 33.6458 15.5195L33.1254 16.0899L33.3596 16.5462L34.1061 16.4462Z" fill="url(#paint75_linear_0_33)"/>
</g>
<path d="M23.3627 14.3507C22.0558 14.3507 20.953 15.2513 20.6528 16.4682C20.6323 16.5493 20.6307 16.634 20.648 16.7159C20.6654 16.7977 20.7012 16.8745 20.7528 16.9404C20.8043 17.0063 20.8703 17.0594 20.9456 17.0959C21.0209 17.1323 21.1035 17.1511 21.1872 17.1507H25.6503C25.7182 17.1512 25.7854 17.1368 25.847 17.1083C25.9087 17.0799 25.9632 17.0381 26.0069 16.9861C26.0505 16.9341 26.082 16.873 26.0993 16.8074C26.1165 16.7417 26.1191 16.6731 26.1067 16.6063C25.9805 15.9715 25.6384 15.4 25.1385 14.9888C24.6387 14.5776 24.0119 14.3522 23.3647 14.3507H23.3627Z" fill="white"/>
<path d="M23.7769 14.895C23.5024 14.8952 23.2316 14.9586 22.9857 15.0804C22.7397 15.2022 22.5251 15.3791 22.3586 15.5973C22.1921 15.8155 22.0781 16.0692 22.0256 16.3386C21.9731 16.608 21.9833 16.8859 22.0557 17.1506H25.5061C25.5478 16.9973 25.5693 16.8392 25.5701 16.6803C25.567 16.2064 25.3768 15.753 25.0409 15.4186C24.7051 15.0843 24.2508 14.8961 23.7769 14.895Z" fill="url(#paint76_radial_0_33)"/>
<path d="M24.7995 16.6803C24.8 16.546 24.774 16.413 24.7229 16.2888C24.6718 16.1646 24.5967 16.0517 24.5018 15.9567C24.407 15.8616 24.2942 15.7863 24.1702 15.7349C24.0461 15.6836 23.913 15.6573 23.7788 15.6576C23.6026 15.656 23.429 15.7002 23.2749 15.7857C23.1209 15.8713 22.9917 15.9954 22.8999 16.1458C22.8082 16.2962 22.757 16.4679 22.7514 16.644C22.7459 16.8201 22.7861 16.9947 22.8681 17.1506H24.6774C24.7557 17.0061 24.7976 16.8447 24.7995 16.6803Z" fill="black"/>
<g filter="url(#filter28_f_0_33)">
<path d="M25.4097 16.47C25.4097 15.8936 24.9394 15.5093 24.8113 15.3912L24.2349 15.9516L24.5891 16.6721L25.4097 16.47Z" fill="url(#paint77_linear_0_33)"/>
</g>
<g filter="url(#filter29_f_0_33)">
<path d="M23.423 16.006C23.803 15.8047 24.0283 15.4855 23.9264 15.2931C23.8245 15.1007 23.4338 15.1079 23.0539 15.3092C22.6739 15.5105 22.4485 15.8297 22.5505 16.0221C22.6524 16.2145 23.0431 16.2073 23.423 16.006Z" fill="#C7A7A3" fill-opacity="0.9"/>
<path d="M23.423 16.006C23.803 15.8047 24.0283 15.4855 23.9264 15.2931C23.8245 15.1007 23.4338 15.1079 23.0539 15.3092C22.6739 15.5105 22.4485 15.8297 22.5505 16.0221C22.6524 16.2145 23.0431 16.2073 23.423 16.006Z" fill="url(#paint78_radial_0_33)"/>
</g>
<g filter="url(#filter30_f_0_33)">
<path d="M31.4744 11.4807C32.335 11.3306 34.0162 11.3726 35.177 12.2773" stroke="url(#paint79_linear_0_33)" stroke-width="0.25" stroke-linecap="round"/>
</g>
<g filter="url(#filter31_f_0_33)">
<path d="M21.029 12.5192C21.6835 11.9388 23.1145 11.3304 24.8857 11.6126" stroke="url(#paint80_linear_0_33)" stroke-width="0.25" stroke-linecap="round"/>
</g>
<g filter="url(#filter32_f_0_33)">
<path d="M19.0793 7.58592V9.38119C19.0653 9.6794 18.9392 10.3439 18.5629 10.6261" stroke="url(#paint81_linear_0_33)" stroke-width="0.25" stroke-linecap="round"/>
</g>
<g filter="url(#filter33_ii_0_33)">
<path d="M37.6866 13.6041H30.7417C30.1413 13.6041 29.5809 13.8843 29.2006 14.3446C29.0784 14.4973 28.9229 14.6199 28.7459 14.7032C28.569 14.7865 28.3754 14.8281 28.1799 14.825C27.9843 14.8281 27.7907 14.7865 27.6138 14.7032C27.4368 14.6199 27.2813 14.4973 27.1591 14.3446C26.7789 13.8843 26.2185 13.6041 25.6181 13.6041H18.6531C18.2729 13.6041 17.9727 13.9043 17.9727 14.2846V14.7249C17.9727 14.945 18.0727 15.1252 18.2328 15.2453C18.3129 15.3053 18.3729 15.4054 18.3729 15.5054V17.707C18.3729 19.8085 20.0741 21.5297 22.1956 21.5297H23.6166C25.7181 21.5297 27.4393 19.8285 27.4393 17.707V16.4861C27.4594 16.0858 27.7796 15.7856 28.1799 15.7856C28.5801 15.7856 28.9004 16.1059 28.9204 16.5061V17.707C28.9204 19.8085 30.6216 21.5297 32.7431 21.5297H34.1641C36.2656 21.5297 37.9868 19.8285 37.9868 17.707V15.4854C37.9868 15.3853 38.0268 15.2853 38.1069 15.2252C38.267 15.1052 38.3671 14.905 38.3671 14.7049V14.2846C38.3671 13.9043 38.0668 13.6041 37.6866 13.6041ZM26.7589 17.5068C26.7589 19.3281 25.2778 20.8092 23.4565 20.8092H22.3558C20.5345 20.8092 19.0534 19.3281 19.0534 17.5068V16.0658C19.0534 15.0851 19.834 14.3046 20.8147 14.3046H24.9776C25.9583 14.3046 26.7589 15.0851 26.7589 16.0658V17.5068ZM37.3263 17.5068C37.3263 19.3281 35.8453 20.8092 34.024 20.8092H32.9232C31.1019 20.8092 29.6209 19.3281 29.6209 17.5068V16.0658C29.6209 15.0851 30.4014 14.3046 31.3821 14.3046H35.5651C36.5458 14.3046 37.3263 15.0851 37.3263 16.0658V17.5068Z" fill="url(#paint82_linear_0_33)"/>
<path d="M37.6866 13.6041H30.7417C30.1413 13.6041 29.5809 13.8843 29.2006 14.3446C29.0784 14.4973 28.9229 14.6199 28.7459 14.7032C28.569 14.7865 28.3754 14.8281 28.1799 14.825C27.9843 14.8281 27.7907 14.7865 27.6138 14.7032C27.4368 14.6199 27.2813 14.4973 27.1591 14.3446C26.7789 13.8843 26.2185 13.6041 25.6181 13.6041H18.6531C18.2729 13.6041 17.9727 13.9043 17.9727 14.2846V14.7249C17.9727 14.945 18.0727 15.1252 18.2328 15.2453C18.3129 15.3053 18.3729 15.4054 18.3729 15.5054V17.707C18.3729 19.8085 20.0741 21.5297 22.1956 21.5297H23.6166C25.7181 21.5297 27.4393 19.8285 27.4393 17.707V16.4861C27.4594 16.0858 27.7796 15.7856 28.1799 15.7856C28.5801 15.7856 28.9004 16.1059 28.9204 16.5061V17.707C28.9204 19.8085 30.6216 21.5297 32.7431 21.5297H34.1641C36.2656 21.5297 37.9868 19.8285 37.9868 17.707V15.4854C37.9868 15.3853 38.0268 15.2853 38.1069 15.2252C38.267 15.1052 38.3671 14.905 38.3671 14.7049V14.2846C38.3671 13.9043 38.0668 13.6041 37.6866 13.6041ZM26.7589 17.5068C26.7589 19.3281 25.2778 20.8092 23.4565 20.8092H22.3558C20.5345 20.8092 19.0534 19.3281 19.0534 17.5068V16.0658C19.0534 15.0851 19.834 14.3046 20.8147 14.3046H24.9776C25.9583 14.3046 26.7589 15.0851 26.7589 16.0658V17.5068ZM37.3263 17.5068C37.3263 19.3281 35.8453 20.8092 34.024 20.8092H32.9232C31.1019 20.8092 29.6209 19.3281 29.6209 17.5068V16.0658C29.6209 15.0851 30.4014 14.3046 31.3821 14.3046H35.5651C36.5458 14.3046 37.3263 15.0851 37.3263 16.0658V17.5068Z" fill="url(#paint83_radial_0_33)"/>
</g>
<defs>
<filter id="filter0_i_0_33" x="0" y="3.54303" width="56" height="42.1097" filterUnits="userSpaceOnUse" color-interpolation-filters="sRGB">
<feFlood flood-opacity="0" result="BackgroundImageFix"/>
<feBlend mode="normal" in="SourceGraphic" in2="BackgroundImageFix" result="shape"/>
<feColorMatrix in="SourceAlpha" type="matrix" values="0 0 0 0 0 0 0 0 0 0 0 0 0 0 0 0 0 0 127 0" result="hardAlpha"/>
<feOffset dy="0.1"/>
<feGaussianBlur stdDeviation="0.1"/>
<feComposite in2="hardAlpha" operator="arithmetic" k2="-1" k3="1"/>
<feColorMatrix type="matrix" values="0 0 0 0 0.81585 0 0 0 0 0.641744 0 0 0 0 0.41905 0 0 0 1 0"/>
<feBlend mode="normal" in2="shape" result="effect1_innerShadow_0_33"/>
</filter>
<filter id="filter1_f_0_33" x="1.87965" y="3.77918" width="53.7638" height="40.4985" filterUnits="userSpaceOnUse" color-interpolation-filters="sRGB">
<feFlood flood-opacity="0" result="BackgroundImageFix"/>
<feBlend mode="normal" in="SourceGraphic" in2="BackgroundImageFix" result="shape"/>
<feGaussianBlur stdDeviation="0.2" result="effect1_foregroundBlur_0_33"/>
</filter>
<filter id="filter2_i_0_33" x="0" y="3.88316" width="55.8593" height="41.6495" filterUnits="userSpaceOnUse" color-interpolation-filters="sRGB">
<feFlood flood-opacity="0" result="BackgroundImageFix"/>
<feBlend mode="normal" in="SourceGraphic" in2="BackgroundImageFix" result="shape"/>
<feColorMatrix in="SourceAlpha" type="matrix" values="0 0 0 0 0 0 0 0 0 0 0 0 0 0 0 0 0 0 127 0" result="hardAlpha"/>
<feOffset dy="-0.3"/>
<feGaussianBlur stdDeviation="0.2"/>
<feComposite in2="hardAlpha" operator="arithmetic" k2="-1" k3="1"/>
<feColorMatrix type="matrix" values="0 0 0 0 0.85098 0 0 0 0 0.482353 0 0 0 0 0.647059 0 0 0 1 0"/>
<feBlend mode="normal" in2="shape" result="effect1_innerShadow_0_33"/>
</filter>
<filter id="filter3_i_0_33" x="32.1228" y="27.5799" width="5.5977" height="27.9997" filterUnits="userSpaceOnUse" color-interpolation-filters="sRGB">
<feFlood flood-opacity="0" result="BackgroundImageFix"/>
<feBlend mode="normal" in="SourceGraphic" in2="BackgroundImageFix" result="shape"/>
<feColorMatrix in="SourceAlpha" type="matrix" values="0 0 0 0 0 0 0 0 0 0 0 0 0 0 0 0 0 0 127 0" result="hardAlpha"/>
<feOffset dy="-0.1"/>
<feGaussianBlur stdDeviation="0.125"/>
<feComposite in2="hardAlpha" operator="arithmetic" k2="-1" k3="1"/>
<feColorMatrix type="matrix" values="0 0 0 0 0.380392 0 0 0 0 0.164706 0 0 0 0 0.203922 0 0 0 1 0"/>
<feBlend mode="normal" in2="shape" result="effect1_innerShadow_0_33"/>
</filter>
<filter id="filter4_i_0_33" x="18.2995" y="27.5799" width="5.5977" height="27.9997" filterUnits="userSpaceOnUse" color-interpolation-filters="sRGB">
<feFlood flood-opacity="0" result="BackgroundImageFix"/>
<feBlend mode="normal" in="SourceGraphic" in2="BackgroundImageFix" result="shape"/>
<feColorMatrix in="SourceAlpha" type="matrix" values="0 0 0 0 0 0 0 0 0 0 0 0 0 0 0 0 0 0 127 0" result="hardAlpha"/>
<feOffset dy="-0.1"/>
<feGaussianBlur stdDeviation="0.125"/>
<feComposite in2="hardAlpha" operator="arithmetic" k2="-1" k3="1"/>
<feColorMatrix type="matrix" values="0 0 0 0 0.380392 0 0 0 0 0.164706 0 0 0 0 0.203922 0 0 0 1 0"/>
<feBlend mode="normal" in2="shape" result="effect1_innerShadow_0_33"/>
</filter>
<filter id="filter5_i_0_33" x="38.0128" y="41.7859" width="4.1029" height="6.6848" filterUnits="userSpaceOnUse" color-interpolation-filters="sRGB">
<feFlood flood-opacity="0" result="BackgroundImageFix"/>
<feBlend mode="normal" in="SourceGraphic" in2="BackgroundImageFix" result="shape"/>
<feColorMatrix in="SourceAlpha" type="matrix" values="0 0 0 0 0 0 0 0 0 0 0 0 0 0 0 0 0 0 127 0" result="hardAlpha"/>
<feOffset dx="-0.1" dy="0.1"/>
<feGaussianBlur stdDeviation="0.1"/>
<feComposite in2="hardAlpha" operator="arithmetic" k2="-1" k3="1"/>
<feColorMatrix type="matrix" values="0 0 0 0 0.968627 0 0 0 0 0.803922 0 0 0 0 0.713726 0 0 0 1 0"/>
<feBlend mode="normal" in2="shape" result="effect1_innerShadow_0_33"/>
</filter>
<filter id="filter6_i_0_33" x="13.9019" y="41.77" width="4.1029" height="6.58473" filterUnits="userSpaceOnUse" color-interpolation-filters="sRGB">
<feFlood flood-opacity="0" result="BackgroundImageFix"/>
<feBlend mode="normal" in="SourceGraphic" in2="BackgroundImageFix" result="shape"/>
<feColorMatrix in="SourceAlpha" type="matrix" values="0 0 0 0 0 0 0 0 0 0 0 0 0 0 0 0 0 0 127 0" result="hardAlpha"/>
<feOffset dx="0.1"/>
<feGaussianBlur stdDeviation="0.125"/>
<feComposite in2="hardAlpha" operator="arithmetic" k2="-1" k3="1"/>
<feColorMatrix type="matrix" values="0 0 0 0 0.886275 0 0 0 0 0.670588 0 0 0 0 0.588235 0 0 0 1 0"/>
<feBlend mode="normal" in2="shape" result="effect1_innerShadow_0_33"/>
</filter>
<filter id="filter7_i_0_33" x="13.9019" y="44.7902" width="9.19409" height="10.7896" filterUnits="userSpaceOnUse" color-interpolation-filters="sRGB">
<feFlood flood-opacity="0" result="BackgroundImageFix"/>
<feBlend mode="normal" in="SourceGraphic" in2="BackgroundImageFix" result="shape"/>
<feColorMatrix in="SourceAlpha" type="matrix" values="0 0 0 0 0 0 0 0 0 0 0 0 0 0 0 0 0 0 127 0" result="hardAlpha"/>
<feOffset dx="0.4"/>
<feGaussianBlur stdDeviation="0.25"/>
<feComposite in2="hardAlpha" operator="arithmetic" k2="-1" k3="1"/>
<feColorMatrix type="matrix" values="0 0 0 0 0.882353 0 0 0 0 0.670588 0 0 0 0 0.603922 0 0 0 1 0"/>
<feBlend mode="normal" in2="shape" result="effect1_innerShadow_0_33"/>
</filter>
<filter id="filter8_ii_0_33" x="33.1212" y="44.59" width="9.19458" height="10.9897" filterUnits="userSpaceOnUse" color-interpolation-filters="sRGB">
<feFlood flood-opacity="0" result="BackgroundImageFix"/>
<feBlend mode="normal" in="SourceGraphic" in2="BackgroundImageFix" result="shape"/>
<feColorMatrix in="SourceAlpha" type="matrix" values="0 0 0 0 0 0 0 0 0 0 0 0 0 0 0 0 0 0 127 0" result="hardAlpha"/>
<feOffset dx="0.2" dy="-0.2"/>
<feGaussianBlur stdDeviation="0.25"/>
<feComposite in2="hardAlpha" operator="arithmetic" k2="-1" k3="1"/>
<feColorMatrix type="matrix" values="0 0 0 0 0.74902 0 0 0 0 0.490196 0 0 0 0 0.478431 0 0 0 1 0"/>
<feBlend mode="normal" in2="shape" result="effect1_innerShadow_0_33"/>
<feColorMatrix in="SourceAlpha" type="matrix" values="0 0 0 0 0 0 0 0 0 0 0 0 0 0 0 0 0 0 127 0" result="hardAlpha"/>
<feOffset dx="-0.2"/>
<feGaussianBlur stdDeviation="0.2"/>
<feComposite in2="hardAlpha" operator="arithmetic" k2="-1" k3="1"/>
<feColorMatrix type="matrix" values="0 0 0 0 0.956863 0 0 0 0 0.796078 0 0 0 0 0.721569 0 0 0 1 0"/>
<feBlend mode="normal" in2="effect1_innerShadow_0_33" result="effect2_innerShadow_0_33"/>
</filter>
<filter id="filter9_f_0_33" x="33.9122" y="47.5039" width="4.14678" height="0.30031" filterUnits="userSpaceOnUse" color-interpolation-filters="sRGB">
<feFlood flood-opacity="0" result="BackgroundImageFix"/>
<feBlend mode="normal" in="SourceGraphic" in2="BackgroundImageFix" result="shape"/>
<feGaussianBlur stdDeviation="0.05" result="effect1_foregroundBlur_0_33"/>
</filter>
<filter id="filter10_f_0_33" x="17.875" y="47.5039" width="4.14678" height="0.30031" filterUnits="userSpaceOnUse" color-interpolation-filters="sRGB">
<feFlood flood-opacity="0" result="BackgroundImageFix"/>
<feBlend mode="normal" in="SourceGraphic" in2="BackgroundImageFix" result="shape"/>
<feGaussianBlur stdDeviation="0.05" result="effect1_foregroundBlur_0_33"/>
</filter>
<filter id="filter11_f_0_33" x="33.9122" y="50.0357" width="4.14678" height="0.30031" filterUnits="userSpaceOnUse" color-interpolation-filters="sRGB">
<feFlood flood-opacity="0" result="BackgroundImageFix"/>
<feBlend mode="normal" in="SourceGraphic" in2="BackgroundImageFix" result="shape"/>
<feGaussianBlur stdDeviation="0.05" result="effect1_foregroundBlur_0_33"/>
</filter>
<filter id="filter12_f_0_33" x="17.875" y="50.0357" width="4.14678" height="0.30031" filterUnits="userSpaceOnUse" color-interpolation-filters="sRGB">
<feFlood flood-opacity="0" result="BackgroundImageFix"/>
<feBlend mode="normal" in="SourceGraphic" in2="BackgroundImageFix" result="shape"/>
<feGaussianBlur stdDeviation="0.05" result="effect1_foregroundBlur_0_33"/>
</filter>
<filter id="filter13_f_0_33" x="33.9122" y="52.5675" width="4.14678" height="0.30031" filterUnits="userSpaceOnUse" color-interpolation-filters="sRGB">
<feFlood flood-opacity="0" result="BackgroundImageFix"/>
<feBlend mode="normal" in="SourceGraphic" in2="BackgroundImageFix" result="shape"/>
<feGaussianBlur stdDeviation="0.05" result="effect1_foregroundBlur_0_33"/>
</filter>
<filter id="filter14_f_0_33" x="17.875" y="52.5675" width="4.14678" height="0.30031" filterUnits="userSpaceOnUse" color-interpolation-filters="sRGB">
<feFlood flood-opacity="0" result="BackgroundImageFix"/>
<feBlend mode="normal" in="SourceGraphic" in2="BackgroundImageFix" result="shape"/>
<feGaussianBlur stdDeviation="0.05" result="effect1_foregroundBlur_0_33"/>
</filter>
<filter id="filter15_i_0_33" x="15.3087" y="13.8743" width="6.88064" height="6.68074" filterUnits="userSpaceOnUse" color-interpolation-filters="sRGB">
<feFlood flood-opacity="0" result="BackgroundImageFix"/>
<feBlend mode="normal" in="SourceGraphic" in2="BackgroundImageFix" result="shape"/>
<feColorMatrix in="SourceAlpha" type="matrix" values="0 0 0 0 0 0 0 0 0 0 0 0 0 0 0 0 0 0 127 0" result="hardAlpha"/>
<feOffset dx="0.2"/>
<feGaussianBlur stdDeviation="0.15"/>
<feComposite in2="hardAlpha" operator="arithmetic" k2="-1" k3="1"/>
<feColorMatrix type="matrix" values="0 0 0 0 0.917647 0 0 0 0 0.694118 0 0 0 0 0.607843 0 0 0 1 0"/>
<feBlend mode="normal" in2="shape" result="effect1_innerShadow_0_33"/>
</filter>
<filter id="filter16_f_0_33" x="16.1574" y="14.7228" width="4.9835" height="4.9835" filterUnits="userSpaceOnUse" color-interpolation-filters="sRGB">
<feFlood flood-opacity="0" result="BackgroundImageFix"/>
<feBlend mode="normal" in="SourceGraphic" in2="BackgroundImageFix" result="shape"/>
<feGaussianBlur stdDeviation="0.25" result="effect1_foregroundBlur_0_33"/>
</filter>
<filter id="filter17_i_0_33" x="34.3485" y="13.6241" width="6.93068" height="6.93092" filterUnits="userSpaceOnUse" color-interpolation-filters="sRGB">
<feFlood flood-opacity="0" result="BackgroundImageFix"/>
<feBlend mode="normal" in="SourceGraphic" in2="BackgroundImageFix" result="shape"/>
<feColorMatrix in="SourceAlpha" type="matrix" values="0 0 0 0 0 0 0 0 0 0 0 0 0 0 0 0 0 0 127 0" result="hardAlpha"/>
<feOffset dx="0.25" dy="-0.25"/>
<feGaussianBlur stdDeviation="0.25"/>
<feComposite in2="hardAlpha" operator="arithmetic" k2="-1" k3="1"/>
<feColorMatrix type="matrix" values="0 0 0 0 0.843137 0 0 0 0 0.623529 0 0 0 0 0.580392 0 0 0 1 0"/>
<feBlend mode="normal" in2="shape" result="effect1_innerShadow_0_33"/>
</filter>
<filter id="filter18_f_0_33" x="35.1967" y="14.7228" width="4.9835" height="4.9835" filterUnits="userSpaceOnUse" color-interpolation-filters="sRGB">
<feFlood flood-opacity="0" result="BackgroundImageFix"/>
<feBlend mode="normal" in="SourceGraphic" in2="BackgroundImageFix" result="shape"/>
<feGaussianBlur stdDeviation="0.25" result="effect1_foregroundBlur_0_33"/>
</filter>
<filter id="filter19_i_0_33" x="17.8285" y="5.95855" width="20.7608" height="24.3192" filterUnits="userSpaceOnUse" color-interpolation-filters="sRGB">
<feFlood flood-opacity="0" result="BackgroundImageFix"/>
<feBlend mode="normal" in="SourceGraphic" in2="BackgroundImageFix" result="shape"/>
<feColorMatrix in="SourceAlpha" type="matrix" values="0 0 0 0 0 0 0 0 0 0 0 0 0 0 0 0 0 0 127 0" result="hardAlpha"/>
<feOffset dy="0.25"/>
<feGaussianBlur stdDeviation="0.375"/>
<feComposite in2="hardAlpha" operator="arithmetic" k2="-1" k3="1"/>
<feColorMatrix type="matrix" values="0 0 0 0 0.819608 0 0 0 0 0.615686 0 0 0 0 0.509804 0 0 0 1 0"/>
<feBlend mode="normal" in2="shape" result="effect1_innerShadow_0_33"/>
</filter>
<filter id="filter20_f_0_33" x="26.4806" y="3.95714" width="12.5108" height="10.141" filterUnits="userSpaceOnUse" color-interpolation-filters="sRGB">
<feFlood flood-opacity="0" result="BackgroundImageFix"/>
<feBlend mode="normal" in="SourceGraphic" in2="BackgroundImageFix" result="shape"/>
<feGaussianBlur stdDeviation="1" result="effect1_foregroundBlur_0_33"/>
</filter>
<filter id="filter21_i_0_33" x="15.5427" y="-0.500353" width="25.2195" height="16.5981" filterUnits="userSpaceOnUse" color-interpolation-filters="sRGB">
<feFlood flood-opacity="0" result="BackgroundImageFix"/>
<feBlend mode="normal" in="SourceGraphic" in2="BackgroundImageFix" result="shape"/>
<feColorMatrix in="SourceAlpha" type="matrix" values="0 0 0 0 0 0 0 0 0 0 0 0 0 0 0 0 0 0 127 0" result="hardAlpha"/>
<feOffset dy="-0.5"/>
<feGaussianBlur stdDeviation="0.375"/>
<feComposite in2="hardAlpha" operator="arithmetic" k2="-1" k3="1"/>
<feColorMatrix type="matrix" values="0 0 0 0 0.0392157 0 0 0 0 0.00784314 0 0 0 0 0.0196078 0 0 0 1 0"/>
<feBlend mode="normal" in2="shape" result="effect1_innerShadow_0_33"/>
</filter>
<filter id="filter22_f_0_33" x="25.1628" y="15.6536" width="5.02308" height="6.86691" filterUnits="userSpaceOnUse" color-interpolation-filters="sRGB">
<feFlood flood-opacity="0" result="BackgroundImageFix"/>
<feBlend mode="normal" in="SourceGraphic" in2="BackgroundImageFix" result="shape"/>
<feGaussianBlur stdDeviation="0.375" result="effect1_foregroundBlur_0_33"/>
</filter>
<filter id="filter23_f_0_33" x="26.0252" y="15.8276" width="4.253" height="5.8662" filterUnits="userSpaceOnUse" color-interpolation-filters="sRGB">
<feFlood flood-opacity="0" result="BackgroundImageFix"/>
<feBlend mode="normal" in="SourceGraphic" in2="BackgroundImageFix" result="shape"/>
<feGaussianBlur stdDeviation="0.125" result="effect1_foregroundBlur_0_33"/>
</filter>
<filter id="filter24_i_0_33" x="30.5636" y="10.3111" width="5.63777" height="3.32471" filterUnits="userSpaceOnUse" color-interpolation-filters="sRGB">
<feFlood flood-opacity="0" result="BackgroundImageFix"/>
<feBlend mode="normal" in="SourceGraphic" in2="BackgroundImageFix" result="shape"/>
<feColorMatrix in="SourceAlpha" type="matrix" values="0 0 0 0 0 0 0 0 0 0 0 0 0 0 0 0 0 0 127 0" result="hardAlpha"/>
<feOffset dx="0.25" dy="-0.4"/>
<feGaussianBlur stdDeviation="0.3"/>
<feComposite in2="hardAlpha" operator="arithmetic" k2="-1" k3="1"/>
<feColorMatrix type="matrix" values="0 0 0 0 0.0431373 0 0 0 0 0.0196078 0 0 0 0 0.027451 0 0 0 1 0"/>
<feBlend mode="normal" in2="shape" result="effect1_innerShadow_0_33"/>
</filter>
<filter id="filter25_i_0_33" x="20.2443" y="10.3111" width="5.72719" height="3.32496" filterUnits="userSpaceOnUse" color-interpolation-filters="sRGB">
<feFlood flood-opacity="0" result="BackgroundImageFix"/>
<feBlend mode="normal" in="SourceGraphic" in2="BackgroundImageFix" result="shape"/>
<feColorMatrix in="SourceAlpha" type="matrix" values="0 0 0 0 0 0 0 0 0 0 0 0 0 0 0 0 0 0 127 0" result="hardAlpha"/>
<feOffset dx="0.25" dy="-0.4"/>
<feGaussianBlur stdDeviation="0.3"/>
<feComposite in2="hardAlpha" operator="arithmetic" k2="-1" k3="1"/>
<feColorMatrix type="matrix" values="0 0 0 0 0.0431373 0 0 0 0 0.0196078 0 0 0 0 0.027451 0 0 0 1 0"/>
<feBlend mode="normal" in2="shape" result="effect1_innerShadow_0_33"/>
</filter>
<filter id="filter26_f_0_33" x="31.1427" y="15.0688" width="1.3748" height="1.19254" filterUnits="userSpaceOnUse" color-interpolation-filters="sRGB">
<feFlood flood-opacity="0" result="BackgroundImageFix"/>
<feBlend mode="normal" in="SourceGraphic" in2="BackgroundImageFix" result="shape"/>
<feGaussianBlur stdDeviation="0.05" result="effect1_foregroundBlur_0_33"/>
</filter>
<filter id="filter27_f_0_33" x="32.9253" y="15.3194" width="1.38096" height="1.42689" filterUnits="userSpaceOnUse" color-interpolation-filters="sRGB">
<feFlood flood-opacity="0" result="BackgroundImageFix"/>
<feBlend mode="normal" in="SourceGraphic" in2="BackgroundImageFix" result="shape"/>
<feGaussianBlur stdDeviation="0.1" result="effect1_foregroundBlur_0_33"/>
</filter>
<filter id="filter28_f_0_33" x="24.0347" y="15.1911" width="1.57494" height="1.68122" filterUnits="userSpaceOnUse" color-interpolation-filters="sRGB">
<feFlood flood-opacity="0" result="BackgroundImageFix"/>
<feBlend mode="normal" in="SourceGraphic" in2="BackgroundImageFix" result="shape"/>
<feGaussianBlur stdDeviation="0.1" result="effect1_foregroundBlur_0_33"/>
</filter>
<filter id="filter29_f_0_33" x="22.4261" y="15.0532" width="1.62498" height="1.20867" filterUnits="userSpaceOnUse" color-interpolation-filters="sRGB">
<feFlood flood-opacity="0" result="BackgroundImageFix"/>
<feBlend mode="normal" in="SourceGraphic" in2="BackgroundImageFix" result="shape"/>
<feGaussianBlur stdDeviation="0.05" result="effect1_foregroundBlur_0_33"/>
</filter>
<filter id="filter30_f_0_33" x="30.8489" y="10.7889" width="4.95369" height="2.1138" filterUnits="userSpaceOnUse" color-interpolation-filters="sRGB">
<feFlood flood-opacity="0" result="BackgroundImageFix"/>
<feBlend mode="normal" in="SourceGraphic" in2="BackgroundImageFix" result="shape"/>
<feGaussianBlur stdDeviation="0.25" result="effect1_foregroundBlur_0_33"/>
</filter>
<filter id="filter31_f_0_33" x="20.4036" y="10.9159" width="5.10761" height="2.22887" filterUnits="userSpaceOnUse" color-interpolation-filters="sRGB">
<feFlood flood-opacity="0" result="BackgroundImageFix"/>
<feBlend mode="normal" in="SourceGraphic" in2="BackgroundImageFix" result="shape"/>
<feGaussianBlur stdDeviation="0.25" result="effect1_foregroundBlur_0_33"/>
</filter>
<filter id="filter32_f_0_33" x="18.1876" y="7.21066" width="1.26701" height="3.79076" filterUnits="userSpaceOnUse" color-interpolation-filters="sRGB">
<feFlood flood-opacity="0" result="BackgroundImageFix"/>
<feBlend mode="normal" in="SourceGraphic" in2="BackgroundImageFix" result="shape"/>
<feGaussianBlur stdDeviation="0.125" result="effect1_foregroundBlur_0_33"/>
</filter>
<filter id="filter33_ii_0_33" x="17.8726" y="13.504" width="20.4944" height="8.12566" filterUnits="userSpaceOnUse" color-interpolation-filters="sRGB">
<feFlood flood-opacity="0" result="BackgroundImageFix"/>
<feBlend mode="normal" in="SourceGraphic" in2="BackgroundImageFix" result="shape"/>
<feColorMatrix in="SourceAlpha" type="matrix" values="0 0 0 0 0 0 0 0 0 0 0 0 0 0 0 0 0 0 127 0" result="hardAlpha"/>
<feOffset dx="-0.1" dy="0.1"/>
<feGaussianBlur stdDeviation="0.1"/>
<feComposite in2="hardAlpha" operator="arithmetic" k2="-1" k3="1"/>
<feColorMatrix type="matrix" values="0 0 0 0 0.381221 0 0 0 0 0.2699 0 0 0 0 0.482422 0 0 0 1 0"/>
<feBlend mode="normal" in2="shape" result="effect1_innerShadow_0_33"/>
<feColorMatrix in="SourceAlpha" type="matrix" values="0 0 0 0 0 0 0 0 0 0 0 0 0 0 0 0 0 0 127 0" result="hardAlpha"/>
<feOffset dy="-0.1"/>
<feGaussianBlur stdDeviation="0.05"/>
<feComposite in2="hardAlpha" operator="arithmetic" k2="-1" k3="1"/>
<feColorMatrix type="matrix" values="0 0 0 0 0.2 0 0 0 0 0.109804 0 0 0 0 0.211765 0 0 0 1 0"/>
<feBlend mode="normal" in2="effect1_innerShadow_0_33" result="effect2_innerShadow_0_33"/>
</filter>
<linearGradient id="paint0_linear_0_33" x1="19.6419" y1="4.76189" x2="58.5554" y2="41.2577" gradientUnits="userSpaceOnUse">
<stop stop-color="#EFBE85"/>
<stop offset="0.568" stop-color="#E8AC81"/>
<stop offset="1" stop-color="#D6753D"/>
</linearGradient>
<linearGradient id="paint1_linear_0_33" x1="56.1557" y1="22.1502" x2="14.2521" y2="22.1502" gradientUnits="userSpaceOnUse">
<stop stop-color="#509245"/>
<stop offset="1" stop-color="#44803D"/>
</linearGradient>
<radialGradient id="paint2_radial_0_33" cx="0" cy="0" r="1" gradientUnits="userSpaceOnUse" gradientTransform="translate(8.8731 47.0422) rotate(-56.746) scale(36.4984 49.9523)">
<stop stop-color="#25585F"/>
<stop offset="1" stop-color="#25585F" stop-opacity="0"/>
</radialGradient>
<radialGradient id="paint3_radial_0_33" cx="0" cy="0" r="1" gradientUnits="userSpaceOnUse" gradientTransform="translate(55.155 46.5414) rotate(-125.417) scale(34.5354 34.1605)">
<stop stop-color="#358175"/>
<stop offset="1" stop-color="#358175" stop-opacity="0"/>
</radialGradient>
<linearGradient id="paint4_linear_0_33" x1="22.8824" y1="2.64228" x2="58.5336" y2="44.2957" gradientUnits="userSpaceOnUse">
<stop stop-color="#FFD59C"/>
<stop offset="1" stop-color="#F69C5B"/>
</linearGradient>
<linearGradient id="paint5_linear_0_33" x1="-13.8318" y1="46.8555" x2="53.842" y2="46.8555" gradientUnits="userSpaceOnUse">
<stop stop-color="#D18F7B"/>
<stop offset="1" stop-color="#F1B58B"/>
</linearGradient>
<linearGradient id="paint6_linear_0_33" x1="2.17954" y1="5.95062" x2="2.17954" y2="42.8527" gradientUnits="userSpaceOnUse">
<stop stop-color="#D78248"/>
<stop offset="1" stop-color="#D78248" stop-opacity="0"/>
</linearGradient>
<radialGradient id="paint7_radial_0_33" cx="0" cy="0" r="1" gradientUnits="userSpaceOnUse" gradientTransform="translate(0 4.18337) rotate(90) scale(18.6359 1.23615)">
<stop offset="0.355" stop-color="#BC7B53"/>
<stop offset="1" stop-color="#BC7B53" stop-opacity="0"/>
</radialGradient>
<radialGradient id="paint8_radial_0_33" cx="0" cy="0" r="1" gradientUnits="userSpaceOnUse" gradientTransform="translate(28.0118 27.4659) rotate(90) scale(28.1137 12.4461)">
<stop stop-color="#61342D"/>
<stop offset="1" stop-color="#764747"/>
</radialGradient>
<radialGradient id="paint9_radial_0_33" cx="0" cy="0" r="1" gradientUnits="userSpaceOnUse" gradientTransform="translate(41.3332 36.5343) rotate(90) scale(16.7618 5.87915)">
<stop stop-color="#9A6D66"/>
<stop offset="1" stop-color="#9A6D66" stop-opacity="0"/>
</radialGradient>
<radialGradient id="paint10_radial_0_33" cx="0" cy="0" r="1" gradientUnits="userSpaceOnUse" gradientTransform="translate(21.4431 33.7203) rotate(135) scale(4.33409 3.49382)">
<stop stop-color="#61332B"/>
<stop offset="1" stop-color="#61332B" stop-opacity="0"/>
</radialGradient>
<radialGradient id="paint11_radial_0_33" cx="0" cy="0" r="1" gradientUnits="userSpaceOnUse" gradientTransform="translate(50.0152 52.0453) rotate(-90) scale(20.3894 7.70756)">
<stop stop-color="#7C5A5A"/>
<stop offset="1" stop-color="#735451"/>
</radialGradient>
<linearGradient id="paint12_linear_0_33" x1="46.3706" y1="56.4884" x2="46.3706" y2="48.849" gradientUnits="userSpaceOnUse">
<stop stop-color="#614451"/>
<stop offset="1" stop-color="#614451" stop-opacity="0"/>
</linearGradient>
<linearGradient id="paint13_linear_0_33" x1="40.8327" y1="54.1108" x2="42.4578" y2="54.0787" gradientUnits="userSpaceOnUse">
<stop offset="0.254" stop-color="#4F2737"/>
<stop offset="1" stop-color="#4F2737" stop-opacity="0"/>
</linearGradient>
<linearGradient id="paint14_linear_0_33" x1="10.2672" y1="51.8712" x2="15.0586" y2="51.8712" gradientUnits="userSpaceOnUse">
<stop stop-color="#623D44"/>
<stop offset="1" stop-color="#4F2E37"/>
</linearGradient>
<radialGradient id="paint15_radial_0_33" cx="0" cy="0" r="1" gradientUnits="userSpaceOnUse" gradientTransform="translate(18.9213 55.1455) rotate(180) scale(13.8511 34.5858)">
<stop offset="0.576" stop-color="#5D3841" stop-opacity="0"/>
<stop offset="1" stop-color="#7F6260"/>
</radialGradient>
<radialGradient id="paint16_radial_0_33" cx="0" cy="0" r="1" gradientUnits="userSpaceOnUse" gradientTransform="translate(26.3845 36.16) scale(7.19258 23.6105)">
<stop stop-color="#ABA5A8"/>
<stop offset="1" stop-color="#544B50"/>
</radialGradient>
<linearGradient id="paint17_linear_0_33" x1="32.1228" y1="32.3112" x2="37.7187" y2="32.3112" gradientUnits="userSpaceOnUse">
<stop stop-color="#613327"/>
<stop offset="0.371" stop-color="#764440"/>
</linearGradient>
<radialGradient id="paint18_radial_0_33" cx="0" cy="0" r="1" gradientUnits="userSpaceOnUse" gradientTransform="translate(38.4793 34.4527) rotate(-115.221) scale(7.48621 4.52828)">
<stop stop-color="#90645E"/>
<stop offset="1" stop-color="#90645E" stop-opacity="0"/>
</radialGradient>
<radialGradient id="paint19_radial_0_33" cx="0" cy="0" r="1" gradientUnits="userSpaceOnUse" gradientTransform="translate(35.3605 36.4724) rotate(-125.283) scale(3.27543 0.596541)">
<stop stop-color="#8A5D57"/>
<stop offset="1" stop-color="#8A5D57" stop-opacity="0"/>
</radialGradient>
<radialGradient id="paint20_radial_0_33" cx="0" cy="0" r="1" gradientUnits="userSpaceOnUse" gradientTransform="translate(31.9464 28.4981) rotate(69.677) scale(1.90082 3.55803)">
<stop offset="0.359" stop-color="#481E13"/>
<stop offset="1" stop-color="#4A1D14" stop-opacity="0"/>
</radialGradient>
<linearGradient id="paint21_linear_0_33" x1="23.8971" y1="32.3112" x2="18.2991" y2="32.3112" gradientUnits="userSpaceOnUse">
<stop stop-color="#744036"/>
<stop offset="0.639" stop-color="#72433E"/>
</linearGradient>
<radialGradient id="paint22_radial_0_33" cx="0" cy="0" r="1" gradientUnits="userSpaceOnUse" gradientTransform="translate(23.0385 36.286) rotate(-88.8542) scale(6.25567 2.52693)">
<stop stop-color="#875955"/>
<stop offset="1" stop-color="#875955" stop-opacity="0"/>
</radialGradient>
<linearGradient id="paint23_linear_0_33" x1="20.2245" y1="29.4372" x2="21.3493" y2="29.8735" gradientUnits="userSpaceOnUse">
<stop stop-color="#6F5048"/>
<stop offset="1" stop-color="#6F5048" stop-opacity="0"/>
</linearGradient>
<radialGradient id="paint24_radial_0_33" cx="0" cy="0" r="1" gradientUnits="userSpaceOnUse" gradientTransform="translate(24.0692 28.4985) rotate(115.115) scale(2.21039 4.13745)">
<stop offset="0.219" stop-color="#481E13"/>
<stop offset="1" stop-color="#4A1D14" stop-opacity="0"/>
</radialGradient>
<radialGradient id="paint25_radial_0_33" cx="0" cy="0" r="1" gradientUnits="userSpaceOnUse" gradientTransform="translate(28.0197 30.0297) rotate(90) scale(5.62599 4.11549)">
<stop offset="0.298" stop-color="#A87366"/>
<stop offset="1" stop-color="#875841"/>
</radialGradient>
<radialGradient id="paint26_radial_0_33" cx="0" cy="0" r="1" gradientUnits="userSpaceOnUse" gradientTransform="translate(41.2931 43.1128) rotate(136.93) scale(3.09295 4.45569)">
<stop offset="0.28" stop-color="#E9BDA6"/>
<stop offset="1" stop-color="#DDA88B"/>
</radialGradient>
<radialGradient id="paint27_radial_0_33" cx="0" cy="0" r="1" gradientUnits="userSpaceOnUse" gradientTransform="translate(41.5773 42.5504) rotate(-40.3996) scale(1.62685 0.96909)">
<stop stop-color="#FCD2BC"/>
<stop offset="1" stop-color="#FCD2BC" stop-opacity="0"/>
</radialGradient>
<radialGradient id="paint28_radial_0_33" cx="0" cy="0" r="1" gradientUnits="userSpaceOnUse" gradientTransform="translate(18.1909 43.5973) rotate(-170.853) scale(3.73763 11.7112)">
<stop stop-color="#B88165"/>
<stop offset="1" stop-color="#CD9A86"/>
</radialGradient>
<linearGradient id="paint29_linear_0_33" x1="39.7062" y1="45.1664" x2="30.95" y2="45.1664" gradientUnits="userSpaceOnUse">
<stop stop-color="#E9266F"/>
<stop offset="1" stop-color="#BF1B74"/>
</linearGradient>
<linearGradient id="paint30_linear_0_33" x1="16.6319" y1="42.7267" x2="17.4885" y2="42.7267" gradientUnits="userSpaceOnUse">
<stop stop-color="#6D6670"/>
<stop offset="1" stop-color="#6D6670" stop-opacity="0"/>
</linearGradient>
<linearGradient id="paint31_linear_0_33" x1="21.7334" y1="51.609" x2="13.1254" y2="51.609" gradientUnits="userSpaceOnUse">
<stop stop-color="#EAB9AD"/>
<stop offset="0.716" stop-color="#D4A093"/>
</linearGradient>
<radialGradient id="paint32_radial_0_33" cx="0" cy="0" r="1" gradientUnits="userSpaceOnUse" gradientTransform="translate(20.3805 46.3032) rotate(180) scale(3.3461 1.32003)">
<stop stop-color="#F2C6BB"/>
<stop offset="1" stop-color="#F2C6BB" stop-opacity="0"/>
</radialGradient>
<radialGradient id="paint33_radial_0_33" cx="0" cy="0" r="1" gradientUnits="userSpaceOnUse" gradientTransform="translate(20.4125 48.8671) rotate(180) scale(3.06466 1.20899)">
<stop stop-color="#F2C6BB"/>
<stop offset="1" stop-color="#F2C6BB" stop-opacity="0"/>
</radialGradient>
<radialGradient id="paint34_radial_0_33" cx="0" cy="0" r="1" gradientUnits="userSpaceOnUse" gradientTransform="translate(20.5066 51.4309) rotate(180) scale(2.6894 1.06095)">
<stop stop-color="#F2C6BB"/>
<stop offset="1" stop-color="#F2C6BB" stop-opacity="0"/>
</radialGradient>
<radialGradient id="paint35_radial_0_33" cx="0" cy="0" r="1" gradientUnits="userSpaceOnUse" gradientTransform="translate(20.6467 54.1528) rotate(180) scale(3.00212 1.18432)">
<stop stop-color="#F2C6BB"/>
<stop offset="1" stop-color="#F2C6BB" stop-opacity="0"/>
</radialGradient>
<linearGradient id="paint36_linear_0_33" x1="18.1289" y1="56.1202" x2="18.1289" y2="53.9627" gradientUnits="userSpaceOnUse">
<stop stop-color="#C38792"/>
<stop offset="1" stop-color="#C38792" stop-opacity="0"/>
</linearGradient>
<linearGradient id="paint37_linear_0_33" x1="40.9568" y1="50.7944" x2="33.3234" y2="50.7944" gradientUnits="userSpaceOnUse">
<stop stop-color="#FFD7C3"/>
<stop offset="0.807" stop-color="#D19890"/>
</linearGradient>
<radialGradient id="paint38_radial_0_33" cx="0" cy="0" r="1" gradientUnits="userSpaceOnUse" gradientTransform="translate(38.5191 46.3032) scale(3.40865 1.34471)">
<stop stop-color="#FFD6C4"/>
<stop offset="1" stop-color="#FFD6C4" stop-opacity="0"/>
</radialGradient>
<radialGradient id="paint39_radial_0_33" cx="0" cy="0" r="1" gradientUnits="userSpaceOnUse" gradientTransform="translate(38.393 48.8671) scale(3.2523 1.28303)">
<stop stop-color="#FFD6C4"/>
<stop offset="1" stop-color="#FFD6C4" stop-opacity="0"/>
</radialGradient>
<radialGradient id="paint40_radial_0_33" cx="0" cy="0" r="1" gradientUnits="userSpaceOnUse" gradientTransform="translate(38.2048 51.4309) scale(3.12721 1.23367)">
<stop stop-color="#FFD6C4"/>
<stop offset="1" stop-color="#FFD6C4" stop-opacity="0"/>
</radialGradient>
<radialGradient id="paint41_radial_0_33" cx="0" cy="0" r="1" gradientUnits="userSpaceOnUse" gradientTransform="translate(37.9246 54.1528) scale(2.87703 1.13498)">
<stop stop-color="#FFD6C4"/>
<stop offset="1" stop-color="#FFD6C4" stop-opacity="0"/>
</radialGradient>
<linearGradient id="paint42_linear_0_33" x1="17.5665" y1="39.4744" x2="39.3279" y2="39.4744" gradientUnits="userSpaceOnUse">
<stop stop-color="#564567"/>
<stop offset="1" stop-color="#564567"/>
</linearGradient>
<linearGradient id="paint43_linear_0_33" x1="28.8125" y1="37.5991" x2="28.8125" y2="39.9447" gradientUnits="userSpaceOnUse">
<stop stop-color="#DCD5E1"/>
<stop offset="1" stop-color="#B2ACB9"/>
</linearGradient>
<linearGradient id="paint44_linear_0_33" x1="-nan" y1="-nan" x2="-nan" y2="-nan" gradientUnits="userSpaceOnUse">
<stop stop-color="#B6736C"/>
<stop offset="1" stop-color="#B6736C" stop-opacity="0"/>
</linearGradient>
<linearGradient id="paint45_linear_0_33" x1="-nan" y1="-nan" x2="-nan" y2="-nan" gradientUnits="userSpaceOnUse">
<stop stop-color="#E4AF9D"/>
<stop offset="1" stop-color="#E4AF9D" stop-opacity="0"/>
</linearGradient>
<linearGradient id="paint46_linear_0_33" x1="-nan" y1="-nan" x2="-nan" y2="-nan" gradientUnits="userSpaceOnUse">
<stop stop-color="#B6736C"/>
<stop offset="1" stop-color="#B6736C" stop-opacity="0"/>
</linearGradient>
<linearGradient id="paint47_linear_0_33" x1="-nan" y1="-nan" x2="-nan" y2="-nan" gradientUnits="userSpaceOnUse">
<stop stop-color="#E4AF9D"/>
<stop offset="1" stop-color="#E4AF9D" stop-opacity="0"/>
</linearGradient>
<linearGradient id="paint48_linear_0_33" x1="-nan" y1="-nan" x2="-nan" y2="-nan" gradientUnits="userSpaceOnUse">
<stop stop-color="#B6736C"/>
<stop offset="1" stop-color="#B6736C" stop-opacity="0"/>
</linearGradient>
<linearGradient id="paint49_linear_0_33" x1="-nan" y1="-nan" x2="-nan" y2="-nan" gradientUnits="userSpaceOnUse">
<stop stop-color="#E4AF9D"/>
<stop offset="1" stop-color="#E4AF9D" stop-opacity="0"/>
</linearGradient>
<radialGradient id="paint50_radial_0_33" cx="0" cy="0" r="1" gradientUnits="userSpaceOnUse" gradientTransform="translate(15.3087 17.2127) scale(3.5119 6.14588)">
<stop offset="0.351" stop-color="#CF9888"/>
<stop offset="1" stop-color="#BE8C77"/>
</radialGradient>
<linearGradient id="paint51_linear_0_33" x1="18.6492" y1="17.771" x2="17.3683" y2="17.771" gradientUnits="userSpaceOnUse">
<stop stop-color="#BA7C6B"/>
<stop offset="1" stop-color="#BE8474"/>
</linearGradient>
<linearGradient id="paint52_linear_0_33" x1="39.8624" y1="15.0291" x2="38.2252" y2="20.1047" gradientUnits="userSpaceOnUse">
<stop stop-color="#FBD3BD"/>
<stop offset="1" stop-color="#F0B8A4"/>
</linearGradient>
<radialGradient id="paint53_radial_0_33" cx="0" cy="0" r="1" gradientUnits="userSpaceOnUse" gradientTransform="translate(38.4334 16.6843) rotate(-36.0607) scale(2.04656 2.33589)">
<stop offset="0.543" stop-color="#D9AA94"/>
<stop offset="1" stop-color="#D9AA94" stop-opacity="0"/>
</radialGradient>
<radialGradient id="paint54_radial_0_33" cx="0" cy="0" r="1" gradientUnits="userSpaceOnUse" gradientTransform="translate(37.6064 18.8577) rotate(-61.4672) scale(3.44085 2.01395)">
<stop offset="0.755" stop-color="#D6A38D" stop-opacity="0"/>
<stop offset="0.916" stop-color="#D6A38D"/>
</radialGradient>
<radialGradient id="paint55_radial_0_33" cx="0" cy="0" r="1" gradientUnits="userSpaceOnUse" gradientTransform="translate(37.6878 17.2127) rotate(44.707) scale(0.730116 0.941225)">
<stop stop-color="#D5A58E"/>
<stop offset="1" stop-color="#D5A58E" stop-opacity="0"/>
</radialGradient>
<linearGradient id="paint56_linear_0_33" x1="36.2275" y1="17.9931" x2="20.9447" y2="20.2707" gradientUnits="userSpaceOnUse">
<stop stop-color="#FFDABF"/>
<stop offset="1" stop-color="#EAAB97"/>
</linearGradient>
<radialGradient id="paint57_radial_0_33" cx="0" cy="0" r="1" gradientUnits="userSpaceOnUse" gradientTransform="translate(28.2098 13.3618) rotate(90) scale(17.5531 23.8274)">
<stop offset="0.489" stop-color="#D19D8F" stop-opacity="0"/>
<stop offset="1" stop-color="#A76E61"/>
</radialGradient>
<linearGradient id="paint58_linear_0_33" x1="16.8598" y1="21.0492" x2="23.5806" y2="21.2774" gradientUnits="userSpaceOnUse">
<stop stop-color="#A58787"/>
<stop offset="1" stop-color="#DEAD9D" stop-opacity="0"/>
</linearGradient>
<linearGradient id="paint59_linear_0_33" x1="17.3522" y1="23.3889" x2="21.1188" y2="23.2548" gradientUnits="userSpaceOnUse">
<stop stop-color="#E8AD97"/>
<stop offset="1" stop-color="#E8AD97" stop-opacity="0"/>
</linearGradient>
<radialGradient id="paint60_radial_0_33" cx="0" cy="0" r="1" gradientUnits="userSpaceOnUse" gradientTransform="translate(32.8471 14.6707) rotate(-90) scale(2.61579 3.21943)">
<stop stop-color="#F5B7A7"/>
<stop offset="1" stop-color="#F5B7A7" stop-opacity="0"/>
</radialGradient>
<radialGradient id="paint61_radial_0_33" cx="0" cy="0" r="1" gradientUnits="userSpaceOnUse" gradientTransform="translate(23.7247 14.6027) rotate(-90) scale(2.78347 3.46149)">
<stop stop-color="#D0958D"/>
<stop offset="1" stop-color="#D0958D" stop-opacity="0"/>
</radialGradient>
<linearGradient id="paint62_linear_0_33" x1="27.089" y1="12.0188" x2="43.3865" y2="6.18471" gradientUnits="userSpaceOnUse">
<stop stop-color="#FFDEC4"/>
<stop offset="1" stop-color="#FFDEC4" stop-opacity="0"/>
</linearGradient>
<radialGradient id="paint63_radial_0_33" cx="0" cy="0" r="1" gradientUnits="userSpaceOnUse" gradientTransform="translate(36.8482 8.99682) rotate(-74.8989) scale(6.12855 2.27267)">
<stop stop-color="#464344"/>
<stop offset="1" stop-color="#464344" stop-opacity="0"/>
</radialGradient>
<radialGradient id="paint64_radial_0_33" cx="0" cy="0" r="1" gradientUnits="userSpaceOnUse" gradientTransform="translate(33.5621 5.47445) rotate(5.258) scale(7.68677 4.13312)">
<stop offset="0.335" stop-color="#4A4648"/>
<stop offset="1" stop-color="#4A4648" stop-opacity="0"/>
</radialGradient>
<radialGradient id="paint65_radial_0_33" cx="0" cy="0" r="1" gradientUnits="userSpaceOnUse" gradientTransform="translate(28.1521 0.000463889) rotate(90) scale(3.36043 5.20438)">
<stop stop-color="#423D3F"/>
<stop offset="1" stop-color="#423D3F" stop-opacity="0"/>
</radialGradient>
<radialGradient id="paint66_radial_0_33" cx="0" cy="0" r="1" gradientUnits="userSpaceOnUse" gradientTransform="translate(15.247 13.6441) rotate(-36.2349) scale(7.62673 11.9486)">
<stop stop-color="#463C39"/>
<stop offset="1" stop-color="#463C39" stop-opacity="0"/>
</radialGradient>
<linearGradient id="paint67_linear_0_33" x1="26.4228" y1="19.312" x2="28.3002" y2="19.312" gradientUnits="userSpaceOnUse">
<stop stop-color="#DFA790"/>
<stop offset="1" stop-color="#DFA790" stop-opacity="0"/>
</linearGradient>
<linearGradient id="paint68_linear_0_33" x1="30.0294" y1="19.9585" x2="27.9779" y2="19.9285" gradientUnits="userSpaceOnUse">
<stop stop-color="#FFDFC4"/>
<stop offset="1" stop-color="#FFDFC4" stop-opacity="0"/>
</linearGradient>
<linearGradient id="paint69_linear_0_33" x1="28.5423" y1="21.4436" x2="28.5423" y2="20.2967" gradientUnits="userSpaceOnUse">
<stop stop-color="#DC9C96"/>
<stop offset="1" stop-color="#DC9C96" stop-opacity="0"/>
</linearGradient>
<radialGradient id="paint70_radial_0_33" cx="0" cy="0" r="1" gradientUnits="userSpaceOnUse" gradientTransform="translate(28.8065 20.4288) rotate(90) scale(0.394038 1.26597)">
<stop stop-color="#FFD7C1"/>
<stop offset="1" stop-color="#FFD7C1" stop-opacity="0"/>
</radialGradient>
<linearGradient id="paint71_linear_0_33" x1="28.4042" y1="21.5276" x2="28.4042" y2="21.1914" gradientUnits="userSpaceOnUse">
<stop stop-color="#D6938E"/>
<stop offset="1" stop-color="#D6938E" stop-opacity="0"/>
</linearGradient>
<linearGradient id="paint72_linear_0_33" x1="26.0762" y1="24.676" x2="26.9468" y2="23.299" gradientUnits="userSpaceOnUse">
<stop stop-color="#D7A397"/>
<stop offset="0.663" stop-color="#D7A397" stop-opacity="0"/>
</linearGradient>
<radialGradient id="paint73_radial_0_33" cx="0" cy="0" r="1" gradientUnits="userSpaceOnUse" gradientTransform="translate(32.5131 15.8497) rotate(90) scale(1.62327 2.582)">
<stop offset="0.802" stop-color="#7D574A"/>
<stop offset="1" stop-color="#664944"/>
</radialGradient>
<radialGradient id="paint74_radial_0_33" cx="0" cy="0" r="1" gradientUnits="userSpaceOnUse" gradientTransform="translate(32.0544 16.0178) rotate(-127.812) scale(0.756861 1.04203)">
<stop offset="0.766" stop-color="#FFE6E2" stop-opacity="0"/>
<stop offset="0.966" stop-color="#FFE6E2"/>
</radialGradient>
<linearGradient id="paint75_linear_0_33" x1="34.0681" y1="15.9578" x2="33.4417" y2="16.3441" gradientUnits="userSpaceOnUse">
<stop stop-color="#B4948D"/>
<stop offset="1" stop-color="#B4948D" stop-opacity="0"/>
</linearGradient>
<radialGradient id="paint76_radial_0_33" cx="0" cy="0" r="1" gradientUnits="userSpaceOnUse" gradientTransform="translate(23.7809 15.8497) rotate(90) scale(1.62335 2.58212)">
<stop offset="0.802" stop-color="#7D574A"/>
<stop offset="1" stop-color="#664944"/>
</radialGradient>
<linearGradient id="paint77_linear_0_33" x1="25.2696" y1="15.9556" x2="24.6412" y2="16.3439" gradientUnits="userSpaceOnUse">
<stop stop-color="#B4948D"/>
<stop offset="1" stop-color="#B4948D" stop-opacity="0"/>
</linearGradient>
<radialGradient id="paint78_radial_0_33" cx="0" cy="0" r="1" gradientUnits="userSpaceOnUse" gradientTransform="translate(23.5058 16.229) rotate(-118.811) scale(0.988678 1.18842)">
<stop offset="0.766" stop-color="#FFE6E2" stop-opacity="0"/>
<stop offset="0.966" stop-color="#FFE6E2"/>
</radialGradient>
<linearGradient id="paint79_linear_0_33" x1="34.1002" y1="11.6748" x2="33.2596" y2="9.95562" gradientUnits="userSpaceOnUse">
<stop stop-color="#353435"/>
<stop offset="1" stop-color="#353435" stop-opacity="0"/>
</linearGradient>
<linearGradient id="paint80_linear_0_33" x1="23.4847" y1="11.4185" x2="21.1051" y2="10.4198" gradientUnits="userSpaceOnUse">
<stop stop-color="#353435"/>
<stop offset="1" stop-color="#353435" stop-opacity="0"/>
</linearGradient>
<linearGradient id="paint81_linear_0_33" x1="18.8211" y1="7.38778" x2="18.8211" y2="11.7048" gradientUnits="userSpaceOnUse">
<stop stop-color="#3C393A"/>
<stop offset="1" stop-color="#3C393A" stop-opacity="0"/>
</linearGradient>
<linearGradient id="paint82_linear_0_33" x1="28.1699" y1="14.4167" x2="28.1699" y2="21.984" gradientUnits="userSpaceOnUse">
<stop stop-color="#402857"/>
<stop offset="1" stop-color="#251732"/>
</linearGradient>
<radialGradient id="paint83_radial_0_33" cx="0" cy="0" r="1" gradientUnits="userSpaceOnUse" gradientTransform="translate(18.7552 16.6262) scale(1.81378 5.44134)">
<stop stop-color="#52396B"/>
<stop offset="1" stop-color="#52396B" stop-opacity="0"/>
</radialGradient>
</defs>
</svg>
