<svg width="36" height="36" viewBox="0 0 36 36" fill="none" xmlns="http://www.w3.org/2000/svg">
<g clip-path="url(#clip0_1_1211)">
<path d="M17.265 0C12.507 0 7.551 0.8055 4.041 4.041C0.75 7.761 0 12.696 0 17.2875V18.7005C0 23.448 0.8055 28.449 4.041 31.9605C7.782 35.2695 12.741 36 17.3535 36H18.6345C23.4045 36 28.4265 35.205 31.959 31.959C35.271 28.2165 36 23.25 36 18.6345V17.355C36 12.585 35.205 7.563 31.959 4.041C28.239 0.741 23.316 0 18.723 0H17.265ZM18 5.2575C19.866 5.2575 21.384 6.7425 21.384 8.5665C21.384 10.164 20.3565 11.5305 18.8115 11.838V14.223C21.0315 14.544 22.6035 16.368 22.6035 18.624C22.6035 21.105 20.538 23.124 17.9985 23.124C15.4605 23.124 13.3965 21.105 13.3965 18.624C13.3965 18.369 13.422 18.1215 13.464 17.8785L11.16 17.1465C10.8602 17.6603 10.4303 18.0861 9.91371 18.381C9.39708 18.6759 8.81188 18.8296 8.217 18.8265C7.8615 18.8265 7.5105 18.771 7.17 18.6615C5.3955 18.099 4.4205 16.2285 4.9965 14.4915C5.22434 13.8203 5.6581 13.238 6.23605 12.8276C6.81399 12.4171 7.50667 12.1994 8.2155 12.2055C8.571 12.2055 8.922 12.2595 9.2625 12.3675C9.68308 12.4988 10.0736 12.7119 10.4116 12.9945C10.7495 13.2772 11.0284 13.6238 11.232 14.0145C11.538 14.601 11.655 15.249 11.58 15.888L13.8825 16.62C14.5425 15.33 15.9495 14.4405 17.4585 14.2215V11.838C15.915 11.5305 14.6145 10.164 14.6145 8.5665C14.6145 6.741 16.1325 5.2575 18 5.2575ZM18 6.5805C16.8795 6.5805 15.969 7.4715 15.969 8.5665C15.969 9.6615 16.8795 10.5525 18 10.5525C19.119 10.5525 20.031 9.6615 20.031 8.5665C20.031 7.4715 19.119 6.5805 18 6.5805ZM27.783 12.2055C29.253 12.2055 30.5475 13.125 31.002 14.493C31.1403 14.9057 31.1937 15.3421 31.1589 15.776C31.1241 16.2098 31.0019 16.6321 30.7995 17.0175C30.5961 17.4083 30.3171 17.7548 29.9788 18.037C29.6404 18.3192 29.2495 18.5315 28.8285 18.6615C28.488 18.771 28.137 18.8265 27.7815 18.8265C27.1866 18.8296 26.6014 18.6759 26.0848 18.381C25.5682 18.0861 25.1383 17.6603 24.8385 17.1465L23.8875 17.448L23.4705 16.191L24.4185 15.888C24.3367 15.1233 24.5232 14.3539 24.9463 13.7116C25.3694 13.0694 26.0026 12.5942 26.7375 12.3675C27.0755 12.2598 27.4282 12.2052 27.783 12.2055ZM8.214 13.53C7.332 13.53 6.5565 14.082 6.2835 14.9025C6.20275 15.1523 6.17248 15.4157 6.19446 15.6773C6.21644 15.9389 6.29023 16.1935 6.41153 16.4263C6.53283 16.6592 6.69922 16.8656 6.90102 17.0335C7.10282 17.2014 7.33601 17.3275 7.587 17.4045C7.791 17.469 8.0025 17.502 8.2155 17.502C9.0975 17.502 9.873 16.95 10.146 16.1295C10.2291 15.8818 10.2611 15.6199 10.2402 15.3596C10.2193 15.0992 10.146 14.8458 10.0245 14.6145C9.90216 14.3803 9.73477 14.1725 9.53193 14.0031C9.32909 13.8338 9.0948 13.7061 8.8425 13.6275C8.63881 13.5626 8.42778 13.5297 8.214 13.53ZM27.7815 13.53C27.5685 13.53 27.3585 13.5615 27.153 13.6275C26.902 13.7045 26.6688 13.8306 26.467 13.9985C26.2652 14.1664 26.0988 14.3728 25.9775 14.6057C25.8562 14.8385 25.7824 15.0931 25.7605 15.3547C25.7385 15.6163 25.7687 15.8797 25.8495 16.1295C26.1225 16.95 26.8995 17.502 27.78 17.502C27.9937 17.5018 28.2062 17.4689 28.41 17.4045C28.926 17.2395 29.3445 16.89 29.5905 16.416C29.838 15.9435 29.88 15.4065 29.7135 14.9025C29.5768 14.4995 29.3165 14.15 28.9697 13.9035C28.6228 13.6571 28.207 13.5264 27.7815 13.53ZM18 15.711C16.3575 15.711 15.021 17.0175 15.021 18.624C15.021 20.229 16.356 21.5355 18 21.5355C19.641 21.5355 20.9775 20.2305 20.9775 18.6255C20.9775 17.0175 19.6425 15.711 18 15.711ZM13.941 22.9575L15.036 23.736L14.451 24.525C15.5145 25.6605 15.6525 27.4125 14.691 28.7055C14.3717 29.1303 13.9577 29.4748 13.482 29.7118C13.0063 29.9487 12.4819 30.0716 11.9505 30.0705C11.2335 30.0705 10.545 29.85 9.963 29.4375C9.60529 29.1871 9.30142 28.8675 9.06937 28.4977C8.83732 28.1278 8.6818 27.7152 8.61202 27.2841C8.54223 26.8531 8.55959 26.4125 8.66308 25.9883C8.76656 25.5641 8.95407 25.165 9.2145 24.8145C9.68096 24.1931 10.3451 23.7491 11.0976 23.5555C11.8501 23.3619 12.6461 23.4303 13.3545 23.7495L13.941 22.9575ZM22.056 22.9575L22.644 23.7495C23.3526 23.4317 24.1482 23.364 24.9004 23.5575C25.6525 23.751 26.3167 24.1942 26.784 24.8145C27.0442 25.165 27.2316 25.5642 27.3349 25.9883C27.4383 26.4125 27.4556 26.8531 27.3858 27.284C27.3161 27.715 27.1606 28.1276 26.9287 28.4975C26.6968 28.8673 26.393 29.187 26.0355 29.4375C25.4551 29.8502 24.7602 30.071 24.048 30.069C23.5166 30.07 22.9922 29.9472 22.5165 29.7103C22.0408 29.4733 21.6268 29.1288 21.3075 28.704C20.8506 28.0903 20.6243 27.3354 20.6682 26.5716C20.7121 25.8078 21.0234 25.0838 21.5475 24.5265L20.9625 23.736L22.056 22.9575ZM11.955 24.7725C11.6358 24.7721 11.321 24.846 11.0354 24.9884C10.7497 25.1309 10.5012 25.3379 10.3095 25.593C9.6495 26.478 9.8535 27.723 10.7595 28.3665C11.1962 28.6778 11.7372 28.8062 12.2672 28.724C12.7972 28.6419 13.274 28.3559 13.596 27.927C14.256 27.042 14.0535 25.797 13.146 25.152C12.7981 24.9049 12.3817 24.7727 11.955 24.774V24.7725ZM24.0435 24.7725C23.613 24.7725 23.202 24.9045 22.851 25.1535C22.6366 25.3039 22.4545 25.4957 22.3154 25.7176C22.1764 25.9395 22.0832 26.1871 22.0414 26.4456C21.9996 26.7041 22.01 26.9684 22.072 27.2228C22.1341 27.4773 22.2464 27.7167 22.4025 27.927C22.7247 28.3556 23.2015 28.6414 23.7314 28.7235C24.2612 28.8056 24.8022 28.6775 25.239 28.3665C25.4537 28.2162 25.6362 28.0244 25.7755 27.8024C25.9148 27.5804 26.0082 27.3328 26.0502 27.0741C26.0921 26.8153 26.0818 26.5508 26.0197 26.2962C25.9577 26.0416 25.8452 25.8019 25.689 25.5915C25.497 25.3369 25.2483 25.1305 24.9627 24.9886C24.6771 24.8467 24.3624 24.7732 24.0435 24.774V24.7725Z" fill="#D52F2F"/>
</g>
<defs>
<clipPath id="clip0_1_1211">
<rect width="36" height="36" fill="white"/>
</clipPath>
</defs>
</svg>
