<svg width="16" height="16" viewBox="0 0 16 16" fill="none" xmlns="http://www.w3.org/2000/svg">
<path d="M10.2664 6.58607L7.20709 3.52873C7.08015 3.41396 6.91394 3.35239 6.74286 3.35679C6.57179 3.36118 6.40895 3.43119 6.28807 3.55233C6.16719 3.67347 6.09752 3.83645 6.09349 4.00754C6.08946 4.17862 6.15138 4.3447 6.26642 4.4714L9.32376 7.52873C9.44874 7.65375 9.51895 7.82329 9.51895 8.00007C9.51895 8.17684 9.44874 8.34638 9.32376 8.4714L6.26642 11.5287C6.14142 11.6538 6.07123 11.8235 6.07129 12.0003C6.07135 12.1771 6.14166 12.3467 6.26676 12.4717C6.39185 12.5967 6.56148 12.6669 6.73833 12.6669C6.91517 12.6668 7.08475 12.5965 7.20976 12.4714L10.2664 9.41407C10.6414 9.03901 10.852 8.53039 10.852 8.00007C10.852 7.46974 10.6414 6.96112 10.2664 6.58607Z" fill="#64748B"/>
</svg>
