<svg width="14" height="14" viewBox="0 0 14 14" fill="none" xmlns="http://www.w3.org/2000/svg">
<path d="M9.35666 2.33341C8.97412 2.33433 8.60235 2.4602 8.29793 2.69186C7.9935 2.92352 7.7731 3.24829 7.67025 3.61675L5.30833 12.1147C5.25186 12.3196 5.13025 12.5005 4.96187 12.6302C4.79349 12.7598 4.58749 12.8312 4.375 12.8334C4.16716 12.8307 3.96513 12.7644 3.79601 12.6436C3.62689 12.5227 3.49877 12.3531 3.42883 12.1573L1.79958 7.67733C1.6934 7.37208 1.51548 7.09678 1.2808 6.87458C1.04611 6.65238 0.761507 6.48977 0.450914 6.40041C0.300536 6.36398 0.170791 6.2693 0.0902209 6.13721C0.00965059 6.00511 -0.0151449 5.84642 0.0212892 5.69604C0.0577234 5.54566 0.152403 5.41592 0.284498 5.33535C0.416594 5.25478 0.575286 5.22998 0.725664 5.26641C1.2239 5.39994 1.68203 5.65304 2.06029 6.00375C2.43854 6.35445 2.7255 6.79217 2.89625 7.27891L4.33941 11.2456L6.54675 3.30291C6.71863 2.68945 7.08607 2.14886 7.59324 1.7633C8.10041 1.37774 8.71958 1.16828 9.35666 1.16675H13.4167C13.5714 1.16675 13.7197 1.22821 13.8291 1.3376C13.9385 1.447 14 1.59537 14 1.75008C14 1.90479 13.9385 2.05316 13.8291 2.16256C13.7197 2.27196 13.5714 2.33341 13.4167 2.33341H9.35666ZM13.7667 7.11675C13.6429 7.02392 13.4873 6.98407 13.3342 7.00594C13.181 7.02782 13.0428 7.10965 12.95 7.23341L11.6667 8.94433L10.3833 7.23341C10.2905 7.10965 10.1523 7.02782 9.99916 7.00594C9.846 6.98407 9.69043 7.02392 9.56666 7.11675C9.44289 7.20957 9.36107 7.34776 9.33919 7.50092C9.31731 7.65407 9.35717 7.80965 9.45 7.93341L10.9375 9.91675L9.45 11.9001C9.35717 12.0238 9.31731 12.1794 9.33919 12.3326C9.36107 12.4857 9.44289 12.6239 9.56666 12.7167C9.69043 12.8096 9.846 12.8494 9.99916 12.8276C10.1523 12.8057 10.2905 12.7238 10.3833 12.6001L11.6667 10.8892L12.95 12.6001C12.996 12.6614 13.0535 12.713 13.1195 12.752C13.1854 12.7911 13.2583 12.8167 13.3342 12.8276C13.41 12.8384 13.4872 12.8342 13.5614 12.8152C13.6356 12.7962 13.7054 12.7627 13.7667 12.7167C13.8279 12.6708 13.8796 12.6132 13.9186 12.5473C13.9576 12.4814 13.9833 12.4084 13.9941 12.3326C14.005 12.2567 14.0008 12.1795 13.9817 12.1053C13.9627 12.0311 13.9293 11.9614 13.8833 11.9001L12.3958 9.91675L13.8833 7.93341C13.9293 7.87213 13.9627 7.80239 13.9817 7.72819C14.0008 7.65398 14.005 7.57675 13.9941 7.50092C13.9833 7.42508 13.9576 7.35213 13.9186 7.28621C13.8796 7.22029 13.8279 7.16271 13.7667 7.11675Z" fill="white"/>
</svg>
