<svg width="24" height="24" viewBox="0 0 24 24" fill="none" xmlns="http://www.w3.org/2000/svg">
<g clip-path="url(#clip0_1_1692)">
<path d="M22.2 2.16291C21.6299 1.68727 20.9611 1.34456 20.242 1.15965C19.523 0.974744 18.7718 0.952287 18.043 1.09391L16.279 1.52591C15.3584 1.69461 14.5262 2.18075 13.9271 2.89973C13.3279 3.61872 12.9999 4.52502 13 5.46091V20.9279C12.3369 21.0249 11.6631 21.0249 11 20.9279V5.46091C11.0033 4.53365 10.6828 3.63432 10.0939 2.91812C9.50493 2.20191 8.68444 1.71376 7.774 1.53791L5.9 1.08191C5.17916 0.950005 4.43813 0.978161 3.72938 1.16439C3.02062 1.35061 2.36146 1.69035 1.79857 2.15956C1.23567 2.62877 0.782786 3.21598 0.471982 3.87962C0.161178 4.54326 4.88124e-05 5.2671 0 5.99991L0 16.7929C5.74558e-05 17.9637 0.410977 19.0974 1.16113 19.9963C1.91129 20.8952 2.95311 21.5023 4.105 21.7119L10.391 22.8549C11.455 23.0482 12.545 23.0482 13.609 22.8549L19.9 21.7119C21.051 21.5013 22.0916 20.8937 22.8408 19.9949C23.5899 19.0961 24.0002 17.963 24 16.7929V5.99991C24.0005 5.26736 23.8394 4.54371 23.5283 3.8805C23.2171 3.2173 22.7636 2.63085 22.2 2.16291Z" fill="#4178D4"/>
</g>
<defs>
<clipPath id="clip0_1_1692">
<rect width="24" height="24" fill="white"/>
</clipPath>
</defs>
</svg>
