<svg width="143" height="119" viewBox="0 0 143 119" fill="none" xmlns="http://www.w3.org/2000/svg">
<path opacity="0.2" d="M3.88732 82.2135C-4.91557 61.859 1.62045 31.6044 19.5601 15.1546C37.3568 -1.21274 66.527 -3.66265 88.9497 4.64025C111.403 12.8305 127.221 31.8037 131.889 52.2581C136.557 72.7125 130.075 94.648 116.425 106.812C102.775 118.977 81.8747 121.227 59.297 117.109C36.832 113.022 12.6902 102.568 3.88732 82.2135Z" fill="#86CCE9"/>
<circle opacity="0.5" cx="21.9426" cy="114.631" r="4.05153" fill="#52B6DF"/>
<circle opacity="0.5" cx="134.035" cy="22.3464" r="8.10307" fill="#52B6DF"/>
<circle opacity="0.5" cx="6.63689" cy="11.0922" r="3.15119" fill="#52B6DF"/>
<path d="M19.3895 76.4978C12.6931 61.1374 17.6136 38.3284 31.1947 25.9431C44.6675 13.6199 66.7782 11.8054 83.7859 18.0925C100.816 24.2947 112.829 38.6213 116.392 54.0523C119.954 69.4833 115.065 86.0186 104.731 95.1768C94.3969 104.335 78.5549 106.008 61.4344 102.878C44.3994 99.7698 26.086 91.8581 19.3895 76.4978Z" fill="#52B6DF"/>
<g clip-path="url(#clip0_0_90)">
<path d="M60.2163 80.8686C56.9566 80.8665 53.8077 79.6855 51.3506 77.5435C48.8935 75.4015 47.294 72.4431 46.8473 69.2142C46.4006 65.9853 47.1368 62.7037 48.9201 59.9751C50.7034 57.2465 53.4134 55.2549 56.5501 54.368C58.83 53.7151 61.2432 53.6852 63.5386 54.2815L77.7784 40.0453C78.5343 39.2842 79.4339 38.6807 80.4249 38.2699C81.4159 37.859 82.4786 37.6491 83.5514 37.6522C85.2396 37.6537 86.8583 38.3249 88.0521 39.5187C89.2458 40.7125 89.9171 42.3312 89.9186 44.0194C89.9214 45.0923 89.7115 46.155 89.301 47.1462C88.8905 48.1374 88.2877 49.0374 87.5273 49.7942L86.3172 51.0043C85.6401 51.6767 84.7253 52.0552 83.771 52.0577H80.9152V53.8584C80.9152 54.8135 80.5357 55.7295 79.8603 56.4049C79.185 57.0803 78.2689 57.4597 77.3138 57.4597H75.5131V60.3156C75.5144 60.7887 75.4218 61.2574 75.2407 61.6944C75.0595 62.1315 74.7935 62.5283 74.4579 62.8618L73.2875 64.0322C73.887 66.3265 73.8578 68.7398 73.2028 71.0189C72.4658 73.6154 70.9706 75.9329 68.9085 77.6746C66.8464 79.4162 64.3114 80.5026 61.6281 80.7948C61.1591 80.8435 60.6879 80.8681 60.2163 80.8686ZM60.2163 57.4597C58.3727 57.4579 56.5652 57.9708 54.9972 58.9406C53.4292 59.9104 52.1631 61.2985 51.3413 62.9489C50.5195 64.5992 50.1747 66.4462 50.3457 68.2819C50.5166 70.1176 51.1966 71.8691 52.309 73.3393C53.4215 74.8095 54.9222 75.94 56.6423 76.6035C58.3623 77.2671 60.2335 77.4373 62.0451 77.0951C63.8567 76.7529 65.5368 75.9118 66.8963 74.6665C68.2558 73.4212 69.2407 71.8212 69.7401 70.0465C70.3019 68.0955 70.239 66.0176 69.5601 64.1042C69.4493 63.7847 69.4307 63.4404 69.5065 63.1108C69.5823 62.7812 69.7494 62.4796 69.9886 62.2405L71.9118 60.3156V57.4597C71.9118 56.5046 72.2912 55.5886 72.9666 54.9132C73.642 54.2378 74.558 53.8584 75.5131 53.8584H77.3138V52.0577C77.3138 51.1025 77.6932 50.1865 78.3686 49.5111C79.044 48.8357 79.96 48.4563 80.9152 48.4563H83.771L84.9811 47.2463C85.406 46.8234 85.7428 46.3205 85.9722 45.7666C86.2015 45.2127 86.3188 44.6189 86.3172 44.0194C86.3167 43.2863 86.0254 42.5834 85.5072 42.0648C84.989 41.5463 84.2862 41.2545 83.5532 41.2536C82.9533 41.2521 82.3591 41.3696 81.8049 41.5992C81.2507 41.8289 80.7475 42.1661 80.3245 42.5915L65.3231 57.5912C65.0836 57.8305 64.7816 57.9974 64.4517 58.0729C64.1217 58.1484 63.7772 58.1293 63.4576 58.0179C62.4133 57.6503 61.3144 57.4615 60.2073 57.4597H60.2163ZM55.7056 70.0645C55.7056 70.4206 55.8112 70.7688 56.0091 71.0649C56.2069 71.361 56.4882 71.5918 56.8172 71.7281C57.1462 71.8644 57.5083 71.9001 57.8576 71.8306C58.2069 71.7611 58.5277 71.5896 58.7796 71.3378C59.0314 71.0859 59.2029 70.7651 59.2724 70.4158C59.3419 70.0665 59.3062 69.7044 59.1699 69.3754C59.0336 69.0464 58.8028 68.7651 58.5067 68.5673C58.2106 68.3694 57.8624 68.2638 57.5063 68.2638C57.0287 68.2638 56.5707 68.4535 56.233 68.7912C55.8953 69.1289 55.7056 69.5869 55.7056 70.0645Z" fill="white"/>
</g>
<defs>
<clipPath id="clip0_0_90">
<rect width="43.2" height="43.2" fill="white" transform="translate(46.7022 37.6522) scale(1.00038)"/>
</clipPath>
</defs>
</svg>
