<svg width="56" height="56" viewBox="0 0 56 56" fill="none" xmlns="http://www.w3.org/2000/svg">
<path d="M2.00118 9.85071L17.0118 33.4924L51.0358 43.3431L55.6511 44.931C55.7663 44.8153 55.8566 44.6777 55.9164 44.5267C55.9763 44.3757 56.0045 44.2144 55.9993 44.0524V5.16177C55.9993 4.49192 55.4589 3.94028 54.7584 3.94028H1.24065C0.900405 3.94028 0.590186 4.07819 0.364027 4.30082L2.00118 9.85071Z" fill="#FFCE7C"/>
<path d="M1.24088 45.2936H54.7787C55.1189 45.2936 55.4292 45.1557 55.6513 44.9311L54.0382 43.3432L2.00141 5.91049L0.366259 4.30089C0.250682 4.41363 0.158838 4.54771 0.0959893 4.69544C0.0331402 4.84318 0.0005208 5.00167 0 5.16184V44.0721C0 44.742 0.560396 45.2936 1.24088 45.2936Z" fill="#E19747"/>
<path d="M2.00141 43.3234V5.91042H54.0182V43.3234H2.00141Z" fill="#44911B"/>
<path d="M43.2107 20.6471C43.651 19.7408 43.8912 18.7361 43.8912 17.6722C43.8912 16.2734 43.4709 14.9731 42.7304 13.8895C41.9924 12.7987 41.6021 11.5159 41.6096 10.2054V10.1857C41.6096 6.40299 38.4874 3.32957 34.6446 3.32957C34.2644 3.32957 33.9041 3.15225 33.684 2.85673C33.0482 1.97123 32.2053 1.24938 31.2265 0.752155C30.2476 0.254934 29.1615 -0.00304169 28.06 2.70608e-05C25.7183 2.70608e-05 23.6569 1.12301 22.396 2.85673C22.2886 3.00952 22.145 3.13424 21.9776 3.22006C21.8102 3.30589 21.6241 3.35024 21.4353 3.34927C17.5926 3.34927 14.4704 6.42269 14.4704 10.2054V10.2251C14.4704 11.5451 14.0901 12.8059 13.3496 13.9092C12.6291 14.9731 12.1888 16.2734 12.1888 17.6722C12.1888 18.7361 12.429 19.7408 12.8693 20.6471C13.0094 20.9426 13.0094 21.2973 12.8693 21.5928C12.429 22.4793 12.1888 23.4644 12.1888 24.5283C12.1888 28.2125 15.2309 31.2071 18.9736 31.2071H37.0864C40.829 31.2071 43.8712 28.2125 43.8712 24.5283C43.8712 23.4841 43.631 22.4793 43.1907 21.5928C43.1295 21.4419 43.0998 21.2804 43.1032 21.1179C43.1067 20.9555 43.1432 20.7954 43.2107 20.6471Z" fill="#212121"/>
<path d="M14.0099 31.5518C17.9501 28.3427 22.9058 26.59 28.0198 26.5969C33.3435 26.5969 38.225 28.4587 42.0297 31.5577L45.0318 43.3431L42.0297 55.164H14.0099L11.0078 43.3431L14.0099 31.5518Z" fill="#8C5543"/>
<path d="M18.5932 33.3742L21.3151 27.582H24.0171V55.164L18.4131 39.6589C18.2907 39.3216 18.269 38.9567 18.3505 38.6076C18.4321 38.2585 18.6136 37.9396 18.8734 37.6888L21.5953 35.0685C21.9156 34.7533 21.6954 34.182 21.2151 34.182H19.1136C18.6933 34.182 18.4131 33.7485 18.5932 33.3742ZM37.5466 33.3742L34.8247 27.582H32.0227V55.164L37.7267 39.6589C37.9869 38.9694 37.7868 38.201 37.2664 37.6888L34.5445 35.0685C34.4716 34.995 34.4224 34.9019 34.4031 34.8009C34.3837 34.7 34.395 34.5956 34.4356 34.501C34.4762 34.4063 34.5443 34.3256 34.6313 34.2688C34.7183 34.2121 34.8204 34.1819 34.9248 34.182H37.0262C37.4465 34.182 37.7267 33.7485 37.5466 33.3742ZM14.01 31.5223C9.14655 35.5217 5.98432 41.5503 6.00434 48.2685V55.164H14.01V31.5223ZM42.0298 31.5223V55.164H50.0354V53.1938L50.0154 48.2488C50.0154 41.5306 46.9332 35.5019 42.0298 31.5223Z" fill="#6D4534"/>
<path d="M32.1226 29.1976H23.8968V55.1641H32.1226V29.1976Z" fill="#E6E6E6"/>
<path d="M28.0197 32.8423C25.7381 32.8423 23.8968 31.0298 23.8968 28.7838V23.7402C23.8968 21.4943 25.7381 19.6818 28.0197 19.6818C30.3013 19.6818 32.1426 21.4943 32.1426 23.7402V28.7838C32.1374 29.8586 31.7013 30.8879 30.9292 31.6479C30.1572 32.4079 29.1116 32.8371 28.0197 32.8423ZM22.0175 17.1206C22.0175 17.9723 21.6738 18.7891 21.062 19.3913C20.4502 19.9936 19.6204 20.3319 18.7552 20.3319C17.89 20.3319 17.0602 19.9936 16.4484 19.3913C15.8366 18.7891 15.4929 17.9723 15.4929 17.1206C15.4929 16.2689 15.8366 15.4521 16.4484 14.8498C17.0602 14.2476 17.89 13.9092 18.7552 13.9092C19.6204 13.9092 20.4502 14.2476 21.062 14.8498C21.6738 15.4521 22.0175 16.2689 22.0175 17.1206ZM40.4265 17.1206C40.4265 17.5423 40.3421 17.9599 40.1782 18.3495C40.0142 18.7391 39.7739 19.0931 39.471 19.3913C39.168 19.6895 38.8084 19.9261 38.4126 20.0874C38.0168 20.2488 37.5926 20.3319 37.1642 20.3319C36.7358 20.3319 36.3116 20.2488 35.9158 20.0874C35.52 19.9261 35.1603 19.6895 34.8574 19.3913C34.5545 19.0931 34.3141 18.7391 34.1502 18.3495C33.9863 17.9599 33.9019 17.5423 33.9019 17.1206C33.9019 16.2689 34.2456 15.4521 34.8574 14.8498C35.4692 14.2476 36.299 13.9092 37.1642 13.9092C38.0294 13.9092 38.8592 14.2476 39.471 14.8498C40.0828 15.4521 40.4265 16.2689 40.4265 17.1206Z" fill="#F4C6AD"/>
<path d="M32.1626 29.2172H23.9168V55.2033H32.1626V29.2172Z" fill="#E6E6E6"/>
<path d="M28.0198 32.862C25.8042 32.862 24.017 31.0494 24.017 28.8035V23.7599C24.017 21.5139 25.8042 19.7014 28.0198 19.7014C30.2354 19.7014 32.0226 21.5139 32.0226 23.7599V28.8035C32.0226 31.0494 30.2354 32.862 28.0198 32.862Z" fill="#F4C6AD"/>
<path d="M36.3055 11.1511H29.6008C26.9389 11.1511 24.4572 9.85084 22.9561 7.70339C22.8997 7.62209 22.8216 7.55767 22.7304 7.51721C22.6392 7.47675 22.5384 7.4618 22.4391 7.47401C22.3399 7.48623 22.246 7.52513 22.1677 7.58644C22.0894 7.64776 22.0298 7.72912 21.9954 7.8216L21.8353 8.21563C21.367 9.34846 20.0381 10.3119 19.0934 10.8162C18.613 11.0723 17.4522 11.821 17.4122 13.7911L17.6924 20.3714C17.9326 26.203 22.4958 30.1039 28.0397 30.1039C33.5836 30.1039 38.1468 26.203 38.387 20.3714L38.6472 14.1063C38.6472 11.3481 36.6858 11.1511 36.3055 11.1511Z" fill="#FFD7C2"/>
<path d="M22.5359 14.9732C23.7167 14.9732 24.6974 15.781 25.2978 16.6872C24.8115 16.8311 24.3371 16.965 23.8688 17.097C22.9321 17.361 22.0155 17.6191 21.0548 17.9481L20.0541 17.0616C19.6538 16.6872 19.6738 16.0174 20.1342 15.7022C20.7946 15.2293 21.6953 14.9732 22.5359 14.9732ZM33.5636 14.9732C32.3828 14.9732 31.4021 15.781 30.8017 16.6872C31.3221 16.8449 31.8324 16.9887 32.3388 17.1325C33.2294 17.3847 34.112 17.6349 35.0447 17.9481L36.0454 17.0616C36.4457 16.6872 36.4257 16.0174 35.9653 15.7022C35.3049 15.2293 34.4042 14.9732 33.5636 14.9732Z" fill="black"/>
<path d="M20.0342 17.3767C20.3544 16.1158 21.5153 15.1898 22.8962 15.1898C24.3372 15.1898 25.5181 16.1946 25.7983 17.5343C25.8583 17.8101 25.6182 18.0859 25.3179 18.0859H20.6146C20.2344 18.0859 19.9542 17.7313 20.0342 17.3767ZM36.0455 17.3767C35.8831 16.7365 35.5035 16.1701 34.9695 15.7713C34.4355 15.3725 33.7792 15.1651 33.1092 15.1835C32.4391 15.2019 31.7956 15.4449 31.285 15.8724C30.7744 16.2999 30.4274 16.8862 30.3015 17.5343C30.2414 17.8101 30.4816 18.0859 30.7818 18.0859H35.4851C35.8454 18.0859 36.1456 17.7313 36.0455 17.3767Z" fill="white"/>
<path d="M21.4551 17.5933C21.4551 16.5688 22.2957 15.7413 23.3364 15.7413C24.3772 15.7413 25.2178 16.5688 25.1977 17.5933C25.1977 17.7706 25.1777 17.9282 25.1377 18.0858H21.5151C21.4751 17.9282 21.4551 17.7706 21.4551 17.5933ZM34.6444 17.5933C34.6444 16.5688 33.8038 15.7413 32.7631 15.7413C31.7223 15.7413 30.8617 16.5688 30.9018 17.5933C30.9018 17.7706 30.9218 17.9282 30.9618 18.0858H34.5844C34.6244 17.9282 34.6444 17.7706 34.6444 17.5933Z" fill="#7D4533"/>
<path d="M23.3364 16.5295C23.9368 16.5295 24.4171 17.0023 24.4171 17.5934C24.4171 17.7707 24.3571 17.9283 24.277 18.0859H22.3757C22.2907 17.9234 22.2496 17.7422 22.2561 17.5596C22.2627 17.3769 22.3168 17.199 22.4132 17.0428C22.5096 16.8867 22.6451 16.7574 22.8067 16.6676C22.9684 16.5777 23.1507 16.5301 23.3364 16.5295ZM32.763 16.5295C32.1626 16.5295 31.6823 17.0023 31.6823 17.5934C31.6823 17.7707 31.7223 17.9283 31.8224 18.0859H33.7237C33.8086 17.9234 33.8498 17.7422 33.8432 17.5596C33.8367 17.3769 33.7826 17.199 33.6862 17.0428C33.5898 16.8867 33.4543 16.7574 33.2927 16.6676C33.131 16.5777 32.9487 16.5301 32.763 16.5295Z" fill="black"/>
<path d="M23.0361 16.8644C23.0361 16.9532 23.0003 17.0384 22.9365 17.1012C22.8727 17.1641 22.7861 17.1993 22.6959 17.1993C22.6056 17.1993 22.5191 17.1641 22.4553 17.1012C22.3915 17.0384 22.3556 16.9532 22.3556 16.8644C22.3556 16.7756 22.3915 16.6904 22.4553 16.6276C22.5191 16.5648 22.6056 16.5295 22.6959 16.5295C22.7861 16.5295 22.8727 16.5648 22.9365 16.6276C23.0003 16.6904 23.0361 16.7756 23.0361 16.8644ZM32.4628 16.8644C32.4628 16.9532 32.4269 17.0384 32.3631 17.1012C32.2993 17.1641 32.2128 17.1993 32.1225 17.1993C32.0323 17.1993 31.9458 17.1641 31.8819 17.1012C31.8181 17.0384 31.7823 16.9532 31.7823 16.8644C31.7823 16.7756 31.8181 16.6904 31.8819 16.6276C31.9458 16.5648 32.0323 16.5295 32.1225 16.5295C32.2128 16.5295 32.2993 16.5648 32.3631 16.6276C32.4269 16.6904 32.4628 16.7756 32.4628 16.8644Z" fill="white"/>
<path d="M28.04 23.8388C26.9393 23.8388 25.9185 23.5827 25.0379 23.1295C24.7377 22.9719 24.4375 23.3068 24.6176 23.5827C25.3381 24.6859 26.599 25.4149 28.04 25.4149C29.4811 25.4149 30.742 24.6859 31.4625 23.5827C31.6426 23.3068 31.3224 22.9719 31.0422 23.1295C30.1615 23.5827 29.1408 23.8388 28.04 23.8388Z" fill="#990838"/>
<path d="M27.2592 17.1205L26.1985 20.5289C25.9783 21.2184 26.5187 21.9277 27.2592 21.9277H28.8404C29.5809 21.9277 30.1213 21.2184 29.9011 20.5289L28.8203 17.1205C28.7669 16.9582 28.6625 16.8167 28.5223 16.7164C28.3821 16.616 28.2132 16.562 28.0398 16.562C27.8664 16.562 27.6975 16.616 27.5573 16.7164C27.4171 16.8167 27.3127 16.9582 27.2592 17.1205Z" fill="#E5AF93"/>
<path d="M35.2248 13.8304C35.3049 13.8895 35.405 13.9092 35.505 13.9092C35.7052 13.9092 35.8853 13.8107 35.9854 13.6136C36.0248 13.5506 36.0509 13.4804 36.0621 13.4072C36.0733 13.334 36.0695 13.2594 36.0508 13.1877C36.0322 13.116 35.999 13.0487 35.9534 12.9899C35.9078 12.9311 35.8506 12.8819 35.7852 12.8453C35.7252 12.8059 33.8839 11.8011 31.7824 12.1754C31.4622 12.2345 31.262 12.5301 31.3221 12.8256C31.3821 13.1408 31.6823 13.3378 31.9826 13.2787C33.5376 13.0088 34.9446 13.6944 35.1868 13.8126L35.2248 13.8304ZM20.0741 13.6333C20.1517 13.7551 20.2722 13.8445 20.4124 13.8845C20.5527 13.9245 20.703 13.9122 20.8347 13.8501C20.8547 13.8304 22.3758 13.0029 24.077 13.2984C24.3772 13.3575 24.6774 13.1408 24.7374 12.8453C24.7975 12.5498 24.5773 12.2542 24.2771 12.1951C22.2617 11.8169 20.5044 12.7428 20.2943 12.8551L20.2743 12.865C20.0141 13.0226 19.914 13.3575 20.0741 13.6333Z" fill="#212121"/>
<path d="M37.5664 13.988H30.6214C30.021 13.988 29.4606 14.2638 29.0804 14.7169C28.9582 14.8672 28.8027 14.988 28.6257 15.0699C28.4488 15.1519 28.2552 15.1929 28.0596 15.1898C27.8641 15.1929 27.6705 15.1519 27.4936 15.0699C27.3166 14.988 27.1611 14.8672 27.0389 14.7169C26.6587 14.2638 26.0983 13.988 25.4978 13.988H18.5129C18.1326 13.988 17.8324 14.2835 17.8324 14.6578V15.0913C17.8324 15.308 17.9325 15.4853 18.0926 15.6035C18.1727 15.6626 18.2327 15.7611 18.2327 15.8596V18.0268C18.2327 20.0954 19.9339 21.7897 22.0554 21.7897H23.4764C25.5779 21.7897 27.2991 20.1151 27.2991 18.0268V16.825C27.3191 16.431 27.6393 16.1354 28.0396 16.1354C28.4399 16.1354 28.7601 16.4507 28.7801 16.8447V18.0268C28.7801 20.1151 30.5014 21.7897 32.6029 21.7897H34.0239C36.1454 21.7897 37.8466 20.0954 37.8466 18.0268V15.8399C37.8466 15.7414 37.8866 15.6429 37.9666 15.5838C38.1268 15.4656 38.2268 15.2686 38.2268 15.0716V14.6381C38.2296 14.552 38.2144 14.4662 38.1822 14.3861C38.15 14.306 38.1015 14.2332 38.0396 14.1723C37.9777 14.1114 37.9037 14.0636 37.8224 14.0319C37.741 14.0002 37.6538 13.9852 37.5664 13.988ZM26.6386 17.8298C26.6386 19.6226 25.1576 21.0805 23.3363 21.0805H22.2355C20.4142 21.0805 18.9332 19.6226 18.9332 17.8298V16.4113C18.9332 15.4459 19.7137 14.6775 20.6944 14.6775H24.8574C25.8381 14.6775 26.6186 15.4459 26.6186 16.4113V17.8298H26.6386ZM37.2061 17.8298C37.2061 19.6226 35.7251 21.0805 33.9038 21.0805H32.803C30.9817 21.0805 29.5007 19.6226 29.5007 17.8298V16.4113C29.5007 15.4459 30.2812 14.6775 31.2619 14.6775H35.4449C36.4255 14.6775 37.2061 15.4459 37.2061 16.4113V17.8298Z" fill="#433B6B"/>
<path d="M14.6705 43.5598C14.6705 42.4762 15.5712 41.5897 16.6719 41.5897C17.7727 41.5897 18.6733 42.4762 18.6733 43.5598V48.0714H14.6705V43.5598ZM41.3894 43.5598C41.3894 42.4762 40.4888 41.5897 39.388 41.5897C38.2872 41.5897 37.3866 42.4762 37.3866 43.5598V48.0714H41.3894V43.5598Z" fill="#F4C6AD"/>
<path d="M18.6333 41.1365V55.1639H39.3279V39.0284C39.3279 38.1419 38.6074 37.4326 37.7067 37.4326H22.4159C20.3145 37.4129 18.6333 39.0875 18.6333 41.1365Z" fill="#F92F60"/>
<path d="M16.6319 55.1639V39.1663C16.6319 37.1174 18.313 35.4428 20.4145 35.4625H37.7067C38.6074 35.4625 39.3279 36.1717 39.3279 37.0583V38.2896H20.0143V55.1639H16.6319Z" fill="#433B6B"/>
<path d="M39.3077 37.1569H20.2142C19.7524 37.1569 19.3095 37.3374 18.983 37.6589C18.6565 37.9803 18.473 38.4163 18.473 38.8709C18.473 39.3255 18.6565 39.7614 18.983 40.0829C19.3095 40.4043 19.7524 40.5849 20.2142 40.5849H39.3077V37.1569Z" fill="#E6E6E6"/>
<path d="M24.5375 46.2786C24.5203 45.8889 24.35 45.521 24.0625 45.2527C23.7749 44.9843 23.3926 44.8365 22.9964 44.8404V44.8207H16.3917C15.9299 44.8207 15.487 45.0013 15.1605 45.3227C14.8339 45.6442 14.6505 46.0802 14.6505 46.5347V53.4499C14.6505 54.3956 15.431 55.164 16.3917 55.164H22.9964C23.817 55.164 24.5175 54.5335 24.5375 53.7258C24.5375 53.1938 24.2773 52.721 23.857 52.4452C24.2773 52.189 24.5375 51.7359 24.5375 51.2237C24.5375 50.7114 24.2573 50.2583 23.857 50.0022C24.2773 49.7461 24.5375 49.2929 24.5375 48.7807C24.5375 48.2685 24.2573 47.8153 23.857 47.5592C24.0723 47.421 24.248 47.2306 24.3671 47.0064C24.4863 46.7822 24.5449 46.5316 24.5375 46.2786ZM31.4824 46.2786C31.5024 45.4709 32.2029 44.8404 33.0235 44.8404V44.8207H39.6281C40.5888 44.8207 41.3694 45.5891 41.3694 46.5347V53.4499C41.3694 54.3956 40.5888 55.164 39.6281 55.164H33.0235C32.2029 55.164 31.5024 54.5335 31.4824 53.7258C31.4824 53.1938 31.7426 52.721 32.1629 52.4452C31.9525 52.3161 31.7795 52.1359 31.6603 51.922C31.5411 51.7081 31.4799 51.4676 31.4824 51.2237C31.4824 50.7114 31.7626 50.2583 32.1629 50.0022C31.9525 49.8731 31.7795 49.693 31.6603 49.4791C31.5411 49.2651 31.4799 49.0247 31.4824 48.7807C31.4824 48.2685 31.7626 47.8153 32.1629 47.5592C31.9475 47.421 31.7719 47.2306 31.6527 47.0064C31.5336 46.7822 31.4749 46.5316 31.4824 46.2786Z" fill="#FFD7C2"/>
</svg>
