<svg width="28" height="28" viewBox="0 0 28 28" fill="none" xmlns="http://www.w3.org/2000/svg">
<path d="M11.8448 6.48132C11.9042 6.60226 11.9435 6.73178 11.961 6.86493L12.2859 11.6948L12.4471 14.1225C12.4488 14.3721 12.488 14.6201 12.5634 14.8586C12.7581 15.3212 13.2266 15.6152 13.7363 15.5947L21.5031 15.0867C21.8395 15.0811 22.1643 15.2069 22.406 15.4364C22.6075 15.6276 22.7376 15.8777 22.7786 16.1467L22.7923 16.3101C22.4709 20.7606 19.2023 24.4726 14.761 25.4309C10.3197 26.3891 5.76543 24.3649 3.57075 20.4572C2.93804 19.322 2.54284 18.0742 2.40836 16.787C2.35219 16.406 2.32745 16.0211 2.33439 15.6362C2.32746 10.8647 5.7253 6.73965 10.4816 5.74519C11.0541 5.65606 11.6153 5.95911 11.8448 6.48132Z" fill="#64748B"/>
<path opacity="0.4" d="M15.015 2.33421C20.3349 2.46955 24.806 6.29501 25.6667 11.4476L25.6584 11.4856L25.635 11.5409L25.6382 11.6927C25.626 11.8938 25.5484 12.0872 25.4146 12.2435C25.2753 12.4063 25.0849 12.5171 24.8752 12.5601L24.7473 12.5777L15.7864 13.1583C15.4883 13.1877 15.1916 13.0916 14.9699 12.8939C14.7852 12.7291 14.6671 12.5067 14.6337 12.267L14.0323 3.31916C14.0218 3.2889 14.0218 3.2561 14.0323 3.22585C14.0405 2.9792 14.1491 2.74607 14.3337 2.57852C14.5184 2.41098 14.7637 2.32298 15.015 2.33421Z" fill="#64748B"/>
</svg>
