<svg width="22" height="26" viewBox="0 0 22 26" fill="none" xmlns="http://www.w3.org/2000/svg">
<path d="M21.6817 14.7964L19.7718 7.39155C19.212 5.22224 17.9953 3.31682 16.3152 1.97817C14.6351 0.639517 12.5879 -0.055543 10.4991 0.00347042C8.41033 0.0624839 6.39978 0.872184 4.78706 2.30387C3.17434 3.73555 2.052 5.70705 1.59844 7.90499L0.119764 15.0704C-0.0435689 15.8622 -0.0397926 16.6834 0.130814 17.4733C0.301421 18.2633 0.634501 19.0019 1.10546 19.6346C1.57643 20.2673 2.17325 20.7779 2.85186 21.1288C3.53048 21.4796 4.27356 21.6618 5.02624 21.6618H6.14606C6.37677 22.8861 6.99319 23.9869 7.89086 24.7775C8.78853 25.5681 9.91226 26 11.0716 26C12.231 26 13.3547 25.5681 14.2524 24.7775C15.1501 23.9869 15.7665 22.8861 15.9972 21.6618H16.8396C17.6144 21.6618 18.3788 21.4688 19.0729 21.0979C19.7671 20.7269 20.3723 20.1881 20.8412 19.5234C21.3101 18.8587 21.63 18.0861 21.776 17.2661C21.922 16.4461 21.8901 15.6009 21.6827 14.7964H21.6817ZM11.0716 23.8282C10.4501 23.8254 9.84463 23.6158 9.33793 23.228C8.83123 22.8402 8.44809 22.2932 8.24093 21.6618H13.9023C13.6952 22.2932 13.312 22.8402 12.8053 23.228C12.2986 23.6158 11.6931 23.8254 11.0716 23.8282ZM19.24 18.2117C18.9599 18.6122 18.597 18.9367 18.1802 19.1595C17.7633 19.3823 17.3039 19.4973 16.8386 19.4953H5.02624C4.57468 19.4953 4.1289 19.3859 3.72181 19.1753C3.31472 18.9648 2.9567 18.6584 2.67419 18.2788C2.39168 17.8992 2.19188 17.4561 2.08955 16.9821C1.98722 16.5082 1.98497 16.0155 2.08296 15.5405L3.56063 8.37402C3.91683 6.64761 4.79837 5.09904 6.06509 3.9745C7.33182 2.84996 8.91104 2.21398 10.5517 2.16767C12.1924 2.12135 13.8003 2.66736 15.12 3.71889C16.4396 4.77041 17.3952 6.26712 17.8348 7.97106L19.7447 15.3759C19.8709 15.8583 19.891 16.3658 19.8034 16.8581C19.7158 17.3503 19.5229 17.8138 19.24 18.2117Z" fill="#52B6DF"/>
</svg>
