<svg width="36" height="36" viewBox="0 0 36 36" fill="none" xmlns="http://www.w3.org/2000/svg">
<path d="M25.5 32.26C23.84 32.26 22.5 30.58 22.5 28.5C22.5 26.44 23.84 24.76 25.5 24.76C27.16 24.76 28.5 26.44 28.5 28.5C28.5 30.58 27.16 32.26 25.5 32.26ZM18 16.5C15.52 16.5 13.5 14.82 13.5 12.76C13.5 10.68 15.52 9 18 9C20.48 9 22.5 10.68 22.5 12.76C22.5 14.82 20.48 16.5 18 16.5ZM10.5 32.26C8.84002 32.26 7.50002 30.58 7.50002 28.5C7.50002 26.44 8.84002 24.76 10.5 24.76C12.16 24.76 13.5 26.44 13.5 28.5C13.5 30.58 12.16 32.26 10.5 32.26ZM18 10.5C18.82 10.5 19.5 11.18 19.5 12C19.5 12.82 18.82 13.5 18 13.5C17.18 13.5 16.5 12.82 16.5 12C16.5 11.18 17.18 10.5 18 10.5ZM31.5 18C30.86 18 30.24 18.14 29.68 18.4C28.72 17.18 27.42 16.14 25.86 15.34C27 13.74 27.68 11.8 27.68 9.7V9.58C29.86 9.12 31.5 7.18 31.5 4.84C31.5 2.18 29.32 0 26.66 0C25.28 0 24 0.58 23.16 1.5C21.6173 0.520371 19.8275 0.00014782 18 0.00014782C16.1725 0.00014782 14.3828 0.520371 12.84 1.5C12 0.58 10.72 0 9.34002 0C6.68002 0 4.50002 2.18 4.50002 4.84C4.50002 7.16 6.14002 9.1 8.30002 9.58V9.7C8.30002 11.8 9.00002 13.76 10.12 15.34C8.58002 16.14 7.28002 17.18 6.32002 18.4C5.63655 18.0921 4.88675 17.9607 4.13931 18.0177C3.39186 18.0747 2.67067 18.3183 2.0418 18.7263C1.41292 19.1343 0.896473 19.6935 0.539757 20.3528C0.183042 21.0121 -0.00253535 21.7504 2.61616e-05 22.5C2.61616e-05 25 2.00002 27 4.50002 27H4.62002C4.54002 27.48 4.50002 28 4.50002 28.5C4.50002 32.64 7.18002 36 10.5 36C12.52 36 14.3 34.74 15.4 32.82C16.24 32.94 17.1 33 18 33C18.9 33 19.76 32.94 20.6 32.82C21.7 34.74 23.48 36 25.5 36C28.82 36 31.5 32.64 31.5 28.5C31.5 28 31.46 27.48 31.38 27H31.5C34 27 36 25 36 22.5C36 20 34 18 31.5 18Z" fill="#6F4439"/>
</svg>
