<svg width="24" height="24" viewBox="0 0 24 24" fill="none" xmlns="http://www.w3.org/2000/svg">
<g clip-path="url(#clip0_1_1700)">
<path d="M20.678 7.39301C19.762 8.30901 19.971 10.231 20.703 11.56C20.9824 12.0869 21.0634 12.6966 20.9311 13.2781C20.7988 13.8597 20.4621 14.3744 19.9823 14.7286C19.5025 15.0828 18.9114 15.2529 18.3168 15.208C17.7221 15.1631 17.1632 14.9062 16.742 14.484L9.51603 7.25801C9.09633 6.83626 8.8416 6.27811 8.798 5.68471C8.7544 5.09131 8.92481 4.50193 9.27835 4.02336C9.6319 3.54479 10.1452 3.20871 10.7252 3.07601C11.3052 2.94331 11.9136 3.02278 12.44 3.30001C13.769 4.03101 15.691 4.24101 16.607 3.32501L19.086 0.843009C19.6343 0.319322 20.3633 0.0270996 21.1215 0.0270996C21.8797 0.0270996 22.6087 0.319322 23.157 0.843009C23.4248 1.11048 23.6372 1.4281 23.7821 1.77771C23.927 2.12731 24.0016 2.50206 24.0016 2.88051C24.0016 3.25896 23.927 3.6337 23.7821 3.98331C23.6372 4.33292 23.4248 4.65054 23.157 4.91801L20.678 7.39301ZM1.96903 17.347C1.47607 17.8445 1.15381 18.4857 1.04867 19.1782C0.943537 19.8706 1.06096 20.5786 1.38403 21.2L0.293031 22.293C0.10556 22.4805 0.000244141 22.7348 0.000244141 23C0.000244141 23.2652 0.10556 23.5195 0.293031 23.707C0.480558 23.8945 0.734866 23.9998 1.00003 23.9998C1.26519 23.9998 1.5195 23.8945 1.70703 23.707L2.80003 22.616C3.4201 22.9462 4.13014 23.0675 4.82465 22.9619C5.51917 22.8564 6.16109 22.5295 6.65503 22.03L14.055 14.63L9.37303 9.94401L1.96903 17.347Z" fill="#46BD84"/>
</g>
<defs>
<clipPath id="clip0_1_1700">
<rect width="24" height="24" fill="white"/>
</clipPath>
</defs>
</svg>
