<svg width="24" height="24" viewBox="0 0 24 24" fill="none" xmlns="http://www.w3.org/2000/svg">
<g clip-path="url(#clip0_1_1167)">
<path d="M18.2495 1.75243C12.5988 -1.69331 5.19834 0.100598 1.75265 5.75124C-1.69304 11.4019 0.100821 18.8024 5.75146 22.2481C6.06627 22.44 6.38666 22.6155 6.71137 22.7752C6.71662 22.7777 6.72191 22.7804 6.72726 22.7829C8.40552 23.6053 10.202 24.0002 11.9807 24.0002C16.0313 24.0002 19.9896 21.9534 22.2483 18.2492C25.694 12.5986 23.9001 5.19816 18.2495 1.75243ZM9.0884 2.19755L8.94192 2.7796L5.81226 4.54097L5.17406 4.38038C6.2902 3.37777 7.61971 2.63194 9.0884 2.19755ZM6.20465 15.1206L6.03627 15.3069C5.51254 15.8865 5.28777 16.6605 5.41949 17.4304L5.89391 20.203C3.97818 18.782 2.63118 16.7558 2.06235 14.4092C1.63279 12.6371 1.68177 10.8243 2.18441 9.12094L5.13079 10.8071C5.42291 10.9743 5.56959 11.319 5.48741 11.6454C5.27512 12.4891 5.50523 13.37 6.10293 14.0019L6.19298 14.0971C6.46152 14.381 6.46659 14.8306 6.20465 15.1206ZM12.4398 22.2195L12.2562 21.099L12.4041 21.0334C12.9379 20.7968 13.5614 20.9768 13.8868 21.4616L14.2338 21.9786C13.6379 22.1123 13.0381 22.1925 12.4398 22.2195ZM20.7312 17.3241C19.6014 19.1769 17.9517 20.5913 15.9902 21.4175C15.9751 21.3883 15.9585 21.3596 15.9397 21.3316L15.3622 20.4713C14.5551 19.2687 13.0081 18.8219 11.684 19.4089L10.9083 19.7528C10.5386 19.9167 10.3262 20.3096 10.3916 20.7087L10.6259 22.1384C9.68943 22.0117 8.77195 21.7533 7.8959 21.3673L7.17098 17.1307C7.1317 16.9013 7.19868 16.6707 7.35473 16.4981L7.5231 16.3118C8.40262 15.3384 8.38546 13.8293 7.48406 12.8761L7.39401 12.7809C7.21598 12.5927 7.14745 12.3303 7.21063 12.079C7.48635 10.9833 6.99402 9.82608 6.01345 9.26485L2.84249 7.45018C2.97332 7.18786 3.11531 6.92954 3.26971 6.67632C3.43973 6.3976 3.62179 6.129 3.81459 5.87054L5.72231 6.35058C5.79379 6.36858 5.86659 6.37749 5.9391 6.37749C6.09056 6.37749 6.24084 6.33877 6.37485 6.2633L10.146 4.14089C10.3584 4.02136 10.5125 3.81985 10.5719 3.58346L10.9869 1.93416C10.9963 1.89666 11.0024 1.85916 11.0068 1.82175C11.3445 1.7881 11.6823 1.77033 12.0191 1.77033C13.8744 1.77033 15.6999 2.27897 17.3242 3.26949C17.5133 3.3848 17.6974 3.50611 17.8772 3.63211C17.8761 3.63338 17.8748 3.63436 17.8737 3.63554L16.4264 5.21743L12.6123 5.3655C12.3172 5.37694 12.0471 5.5343 11.8916 5.78527L10.23 8.46647C10.0371 8.77786 10.055 9.17569 10.2751 9.46847L11.3268 10.8671C11.5446 11.1567 11.6634 11.5156 11.6616 11.8779L11.6521 13.7014C11.6484 14.4226 11.9619 15.1036 12.5122 15.5698C12.9556 15.9454 13.5112 16.1463 14.082 16.1463C14.2198 16.1463 14.3585 16.1346 14.4966 16.1108L16.5221 15.7623C17.2682 15.634 17.9613 15.2563 18.4737 14.699C18.7794 14.3664 19.1965 14.1752 19.648 14.1608C20.0991 14.1458 20.528 14.3105 20.8544 14.6228L21.4241 15.1681C21.4984 15.2392 21.5822 15.2939 21.6708 15.3342C21.4323 16.0215 21.119 16.6883 20.7312 17.3241ZM22.1365 13.3903L22.083 13.3391C21.4089 12.6939 20.5242 12.3549 19.5913 12.3848C18.6586 12.4146 17.7971 12.8093 17.1656 13.4963C16.9175 13.7661 16.582 13.9489 16.2208 14.0111L14.1953 14.3596C13.933 14.4047 13.7479 14.2876 13.6607 14.2139C13.5736 14.1401 13.4277 13.9766 13.429 13.7106L13.4384 11.8872C13.4423 11.1389 13.1967 10.3973 12.747 9.79922L12.0605 8.88619L13.1533 7.1228L16.8661 6.97871C17.1032 6.96952 17.3269 6.86583 17.4871 6.69066L19.185 4.83511C19.2039 4.81449 19.2212 4.79307 19.2378 4.77122C20.5545 6.08466 21.4893 7.73794 21.9386 9.59129C22.2449 10.8551 22.3077 12.1396 22.1365 13.3903Z" fill="white"/>
</g>
<defs>
<clipPath id="clip0_1_1167">
<rect width="24" height="24" fill="white"/>
</clipPath>
</defs>
</svg>
