<svg width="36" height="36" viewBox="0 0 36 36" fill="none" xmlns="http://www.w3.org/2000/svg">
<g clip-path="url(#clip0_116_2267)">
<path d="M17.9998 19.2C17.6815 19.2 17.3763 19.3264 17.1513 19.5514C16.9262 19.7765 16.7998 20.0817 16.7998 20.4C16.7998 20.7182 16.9262 21.0234 17.1513 21.2485C17.3763 21.4735 17.6815 21.6 17.9998 21.6C18.3181 21.6 18.6233 21.4735 18.8483 21.2485C19.0734 21.0234 19.1998 20.7182 19.1998 20.4C19.1998 20.0817 19.0734 19.7765 18.8483 19.5514C18.6233 19.3264 18.3181 19.2 17.9998 19.2Z" fill="#15786C"/>
<path fill-rule="evenodd" clip-rule="evenodd" d="M28.8 14.8584L19.2 10.0584V7.2H26.4V0H16.8V10.0584L7.2 14.8584V19.2H2.4V33.6H0V36H14.4V26.4H21.6V36H36V33.6H33.6V19.2H28.8V14.8584ZM31.2 33.6V21.6H28.8V33.6H31.2ZM7.2 33.6H4.8V21.6H7.2V33.6ZM14.4 20.4C14.4 19.4452 14.7793 18.5295 15.4544 17.8544C16.1295 17.1793 17.0452 16.8 18 16.8C18.9548 16.8 19.8705 17.1793 20.5456 17.8544C21.2207 18.5295 21.6 19.4452 21.6 20.4C21.6 21.3548 21.2207 22.2705 20.5456 22.9456C19.8705 23.6207 18.9548 24 18 24C17.0452 24 16.1295 23.6207 15.4544 22.9456C14.7793 22.2705 14.4 21.3548 14.4 20.4Z" fill="#15786C"/>
<path d="M19.1998 36V28.8H16.7998V36H19.1998Z" fill="#15786C"/>
</g>
<defs>
<clipPath id="clip0_116_2267">
<rect width="36" height="36" fill="white"/>
</clipPath>
</defs>
</svg>
