<svg width="120" height="30" viewBox="0 0 120 30" fill="none" xmlns="http://www.w3.org/2000/svg">
<path d="M116.068 2.88501C116.763 2.88501 117.382 3.02926 117.927 3.31776C118.483 3.60626 118.916 4.03366 119.225 4.59998C119.546 5.16629 119.706 5.85014 119.706 6.65153V11.8606H117.895V6.92401C117.895 6.1333 117.698 5.52959 117.302 5.11287C116.907 4.68546 116.367 4.47176 115.683 4.47176C114.999 4.47176 114.455 4.68546 114.049 5.11287C113.653 5.52959 113.455 6.1333 113.455 6.92401V11.8606H111.644V6.92401C111.644 6.1333 111.447 5.52959 111.051 5.11287C110.656 4.68546 110.116 4.47176 109.433 4.47176C108.749 4.47176 108.204 4.68546 107.798 5.11287C107.402 5.52959 107.205 6.1333 107.205 6.92401V11.8606H105.377V3.02926H107.205V4.03901C107.504 3.67571 107.883 3.39255 108.343 3.18953C108.802 2.98652 109.294 2.88501 109.817 2.88501C110.522 2.88501 111.153 3.0346 111.708 3.33378C112.264 3.63297 112.692 4.06572 112.991 4.63203C113.258 4.09777 113.675 3.67571 114.241 3.36584C114.807 3.04528 115.416 2.88501 116.068 2.88501Z" fill="#000E08"/>
<path d="M93.9059 7.40484C93.9059 6.51797 94.0876 5.73261 94.4509 5.04876C94.8249 4.3649 95.3271 3.83599 95.9575 3.46201C96.5986 3.07734 97.3038 2.88501 98.0732 2.88501C98.7677 2.88501 99.3714 3.02391 99.8843 3.30173C100.408 3.56886 100.825 3.90544 101.134 4.31148V3.02926H102.978V11.8606H101.134V10.5463C100.825 10.963 100.403 11.3103 99.8683 11.5881C99.334 11.8659 98.725 12.0048 98.0411 12.0048C97.2825 12.0048 96.5879 11.8125 95.9575 11.4278C95.3271 11.0325 94.8249 10.4875 94.4509 9.79298C94.0876 9.08776 93.9059 8.29171 93.9059 7.40484ZM101.134 7.4369C101.134 6.82784 101.006 6.29892 100.75 5.85015C100.504 5.40137 100.178 5.05944 99.7721 4.82437C99.3661 4.58929 98.928 4.47176 98.4578 4.47176C97.9877 4.47176 97.5496 4.58929 97.1435 4.82437C96.7375 5.04876 96.4063 5.38534 96.1498 5.83412C95.9041 6.27221 95.7812 6.79578 95.7812 7.40484C95.7812 8.0139 95.9041 8.54816 96.1498 9.00762C96.4063 9.46708 96.7375 9.81969 97.1435 10.0655C97.5603 10.3005 97.9984 10.4181 98.4578 10.4181C98.928 10.4181 99.3661 10.3005 99.7721 10.0655C100.178 9.83038 100.504 9.48845 100.75 9.03967C101.006 8.58021 101.134 8.04595 101.134 7.4369Z" fill="#000E08"/>
<path d="M88.6742 2.885C89.3473 2.885 89.9457 3.02925 90.4693 3.31775C91.0035 3.60625 91.4203 4.03366 91.7194 4.59997C92.0293 5.16629 92.1842 5.85014 92.1842 6.65153V11.8606H90.3731V6.924C90.3731 6.1333 90.1754 5.52958 89.7801 5.11286C89.3847 4.68545 88.8451 4.47175 88.1613 4.47175C87.4774 4.47175 86.9325 4.68545 86.5264 5.11286C86.1311 5.52958 85.9334 6.1333 85.9334 6.924V11.8606H84.1062V0H85.9334V4.05503C86.2433 3.68105 86.6333 3.39255 87.1034 3.18953C87.5843 2.98651 88.1078 2.885 88.6742 2.885Z" fill="#000E08"/>
<path d="M72.6347 7.40484C72.6347 6.51797 72.8163 5.73261 73.1796 5.04876C73.5536 4.3649 74.0558 3.83599 74.6862 3.46201C75.3274 3.07734 76.0326 2.88501 76.8019 2.88501C77.4965 2.88501 78.1002 3.02391 78.6131 3.30173C79.1366 3.56886 79.5533 3.90544 79.8632 4.31148V3.02926H81.7064V11.8606H79.8632V10.5463C79.5533 10.963 79.1313 11.3103 78.597 11.5881C78.0628 11.8659 77.4537 12.0048 76.7699 12.0048C76.0112 12.0048 75.3167 11.8125 74.6862 11.4278C74.0558 11.0325 73.5536 10.4875 73.1796 9.79298C72.8163 9.08776 72.6347 8.29171 72.6347 7.40484ZM79.8632 7.4369C79.8632 6.82784 79.735 6.29892 79.4786 5.85015C79.2328 5.40137 78.9069 5.05944 78.5009 4.82437C78.0948 4.58929 77.6567 4.47176 77.1866 4.47176C76.7164 4.47176 76.2783 4.58929 75.8723 4.82437C75.4663 5.04876 75.135 5.38534 74.8786 5.83412C74.6328 6.27221 74.5099 6.79578 74.5099 7.40484C74.5099 8.0139 74.6328 8.54816 74.8786 9.00762C75.135 9.46708 75.4663 9.81969 75.8723 10.0655C76.289 10.3005 76.7271 10.4181 77.1866 10.4181C77.6567 10.4181 78.0948 10.3005 78.5009 10.0655C78.9069 9.83038 79.2328 9.48845 79.4786 9.03967C79.735 8.58021 79.8632 8.04595 79.8632 7.4369Z" fill="#000E08"/>
<path d="M68.9195 4.31148C69.1867 3.8627 69.5393 3.51543 69.9774 3.26967C70.4262 3.01323 70.9551 2.88501 71.5641 2.88501V4.77628H71.0993C70.3834 4.77628 69.8385 4.95793 69.4645 5.32123C69.1012 5.68452 68.9195 6.31495 68.9195 7.21251V11.8606H67.0924V3.02926H68.9195V4.31148Z" fill="#000E08"/>
<path d="M58.057 4.34353C58.3668 3.91612 58.7889 3.56885 59.3232 3.30172C59.8681 3.02391 60.4718 2.885 61.1343 2.885C61.9143 2.885 62.6195 3.07199 63.25 3.44597C63.8804 3.81995 64.3772 4.35421 64.7405 5.04875C65.1038 5.7326 65.2855 6.51796 65.2855 7.40484C65.2855 8.29171 65.1038 9.08775 64.7405 9.79298C64.3772 10.4875 63.875 11.0325 63.2339 11.4278C62.6035 11.8125 61.9036 12.0048 61.1343 12.0048C60.4504 12.0048 59.8414 11.8712 59.3071 11.6041C58.7836 11.337 58.3668 10.9951 58.057 10.5783V11.8606H56.2298V0H58.057V4.34353ZM63.4263 7.40484C63.4263 6.79578 63.298 6.27221 63.0416 5.83411C62.7958 5.38533 62.4646 5.04875 62.0479 4.82436C61.6418 4.58929 61.2037 4.47175 60.7336 4.47175C60.2741 4.47175 59.836 4.58929 59.4193 4.82436C59.0133 5.05944 58.682 5.40136 58.4256 5.85014C58.1798 6.29892 58.057 6.82784 58.057 7.43689C58.057 8.04595 58.1798 8.58021 58.4256 9.03967C58.682 9.48845 59.0133 9.83037 59.4193 10.0654C59.836 10.3005 60.2741 10.4181 60.7336 10.4181C61.2037 10.4181 61.6418 10.3005 62.0479 10.0654C62.4646 9.81969 62.7958 9.46708 63.0416 9.00761C63.298 8.54815 63.4263 8.01389 63.4263 7.40484Z" fill="#000E08"/>
<path d="M51.7696 9.58459H47.1055L46.3041 11.8605H44.3968L48.3877 0.705202H50.5034L54.4943 11.8605H52.571L51.7696 9.58459ZM51.2567 8.09401L49.4455 2.91704L47.6184 8.09401H51.2567Z" fill="#000E08"/>
<path d="M34.9378 2.88501C35.6323 2.88501 36.252 3.02926 36.797 3.31776C37.3526 3.60626 37.7854 4.03366 38.0952 4.59998C38.4051 5.16629 38.56 5.85014 38.56 6.65153V11.8606H36.7489V6.92401C36.7489 6.1333 36.5512 5.52959 36.1559 5.11287C35.7605 4.68546 35.2209 4.47176 34.5371 4.47176C33.8532 4.47176 33.3083 4.68546 32.9022 5.11287C32.5069 5.52959 32.3092 6.1333 32.3092 6.92401V11.8606H30.482V3.02926H32.3092V4.03901C32.6084 3.67571 32.9877 3.39255 33.4472 3.18953C33.9173 2.98652 34.4142 2.88501 34.9378 2.88501Z" fill="#000E08"/>
<path d="M24.0915 12.0048C23.2581 12.0048 22.5048 11.8178 21.8316 11.4438C21.1585 11.0592 20.6295 10.5249 20.2449 9.84106C19.8602 9.14653 19.6679 8.34514 19.6679 7.4369C19.6679 6.53934 19.8656 5.74329 20.2609 5.04876C20.6563 4.35422 21.1959 3.81996 21.8797 3.44598C22.5636 3.072 23.3276 2.88501 24.1717 2.88501C25.0158 2.88501 25.7798 3.072 26.4637 3.44598C27.1475 3.81996 27.6871 4.35422 28.0825 5.04876C28.4778 5.74329 28.6755 6.53934 28.6755 7.4369C28.6755 8.33445 28.4725 9.1305 28.0664 9.82504C27.6604 10.5196 27.1048 11.0592 26.3996 11.4438C25.705 11.8178 24.9357 12.0048 24.0915 12.0048ZM24.0915 10.4181C24.5617 10.4181 24.9998 10.3059 25.4058 10.0815C25.8226 9.85709 26.1591 9.52051 26.4156 9.07173C26.672 8.62295 26.8002 8.07801 26.8002 7.4369C26.8002 6.79578 26.6774 6.25618 26.4316 5.81809C26.1858 5.36931 25.8599 5.03273 25.4539 4.80834C25.0479 4.58395 24.6098 4.47176 24.1396 4.47176C23.6695 4.47176 23.2314 4.58395 22.8254 4.80834C22.43 5.03273 22.1148 5.36931 21.8797 5.81809C21.6446 6.25618 21.5271 6.79578 21.5271 7.4369C21.5271 8.38788 21.7675 9.12516 22.2484 9.64873C22.7399 10.1616 23.3543 10.4181 24.0915 10.4181Z" fill="#000E08"/>
<path d="M14.4204 2.885C15.0936 2.885 15.692 3.02925 16.2156 3.31775C16.7498 3.60625 17.1665 4.03366 17.4657 4.59997C17.7756 5.16629 17.9305 5.85014 17.9305 6.65153V11.8606H16.1194V6.924C16.1194 6.1333 15.9217 5.52958 15.5264 5.11286C15.131 4.68545 14.5914 4.47175 13.9076 4.47175C13.2237 4.47175 12.6788 4.68545 12.2727 5.11286C11.8774 5.52958 11.6797 6.1333 11.6797 6.924V11.8606H9.85253V0H11.6797V4.05503C11.9896 3.68105 12.3796 3.39255 12.8497 3.18953C13.3306 2.98651 13.8541 2.885 14.4204 2.885Z" fill="#000E08"/>
<path d="M6.88003 0.721221V8.75114C6.88003 9.74486 6.5755 10.5302 5.96645 11.1072C5.36808 11.6842 4.57737 11.9727 3.59434 11.9727C2.6113 11.9727 1.81525 11.6842 1.2062 11.1072C0.607826 10.5302 0.30864 9.74486 0.30864 8.75114H2.15184C2.16252 9.24266 2.2854 9.63267 2.52047 9.92117C2.76623 10.2097 3.12419 10.3539 3.59434 10.3539C4.06448 10.3539 4.42244 10.2097 4.6682 9.92117C4.91396 9.62198 5.03684 9.23197 5.03684 8.75114V0.721221H6.88003Z" fill="#000E08"/>
<path d="M64.8184 23.3044L62.7628 29.8919H61.6329L60.0461 24.6628L58.4593 29.8919H57.3294L55.2618 23.3044H56.3797L57.8944 28.834L59.5292 23.3044H60.6471L62.2459 28.846L63.7365 23.3044H64.8184Z" fill="#797C7B" fill-opacity="0.5"/>
<path d="M51.2271 30C50.61 30 50.0491 29.8598 49.5442 29.5793C49.0473 29.2988 48.6546 28.9021 48.3661 28.3892C48.0857 27.8683 47.9454 27.2673 47.9454 26.5861C47.9454 25.9129 48.0897 25.3199 48.3782 24.807C48.6747 24.2861 49.0754 23.8894 49.5802 23.6169C50.0851 23.3365 50.6501 23.1962 51.2752 23.1962C51.9003 23.1962 52.4653 23.3365 52.9701 23.6169C53.475 23.8894 53.8717 24.2821 54.1602 24.795C54.4567 25.3079 54.605 25.9049 54.605 26.5861C54.605 27.2673 54.4527 27.8683 54.1482 28.3892C53.8517 28.9021 53.447 29.2988 52.9341 29.5793C52.4212 29.8598 51.8522 30 51.2271 30ZM51.2271 29.0383C51.6198 29.0383 51.9884 28.9462 52.333 28.7619C52.6776 28.5775 52.9541 28.3011 53.1625 27.9324C53.3788 27.5638 53.487 27.115 53.487 26.5861C53.487 26.0572 53.3828 25.6084 53.1745 25.2398C52.9661 24.8711 52.6936 24.5986 52.3571 24.4223C52.0205 24.238 51.6558 24.1459 51.2632 24.1459C50.8625 24.1459 50.4938 24.238 50.1572 24.4223C49.8287 24.5986 49.5642 24.8711 49.3639 25.2398C49.1635 25.6084 49.0634 26.0572 49.0634 26.5861C49.0634 27.123 49.1595 27.5758 49.3519 27.9444C49.5522 28.3131 49.8167 28.5896 50.1452 28.7739C50.4738 28.9502 50.8344 29.0383 51.2271 29.0383Z" fill="#797C7B" fill-opacity="0.5"/>
<path d="M43.8743 23.1842C44.6757 23.1842 45.3248 23.4287 45.8217 23.9175C46.3185 24.3983 46.567 25.0955 46.567 26.0091V29.8919H45.4851V26.1654C45.4851 25.5083 45.3208 25.0074 44.9922 24.6628C44.6637 24.3102 44.2149 24.1339 43.6459 24.1339C43.0689 24.1339 42.6081 24.3142 42.2635 24.6748C41.9269 25.0354 41.7586 25.5603 41.7586 26.2495V29.8919H40.6647V23.3044H41.7586V24.2421C41.975 23.9055 42.2675 23.645 42.6361 23.4607C43.0128 23.2764 43.4255 23.1842 43.8743 23.1842Z" fill="#797C7B" fill-opacity="0.5"/>
<path d="M36.0163 26.3457C36.0163 26.554 36.0043 26.7744 35.9803 27.0068H30.7151C30.7552 27.6559 30.9756 28.1648 31.3763 28.5335C31.785 28.8941 32.2778 29.0744 32.8548 29.0744C33.3277 29.0744 33.7203 28.9662 34.0329 28.7498C34.3534 28.5255 34.5778 28.2289 34.7061 27.8603H35.8841C35.7078 28.4934 35.3552 29.0103 34.8263 29.411C34.2973 29.8037 33.6402 30 32.8548 30C32.2298 30 31.6688 29.8598 31.1719 29.5793C30.6831 29.2988 30.2984 28.9021 30.0179 28.3892C29.7374 27.8683 29.5972 27.2673 29.5972 26.5861C29.5972 25.9049 29.7334 25.3079 30.0059 24.795C30.2784 24.2821 30.659 23.8894 31.1479 23.6169C31.6447 23.3365 32.2137 23.1962 32.8548 23.1962C33.4799 23.1962 34.0329 23.3325 34.5137 23.6049C34.9946 23.8774 35.3632 24.254 35.6196 24.7349C35.8841 25.2077 36.0163 25.7446 36.0163 26.3457ZM34.8864 26.1173C34.8864 25.7006 34.7942 25.3439 34.6099 25.0474C34.4256 24.7429 34.1731 24.5145 33.8526 24.3622C33.54 24.202 33.1914 24.1218 32.8068 24.1218C32.2538 24.1218 31.781 24.2981 31.3883 24.6507C31.0036 25.0033 30.7833 25.4922 30.7272 26.1173H34.8864Z" fill="#797C7B" fill-opacity="0.5"/>
<path d="M25.7198 28.8821L27.7634 23.3044H28.9294L26.3449 29.8919H25.0707L22.4862 23.3044H23.6643L25.7198 28.8821Z" fill="#797C7B" fill-opacity="0.5"/>
<path d="M20.8744 22.2345C20.6661 22.2345 20.4898 22.1624 20.3455 22.0182C20.2013 21.8739 20.1291 21.6976 20.1291 21.4893C20.1291 21.2809 20.2013 21.1046 20.3455 20.9603C20.4898 20.8161 20.6661 20.744 20.8744 20.744C21.0748 20.744 21.2431 20.8161 21.3793 20.9603C21.5235 21.1046 21.5957 21.2809 21.5957 21.4893C21.5957 21.6976 21.5235 21.8739 21.3793 22.0182C21.2431 22.1624 21.0748 22.2345 20.8744 22.2345ZM21.4033 23.3044V29.8918H20.3094V23.3044H21.4033Z" fill="#797C7B" fill-opacity="0.5"/>
<path d="M17.2649 24.206V28.0887C17.2649 28.4093 17.3331 28.6377 17.4693 28.7739C17.6055 28.9021 17.8419 28.9662 18.1785 28.9662H18.9839V29.8918H17.9982C17.3892 29.8918 16.9324 29.7516 16.6278 29.4711C16.3233 29.1906 16.171 28.7298 16.171 28.0887V24.206H15.3176V23.3044H16.171V21.6456H17.2649V23.3044H18.9839V24.206H17.2649Z" fill="#797C7B" fill-opacity="0.5"/>
<path d="M8.2203 26.5861C8.2203 25.9049 8.35654 25.3119 8.62901 24.807C8.90148 24.2941 9.27814 23.8974 9.75897 23.6169C10.2478 23.3365 10.8048 23.1962 11.4299 23.1962C12.2393 23.1962 12.9044 23.3926 13.4253 23.7852C13.9542 24.1779 14.3028 24.7229 14.4711 25.4201H13.2931C13.1809 25.0194 12.9605 24.7028 12.632 24.4704C12.3114 24.238 11.9107 24.1218 11.4299 24.1218C10.8048 24.1218 10.2999 24.3382 9.91524 24.7709C9.53058 25.1957 9.33824 25.8007 9.33824 26.5861C9.33824 27.3795 9.53058 27.9925 9.91524 28.4253C10.2999 28.858 10.8048 29.0744 11.4299 29.0744C11.9107 29.0744 12.3114 28.9622 12.632 28.7378C12.9525 28.5134 13.1729 28.1929 13.2931 27.7762H14.4711C14.2948 28.4493 13.9422 28.9903 13.4133 29.399C12.8844 29.7997 12.2232 30 11.4299 30C10.8048 30 10.2478 29.8598 9.75897 29.5793C9.27814 29.2988 8.90148 28.9021 8.62901 28.3892C8.35654 27.8763 8.2203 27.2753 8.2203 26.5861Z" fill="#797C7B" fill-opacity="0.5"/>
<path d="M5.4815 28.0286H1.82717L1.154 29.8919H0L3.02925 21.5614H4.29144L7.30867 29.8919H6.15467L5.4815 28.0286ZM5.16896 27.1391L3.65433 22.9078L2.13971 27.1391H5.16896Z" fill="#797C7B" fill-opacity="0.5"/>
</svg>
