<svg width="16" height="16" viewBox="0 0 16 16" fill="none" xmlns="http://www.w3.org/2000/svg">
<g clip-path="url(#clip0_1_846)">
<path d="M4.66667 14.6667H3.33333C2.8029 14.6667 2.29419 14.456 1.91912 14.0809C1.54405 13.7058 1.33333 13.1971 1.33333 12.6667V3.33333C1.33333 2.8029 1.54405 2.29419 1.91912 1.91912C2.29419 1.54405 2.8029 1.33333 3.33333 1.33333H4.66667C4.84348 1.33333 5.01305 1.2631 5.13807 1.13807C5.2631 1.01305 5.33333 0.843478 5.33333 0.666667C5.33333 0.489856 5.2631 0.320286 5.13807 0.195262C5.01305 0.0702379 4.84348 0 4.66667 0L3.33333 0C2.4496 0.00105857 1.60237 0.352588 0.97748 0.97748C0.352588 1.60237 0.00105857 2.4496 0 3.33333L0 12.6667C0.00105857 13.5504 0.352588 14.3976 0.97748 15.0225C1.60237 15.6474 2.4496 15.9989 3.33333 16H4.66667C4.84348 16 5.01305 15.9298 5.13807 15.8047C5.2631 15.6797 5.33333 15.5101 5.33333 15.3333C5.33333 15.1565 5.2631 14.987 5.13807 14.8619C5.01305 14.7369 4.84348 14.6667 4.66667 14.6667Z" fill="#64748B"/>
<path d="M12.3588 12.4714L15.4168 9.41403C15.7906 9.03837 16.0005 8.52998 16.0005 8.00003C16.0005 7.47008 15.7906 6.96169 15.4168 6.58603L12.3588 3.52869C12.2331 3.40726 12.0647 3.34006 11.8899 3.34158C11.7151 3.3431 11.5479 3.41321 11.4243 3.53682C11.3007 3.66042 11.2306 3.82763 11.229 4.00243C11.2275 4.17722 11.2947 4.34563 11.4162 4.47136L14.2775 7.33336H4.00016C3.82335 7.33336 3.65378 7.4036 3.52876 7.52862C3.40373 7.65365 3.3335 7.82322 3.3335 8.00003C3.3335 8.17684 3.40373 8.34641 3.52876 8.47143C3.65378 8.59646 3.82335 8.66669 4.00016 8.66669H14.2782L11.4162 11.5287C11.3525 11.5902 11.3017 11.6638 11.2668 11.7451C11.2318 11.8264 11.2134 11.9139 11.2127 12.0024C11.2119 12.0909 11.2288 12.1787 11.2623 12.2607C11.2958 12.3426 11.3453 12.417 11.4079 12.4796C11.4705 12.5422 11.5449 12.5917 11.6269 12.6252C11.7088 12.6588 11.7966 12.6756 11.8851 12.6749C11.9736 12.6741 12.0611 12.6557 12.1424 12.6208C12.2238 12.5858 12.2973 12.535 12.3588 12.4714Z" fill="#64748B"/>
</g>
<defs>
<clipPath id="clip0_1_846">
<rect width="16" height="16" fill="white"/>
</clipPath>
</defs>
</svg>
